<mxfile host="65bd71144e" scale="5" border="0">
    <diagram id="AXx2pKQXgl3EDvZA5sVn" name="Page-1">
        <mxGraphModel dx="2482" dy="2304" grid="0" gridSize="10" guides="1" tooltips="1" connect="1" arrows="1" fold="1" page="1" pageScale="1" pageWidth="1169" pageHeight="827" math="0" shadow="0">
            <root>
                <mxCell id="0"/>
                <mxCell id="1" parent="0"/>
                <mxCell id="17" value="" style="shape=image;verticalLabelPosition=bottom;labelBackgroundColor=default;verticalAlign=top;aspect=fixed;imageAspect=0;image=data:image/png,iVBORw0KGgoAAAANSUhEUgAABHUAAASwCAYAAAB1t3YqAAAAAXNSR0IArs4c6QAAAARzQklUCAgICHwIZIgAACAASURBVHic7N13eJ11/f/x132fk9W0Sduk6UgHlLZ0UZYgGwFFhijKEJClgAKiwlcFQYWqP1zfL19xICCK7CEbRQUEZRYEpFA6KN0jTdu0zW6SM+7fH2/v71kBO/I5OUmej+s6V5vcJ7nv5By4rvvV9/CCIAgEAAAAAACAPsXv7QsAAAAAAADA9iPUAQAAAAAA6IMIdQAAAAAAAPogQh0AAAAAAIA+iFAHAAAAAACgDyLUAQAAAAAA6IMIdQAAAAAAAPogQh0AAAAAAIA+iFAHAAAAAACgDyLUAQAAAAAA6IMIdQAAAAAAAPogQh0AAAAAAIA+iFAHAAAAAACgD4r29gUAQD7Vr35Pzz37hJ5+fo7q1jWpauRYHfbxE3TcUYepdsSw3r48AAAAANhmXhAEQW9fBAC416V/PHanfnDt/+rdhi7tOWsPjRw+TFsaVun1N9/Rbvsfr+9993IdstcURXr7UgEAAABgG1CpA2BAePuZR3Ttj36uokmH657f/pcOmDFRxRFfUlxz//GIvnHVD/WrW+7W8G9eoj12GdHblwsAAAAA/xEzdQD0e/HWOj384EPqqpqhy75ykQ6bNenfgY4kRbXXR07RJRd8QeMHF6mtsalXrxUAAAAAthWVOgD6ls5Oqb5eWrRIWr9eSiQkPy2fjselykpp112lSZOkigqtWfy23lq6XjMPPEVTJk3s9tue+Pmv6MQ8/QgAAAAA0BMIdQD0DZs3S2+9JS1caKFOV5fked0/Nwikf/3Lwp09pqmh7h11xKMaO268KgcP+veTktravlUdHZ1KBpLve/L8iMrKylRcVPS+3xoAAAAACgWhDoDCtmWLhTlvvilt3GifKyqSyso++OuCQGptlf75mrRsvrSpSfKTkgJJnpRs1Z2/+IGuv/lebWjpUlHUU8XYPXTl7Nk65ZhDVM7/HQEAAAAUOG5bABSupUulp5+WVq6UIhGpuPj9q3OyeZ4UjUrRIo0YMlRlsfna+OLTat1roobPnCoVlemjJ56lCbMOV2c8qcWvPakH/v6uWtraxUpAAAAAAH0BoQ6AwtPZKb32mjRnjtTUZGFO+tycILBZOrGY/T2d51kAFI3a1ySSqh0+QntWV+ofr76sRcVFGn/isdIB+2vi1FmaOHWWJOmd8ia9OG+dguzvBwAAAAAFilAHQOGZP1968UWpuTmzOicILMjxvNQw5OHDLcRJJu3z7e3SqlU2dycWkyKBomUV+szUKXrp7y/pv+fMUbQ4ooOHVqpk772lkqjqVy/VY39+Vu8u36CPeb4YpwMAAACgL/AC/lkaQCFZtsxartautUqbMNBJJq06p6ZG2m8/aeZMaciQ1DHPywx/VqyQ/vEPackSyfOlkqieX7ZIP5nzmt7Z0qaJY2s1espkdXY2af7ct9VVXKXPnvdlXfC5z2jXMdUEOwAAAAAKHqEOgMKxdav0xBPS229bQBO2XCUS9pgxQzrySKm6Wqqrs+Bm5Upp0yZrt6qosOqd6mppzBgbqPzWW9bKtWWLFImoqbVZL61apSdXrNSqxiaVT99L+xx7go752JGaVDtSxZHe/RUAAAAAwLYi1AFQOObNk/72N1tfHv13d2g8Lg0aJB16qLT33lJLi/Tyy9Lrr0ttbVJ5uVRVlWq9am21mTwTJ1oANHmytHix9NRT0qbNUlmptWsFgVX4HHGEtO++Umlp7/7sAAAAALCdmKkDoDC0t1v40tSUqtAJW65mzbLH0qUW+tTXS7vsYpU7u+1moU74/A0bbP35m29K991nrVr7729/vvyyBUGRf5fjxGLSG29II0dKkyb1zs8NAAAAADuIUAdAYdi40R6JRKpKJ5Gw2Tn77iutW2fVNq2t0lFHWVAzbJgFOWHBoedZ2DNhgrT77jZTZ84cq+Y54ABr73rlFav+CTdkbdhgYdGoUdLgwb338wMAAADAdiLUAdD7gsBm5DQ1pT4Xi9mGq332sdaop56y1qvjjrPP+b49pzueJ02bJg0dKj32mPTqqzZjZ6+9rMpn6VI7p+dZKBSem1AHAAAAQB/i9/YFAIA6OqwSp6PDwpogsMeUKbay/PXXpeXLrQVr8uRUGPN+gsCqfEaNsooez7PWq1hMmj7dwptEwp4bidgMn9bW/PysAAAAANBDCHUA9L76emuDisctgEkkLMyZMsWqdOrqLIiZMcOqd7Z1vrvnSVOnWjtWQ4NV40yeLI0blxqW7Ps2z6ehwUIlAAAAAOgjCHUA9L7mZhtgHLZEBYFtvCottQqezZulmhprp9qehX2JhFRWJo0da19XX29hzpAhqYog37cwp7FR6upy9zMCAAAAQA8j1AHQ+yIRe3he6nOJhLVYtbdb29TIkRbGbC/Ps68tLrbwKJGQRo+24cnpLVx1dRbsAAAAAEAfQagDoHclkxa2dHVlhjqVlVZl4/upGTrbU6WTfQ4ptSo9Gk1VBEn2Z1dXas4OAAAAAPQBhDoAepfnWatVNJoZ2rS1WdCSTNrD8zJDn+09RxCkgqGyMmvtCj8fbtLq7PzgAcwAAAAAUEAIdQD0Ls+zQMfP+t9R2H5VUWGtUtKOV+okElJJiX2v4mJrx6qutpYvyc6/ebO0fr0FOwAAAADQBxDqAOh9YYCTHtqEbVcjRlgYs3KltGnT9n1fz7MKnGXLbLPW6NFWFRSuPM8+XySSGy4BAAAAQIHi7gVA7ysttQqa9EClqytVNROuNV+2LHf2zgfxfWn1amnpUguNwhavSMS+Z7jWXLLjW7daCAQAAAAAfQChDoDeV1trFTnhjJtIxNqh6ustiNl/f6mqSnr1VQtpwkHHHyQSkVpbpX/+U9qyRdpvP1ttnkhYtU5trQU74byeeNy+NxuwAAAAAPQRhDoAClM4GNnzpHHjpA99yIKXZ5+VFi5MVd5khzu+n5qR89xz0rvvStOmSVOnSkVFmZU52TN6dmYYMwAAAADkWbS3LwAAMjZTpYcq4Vwd35dmzpQaGqSXX5buv98qb2bNkmpqbAhyaOtWC3JeeEFatUqaMMGeO3x45mar4mILecLzhdU68XjudQAAAABAASLUAdD7ysqkUaOkFSsslPF9C1fq6qTmZqu8KS+Xjj3WWqief1565hnppZcstKmoSH2v+nppzRr7noceKh10kAU6iUTmOceOtc83NlqIE43a9quGBmvNivK/RwAAAACFjbsWAL0vGpWGDEkNMvY8q6ppbpY6Ouw5iYR9fs89LQB65x0Lgdatsz8lq74ZO1Y68EBp+nRpt93se2YHOqEdXZEOAAAAAAWAUAdAYYjHM9ujJAtkIpHUx+Eq8pEjbT15V5fU1pYKbSIRq+gpLk49N/t7hsLZO+ltVkHQ/XUAAAAAQAFiUDKAwhCuNU+fcdPVZY9siYStHvd9qbLSNmNVVUlDh9rnYrHUbJzuJBLSsGFW1VNSYiGO71tV0MqVUlOTu58TAAAAAHoIoQ6AwjB2rAUtUmrGzcaN9ghbr7KF1TjhgOMPCnKydbfpKghSDwAAAAAocIQ6AApDuP0qX2vGgyC1Xau76wAAAACAAkeoA6AwRKPWfuWn/W8pCKz96v0GHe8Mz7PqoMrKVIgTidjGrS1bCHYAAAAAFDxCHQCFYfjw3Bk3W7dKq1bZFiwXIpHMEEmyACncwAUAAAAABYxQBwCy0YIFAAAAoA8g1AFQOLoLU7qrpumpc40YIY0ZIxUV2ceRiNTSYtVBLS09f04AAAAA6EGEOgAKR02NNGRI6mPflxoa3K0Yj0btkb5GPZm0legu5vgAAAAAQA8i1AFQOIYOlUpLU9U6nmfzdNrb3Zzvg7ZtMVMHAAAAQIEj1AFQOOJxq5RJF4lkVtP0lCCw7ztunDR4cOZ516yxDVgAAAAAUMAIdQAUjqIie3heagNVIiF1drpba15cbMFRus5OC5gAAAAAoIAR6gAoHDU1qcHFQWBhS2urDS5ua3PTEpVM5g5o9n3arwAAAAAUPEIdAIUj32FKEEijRkkjR1orVhgkNTZK9fVSR0f+rgUAAAAAthOhDoDCEQTWZpWvteaSDWYuLs7cgNXVZS1Y2fN9AAAAAKCAEOoAKByeZy1YgwZlBjsbNtgWLBfDkqXUXJ30rVtdXczVAQAAAFDQCHUAFA7ft7XmJSWZVTJNTdLWrT1/viCwSp3aWqmszM4ZDmdetYoNWAAAAAAKGqEOgMISi+VuuopGczdU9aTsQcmShTsMSwYAAABQwAh1ABSW4cOtWidsh/J924C1ebMFPi6CluJiC47S5+rE4/bIDnsAAAAAoEAQ6gAoLMOGWagTDkb2fVtnvmWLuxk3tbVSVZWFOUFgAU9Dg83yicXcnBMAAAAAdhKhDoDCkkzmbsDyfavccd0ORVUOAAAAgD6EUAdA4QlXmKeHLPG4uxXj3YVG4Xp11poDAAAAKFCEOgAKS2mpNG6crTXPxzaqREKqqLBzlpbaOX1f6uyUVqyQGht7/pwAAAAA0AMIdQAUFs+zUCW71SqZdFc180HnpCULAAAAQIEi1AFQeBKJzLk64RYs3+H/srpbYR4EhDoAAAAAChahDoDCU10tVVam5upEIlJLi9TU5K5aZ+xY27wVikSk+npbpc5cHQAAAAAFiFAHQOEZPtzm3ISVM2Go09hoFTwutmBFo5mVQOEsn0Si588FAAAAAD2AUAdA4YnHpVjMqnQ8L9V+VVTkrgXr/dqsXK9RBwAAAIAdRKgDoPCUlVkrVFFRagNWPG6tUFu39vz5kklr+aqtlYqLUxuw2tpsA1ZTU8+fEwAAAAB2UrS3LwB9XVKNDRvVsKlRXYmEvLSqhiAIlJQ0tKpGI4YPU0lRpPcuE31LWZmFLEVFUleXtUZ1dUkbNljQMnhwz54vnNtTVJSqzPE8C3diMWbqAAAAAChIhDrYSR16/Pc/109/dZtWbmlTUTQV3ATJhLYmi3TmV7+rK758riaPruzF60SfE86ySW9/yp5709O6a8HqbisWAAAAABQAQh3stI72Tu2211G67LOnaL+Zu6QOBIGS8jRsxCiNrO7hygr0f76fG6Ykk+5WjHuetV8NGSJt3JhaoV5XJ23ZYsObAQAAAKCAEOpgpwVBoCHDRmjy1OmaNWtSb18O+otx42yuTlubfRyuGG9okEaM6PnzeZ5UUmLnSf9cZ6fN8wEAAACAAkOogxwNDVac0N082tJSacIEaejQrAOeL4kWFfSgoqLcgCUet0e4FaunJZO51UDdVQwBAAAAQAEg1IEkW+7z5pvSww9LTz0lLV9uc2mzRaPSlCnSpz4lHXecNGuWVFoaVeP6JXrub39Rw4ox//fcZCKu4iFV2nOvWRo3agSr1rB9Egl7ZAcs0ai7QGfECGnkSNuyFQ5Pbm62lHPsWGnQoJ4/LwAAAADsIEKdAa65Wfrzn6Ubb5T++U+po+ODnx+PSwsW2OP666WjjpRGBEVatfgNvTnvJXlB9P/uwWMd7Ro+6UP6/g+/r9EjR6iYYgdsjyFDrP1q3brUWvOuLgtcOjutbKyn5+uUldkj3Hzl+3bO9nZasAAAAAAUHEKdAeyPf7RgZs6c7lut/pOtW6U/PSF56tA+Hzlev77yPB1xwGR5nt1rB0Egz4+otLRURQQ62F4VFVJVlVXmdHZa1UxHh60137rVQp2elkym2rtCnud+6xYAAAAA7ABCnQGooUG65x7pV7+S3ntv579f2RBp0WvF+sGVQzToxxU66ijuf9FDsufbeJ6FOy7eYEFgc3xGj5aWLJFaWlLH1q2zHsXBbHEDAAAAUDi49R5gNm6UrrzSHh8U6ISLgMJulLIy+7i7e2lPUkmRp3nzPF16qbVybdjg7EfAQJLvtea+L5WXW2VOMmmfCwILeDo73ZwTAAAAAHYQlToDzIMPSs88YyNCujNihPSxj0knnyztu6/d34aLhpqapBdflB59VHr+eWnTptTXeV6rIv46LVw4SFdcYWNIPvMZKRIJVFJWrsqKISou4u2G7TR2rLVhhSmh79vQ4s2bu1nB1kPCSqAwTAr7CcMwiU1YAAAAAAoElToDyIMPWhXN8uW5xzxPOv1023x1xx3SJz5ho0VeeskGKC9dKlVWSmefbRuyHn/cnj9smBQkPUWKH1PlsE9q5Mi9VF6+l667bi8deugsTZ86XWd/+Qea+25d/n9g9H3RaOZac8nemGEVjQu1tbYBKxKxECcatQRz3TqqdQAAAAAUFEonBohNm6RHHrGtVdlqa6ULLpC+8AWrsLniitRa89bW1PPGjLHCiU98QjrrLOnmm6XLLivRnXderE0NJyoSicvzPAWBbaIePz7Q9/9fUkd+vFYTxo3I3w+L/sMmbmd+Ll+VMlTlAAAAAChwhDoDQBBYSDN3roUt6caNk/77v61V6pFHpGuvlebNs+KEAw6QDjxQGj5camyU3nxTeu016eqrbQ36NddI3/pWRCNHTtRtt01UXVYxzrp10urV0tByqZL5stgRo0fbo6HBqnMiEam5WVqzxtLIsrKen6+TPow5/N5hUumyQggAAAAAthOhzgDQ0SE9+6wt9EkXiUhnnikddJD03e9a5U0sJl14oVXuTJuWuTU6kZDeesvWoIftVz/5ifTtb9s5br5ZamvLPO/PfmYVPl/6EouDsAOKi+2RPt8mFrOSMhcBSyIhDRpkJWnLllmpWjRq51y5Upo82Y4DAAAAQAEg1BkAFi60VqqurszPn3WWdO650nPPSY89Jk2ZIv3Xf0nHHmsBTCwmbd2aer7nSXvuKf3yl9IRR0jXXSfdcIO0667SRRfZ/NpHH7UwJxQE9pxRo6waqKwsPz8z+olk0mbopLdCuVxrLtn3zd66lT4oGQAAAAAKBIOSB4A33pBWrMj83Nix0gknWGHC3XdL9fXS+edLn/ykVed0duYWQgSBfb68XDrnHAtp1qyxr08kbBbPwQfnnn/5culHP5JeeMHdz4h+yvdtQndxceaK8aamzMSxp3leflepAwAAAMAOINTp5zo7bZZO+rwbz5OOO86qbm67TXr5Zava+fjHrQAie+5OOs9Ldb6cf750+OHSvffazJ4pU+xzM2bkft38+dItt9i8HmCbRaO2iaqsLDNlXL9eamlxd96xY6WqqtQ682jU1qo3NFjlEAAAAAAUAEKdfm7ePGu/Si9qGDbMwphhw+w+tazMBiKPGrVtY0rCsSa1tdL++9sg5Y0bbZ7OaadZBc/w4blf9+CD0i9+kTvbB/hAiUTuJqrs9qieFo1mtnd5nl3HByWeAAAAAJBnhDr9XHcbocPCg8WLbRbsPvvY/NewKGF7vvcBB9hMnTfftE1XyaQNWj71VKmiIvdrHn5Y+stfrHsG6HNYcQ4AAACggBDq9HNtbdaClW7QoMyFQtXVNhh5R8aFjBghDRmS+l7xuFRTI33jG9Khh+Y+f/Nm6X/+x4YzA9tk7Fh7U4UrxiMReyPV11vJWE8HLcmklbHV1kolJfax79sE8JUrSSQBAAAAFAxCnX6uu3myFRXWchWGOPH4jm+HjsdzO1JiMWmXXaQvf1n60Idyv2bVKtuI9c9/7tg5McAUF0tFRZmfi8dtuJOLwcVhcJSefEr2H0lnJzN1AAAAABQMQp1+buxYKzpIV1cnNTamPi4qsnvYHRF+bfa9dSwmHX20rUifPj336556yip2GJyM/yiZzE0dPc/tXJ1whXm2cN05AAAAABQA7k76ue4KGSIRC10mT7Z5OGvX2lKfHbk/XrNG2rJF2ntvady4zPMmErZl69OftjatbE88IT3yiA1rBt7XoEHWChVuwPJ9q5ZZvdpdK5TnSWPGWFlb+B9RJGItX42NrDYHAAAAUBAIdfq5PfaQZs2ymTmhLVukf/1Lam+XysulOXOkV1+1kSHbWrETBkN//KOtK6+stHvudPG4ff+vfMW2bWWHRu3t0k9/Kt19N2NK8AEiEam0NLMkLJm0vsJYzN15y8py2746OqztCwAAAAAKAKFOP1dSYpuu0gWB9NprNvP1kENs/s0f/iC9/roFL/+pYsfz7P76z3+Wnn9emjJFmjrVPpfesRKuPq+qki67zIKd7M6VtjbpjjukV15hWzQ+QHeDn7LXjve07laYh+1XbMECAAAAUAAIdfq5IJBmzrROknSvvCI99phtqDrhBGnhQun++62jpbj4/e+Vfd+Or1gh/f730tKl0nnnpQKb7saQxGLShz8sffOb1qaVbe5c6X//V3rjjZ3/edFPDRli1TphmOL7VuqVPQW8pySTthZu1Cir1kkmLbVsa7N+xdZWN+cFAAAAgO1AqNPPeZ60777ShAmZn4/HpTvvtA1UX/yihTs33yydf770j3/Y15WV5T6iUWu5OvNM6cknpTPOkI491oKeZPL9CxhiMekjH5FOO82GN2d79lnp3nttMxaQY/RoaehQ+3u4nWrTJhsGlUi4qZwpLbV5PmHC6XnWetXa6rbtCwAAAAC2UfQ/PwV93cyZVknz1luZQ4nXr5cefNBap777XQtmnnrKgpfDDrMBxzNmWJDjeVadc9990l/+IjU3W6BzySUW0vyn1qlk0goevvpVqaVF+vWv7X48FI9Lv/ylzaW95JLuBytjAEsmc4cThxuwXJ4zu+3L9+2NzAYsAAAAAAWAUGcA8Dzpk5+UnntOevrpzGP33mv3qFddJf3mN9aC9YtfSA89ZI/u7LWX9LWv2fesqLD73m25hljMgqMzzrBV5n/6U2bBQyJhQ5P33NNawrJn1GIAC4LUI7QtA6B25nyRiLVflZdnTvJet84+rqx0c24AAAAA2EaEOgPEjBnSySfbDJxlyzKPPfigtWh94QvSRRdJRx9toctLL9nKcskKEw46yKp+dtvNumGCYPu6UMJgZ7fdpK9/Xdq4UXrxxcznLF0qffvbFv4ce+y2b+NCPzdsmK01X7vWWqB83+bprFkjTZzoJmDxfZvlU1ycGSa1tNgWLAAAAADoZYQ6A4TvS5/9rIUoq1ZlVte0t0s//rGNEDn9dGnyZHt85jPdf6943B7Z3TDbKh6X9ttPOvdcawF7773M44sWWcXOrrtaGAWoqCi11lyyhDBca74tpWI7KhbLfLMHgfUjkjYCAAAAKACR2bNnz+7ti0B+lJba/eiCBVJ9feax1lYrepgxQxo3zoohwvAm+9Hdhqvt5ftWHRSPS/PnW/FDunfesWudMYMuF/zbsmWWSCYS9gZKJKxkbOJEm+Ld08L2rrq6VPuV59l5R42ywU9RcnEAAAAAvYdpnwPMCSdI3/mONGtW7rG5c22eThiouJRIWDh0yinSkUda4JTtgQdsK1Z7u9trQR8xeLBUUpL62PNsxXhHh7vZOkOG2HnD7x+JWHVQS4vbCiEAAAAA2AaEOgPQJz8pHXdcakN0uieekB5/3AoTXHeYdHVZocX/+392TdmDkdets61cjz1mz8UAN3q0TeYOW6F83wYzNTbueC/gfxIEmQOZgyC1+crVOQEAAABgGxHqDEDRqPTNb9pMm+xgJ5GQrr9euu02a8nyfXf3ruHg5DFjpDPPtCHM2daske64w9axY4ALy7vS+b6ljy4qdZJJKyEbO1YaNMg+9jyr0FmxQtqypefPCQAAAADbgVBngBo+XLrwQumAA3KPNTZKN90kzZljAZDv+F0Si1nl0MUXS5Mm5R7/61+lH/7Q2sMwgJWUWMgSJo1hwNLebn+6CHY8LxUapaeb3QVMAAAAAJBnhDoD2O67W8VOd8HO0qW2EeuFF9yNK0mXTEonnmjhTneDkR991NrCNm92fy0oUDU11oJVVGQBSySSmvDd1tbbVwcAAAAAeUeoM8AdeaSFKaNG5R578UXpllss4HE9XycWs1awq6+WTj65+2VG118vPfggg5MHrCCw9C+9Yiacd+MyeRw7VqquTlXrFBXZLJ8NG+yNCwAAAAC9hFAH+upXpYsukkaOzD326KPS3XdLDQ1ug51wvk5lpXTOOdI+++Q+Z8sWm/Xz+uvurgMFLghyhzz5vttQp6god25PImEtXwxLBgAAANCLCHWgsjLp/POlQw/NnZ/T3i7deqtV7fi+28HJkgU7Bx4oXXONtP/+ucfnzLFjc+a4uwYUKN+39qvBgzPn2dTX27o2V8FOdnWQ5L46CAAAAAC2QWT27Nmze/si0PuGDJEmT5ZWrrTFPun3zK2t0uLF0rhx0sSJ7gcnSzYwubFRmj/fzp9uxQpr1ZoxwzZcY4DwPKmlRVq+3N4UkYi9UaNRe2MOH97ziWMQ2IDmxkZp3TpLHSMRqavL0tDRo6Xy8p49JwAAAABsIyp18H/23lv60pe6Xy3+9tvSb34jLVjgPtRJJq2z5aKLpNNO635w8q9/Ld18sxVpYACJx631KZ3rFW2RiFRcnHmOZFLq6GCmDgAAAIBeRaiDDMceK517rjRhQu6xp56yVqw1a9wPTo7HrRDinHOkD384t9Nl61YLdZ5/ns3SA8qgQfbGCAMWz7OqmY4Ot2+E7Fk+npfqRwQAAACAXkL7FTJEItLUqdK771pVTnpRRDJpbViTJ0t77GH3s8mkm9Einmffe9Qoafp0ackSa7tK19Zmn588Wdp1V0acDAilpdYGtXGjhSy+b4HO8OGpdec9zfftP4S6Omv/CoOcRMI2Y1VV8eYDAAAA0Cv4Z2bkGDpU+u53pZNOsnvodE1N0rXX2mrxcLyIS/G4bcI67TQbm5Jt7lzp/vtt7ToGgCCwMCXfG7DKyjIDI8+j/QoAAABAryPUQbcmTrT5Ot2tFl+xwlqf5s51330SBBbsnHuu9LWvdd8Wduut0s9+ZvNz0c/5viWNkUhmsNPRYW8UVxKJ3PauSIT2KwAAAAC9ivYrvK/x4+3+eeFCqaEh89iqVdb+NH26VFPjdpxJuOBo2jRp0SJrC0s/XxDYNe6+uw15dl09hF4Ujdobb80aG6wUiViY43lSba27dWhFRdKGDdb2sx101QAAIABJREFUlUhYmNPVZWVtI0fahiwAAAAAyDP+mRnvy/etBevoo7vf2vyHP0i33273ur7f89ukQ55nXS6DB0tXXikdc0xugURrq/SjH0kPPWT3+ujHsocWh1y1XwWBpZvl5anEMHxTtrRYuAMAAAAAvYBQBx+orEy66irprLOkIUNyj991l/TYY9b9Eo26vZZYTJo0Sfrc56xqJ9vSpdKvfiW9/rrb60AvSybzP1Mn7ANMnxzueVbBQ2kYAAAAgF5C+xX+o8GDrbNl/vzcuTVtbdLq1db2NHGiu2qdUDJpm7cqKqzlatOmzONr1kidnRb6jBjh9lrQSxIJae1aqbnZgpVwVdro0faiu5hz4/tSe7udd+vWVGlaJGIbsIYO7flzAgAAAMB/QKUOtsnee0tf/7q07765x+bNk667TnrjDfebncPOm1NOkT7+8dy2sCCQHnhA+utfrTMG/VBlpb3w4ZvN9y1oaWvLrKTpSZ5npWolJank0vMsWOrocHNOAAAAAPgPCHWwzY47TvrCF6Rddsk99uST0u9+Z5UyrrtRurqs1euKK6TTT7dKonSxmPTTn0p332333OhnEglrhQrDlSCwYMf1NqpYLPO8krVfsQELAAAAQC/hbgTb5YwzpFNPlaqqco/94Q/2aGrKz+Dkmhrp4oul/ffPfc769TZf55VX3FwDelEkYhUz6WFKMml9d67WmgeBvemrqy1RDIOk1lZbDUe1DgAAAIBewEwdbJfSUmm33aR33pEWL8481tkpzZljq9BnzbJ772TSTUtWOEZlzBhp+HDp3Xel+vrM52zcaDN3dt/dxq24bg1DnpSUSI2NUl2dlW1FIvbmKyqy4U/drWrrCcXFVoq2fr29+XzfwpwRI2yuDmvNAQAAAOQZlTrYbhMnSt/6lvSRj+R2nrS3S7//vfTSS6liBpcSCWsLO+GE7quH/vIX6eabbTMW+rlwaLIriYSFSOlJpe9b2EMLFgAAAIBewJ0IdsjBB0sXXGBVMNlefVW65RZpyRL397rhiJNLL5XOPdeqdrI9+KD08MO5m7LQhyUSFq6kc7nWPNx0NWKElauln3vjRmvDAgAAAIA8I9TBDvv0p6WzzrIWqGyPPy7dfrt1qrgcnBzO1xkyRLroIunAA3Of09go3XCDVQ+hnxg92rZghSIRm22zZYu7YU7RqDRsmFXmhKFOEFha2Nbm5pwAAAAA8AEIdbDDysqkb3zDBidnjzHp6JCuv166/377ez4GJ0+YIF1+uXTYYbkVQqtWST/5ifTss+62XiOPKirsDRjyPKuWaW9390aTMteZh1xv3QIAAACA98GdCHZKUZF03nnSRz9qf08Xj0u33io9/bQFKa7ve2Mxawu78EJp6tTc4y+/LN10k7RggdvrQB7E47nrxSMRexO6nKszZoy1YIUpZTRqlTr19TasGQAAAADyiFAHO23mTOmLX7SNV9kWLrT5OvPnu23DCiUS0ic+IZ1+unXoZPvjH6V77pHWrnV/LXBo6FALV4qKUoOLOzqs36+jw12wU1SUGRyFZWKxmNsKIQAAAADoBqEOesTRR1uwM2lS7rG//U268UZp2TL3wU48bl05F1xgbVjZ5+vokK67Trr3Xqm52e21wKHycpupE4mk1qx1ddlMnY4Od+cNgtQj5HJAMwAAAAB8AEId9Iho1EKdM87I3UCVSNia87vvlpqa8jNfp6pKuvJKW3ee3RYWi1lb2DPPWA6APiqRyHwjeZ69EV31+SUSFibV1lpyGFYIxePS6tU2kRsAAAAA8ohQBz3qC1+Qjj8+c4Zt6LbbpD//2UIV1xU7sZg0Y4bN13m/trAbb5TmznV7HXCoqCj3jRSLuZ2E7ftSSUmqQkiycGfrVjs3AAAAAOQRoQ561IQJVrGz7765x1avlq65xipkIhH3HSvxuHTkkRY0TZyYe/zZZ6Xf/lZ67z231wFHxo2zLVhhuOL7Ul2dtHmz2/Mmk6mV5iE2YAEAAADoBdyFoMcdcoj01a9Ke+yRe2zlSqvYeecd99U6yaSd48ILpbPOspasdImEDXG+805p40a31wIHPC83GcwOW1wYM0YaNszOHQT2Jtu40bZguawSAgAAAIAshDpw4pRTLEjpbgPVo49asFNf7zbYCcedJJPS2WdLxxzTfVvY7bdbW1hbm7trgQOJRO5cHd93P7h40CBrwUo/Z0eHDWhiAxYAAACAPCLUgTPnniuddJItKcp2113SQw9Jra35ma8zfrx00UXdt4WtWiXdcIP02mturwM9rKrKHtFoagNWW5tVzXR2ugt24vHuw6R89BQCAAAAQJrI7NmzZ/f2RaB/Ki+X9tvPZtYsXJh5D7x1q4Uou+0mzZzpdiOWZN97/Hhp8GBp0aLcdqu6OqmlRZo6VRo1yt11oAcVF0tr11rJVzJpb6LOTqm6Who71o67Om9Dg7Rhg4U7YUlYRYU0cmT35WAAAAAA4ACVOnBqxAjp/POl/ffPPbZ5s606f+MN9wUOQWD336eeaoOTa2tzn/Pww7bqfNUqt9eCHpJIWMtTuFpcsmCnqMjd0OIgsFCnvDy1ASsMdZqb7XoAAAAAIE8IdeDcRz8qff7z3W+g+vvfpe99z1aLR6NuryOZtBzgjDOkT33KCiuy3XOP9PjjUlOT22tBD4hErP2qtDQ1IDkIbGCxywFJQZBqwUrX3Yp1AAAAAHCIUAd5cdppFqbU1OQee/ZZ6bHH7F48H/N1qqttvs6HP5x7vKFBuvpqu55YzO21YCeFoU5JSebWK9ehjufZG3nIkNTnfN96+pqbGZYMAAAAIG8IdZAXFRXSVVdJJ56YuThIsvDkuutscHI87na+jufZ+aZNk77+dQt2slu/tmyxjVivvZafDdnYCeHA4vQXMRJx134Vqqy0CqHwjep5Fuhs3er2vAAAAACQxnHDC5BSViadd560ZIm1XaUHNx0dNs9m0iTpIx9xPzg5FrO2sDVrrLBjyZLM488+K40bZ4Ugu+/u7jqwk7oLcMJV5y7FYpZApr9Jo1E2YAEAAADIK7ZfIa9qa23j1eLFuQOJ162zcGXaNNtUlY8qmcmTbX7OokVSe3vmsaVLpaFD7XrKy91fC3ZASYmtLtu0yT72fUsIq6ttjZmrfj7ftzfsli2pSqFEwiaD19TYfB0AAAAAcIz2K+TdQQdJJ59swU22V1+V7rvPKmhcz9eJx23F+ZVXSiedlLuJurVV+uEPpQceyA18UCB8P7dSJ5yI7bLUa/Bga8EKN2CFYdLmzfYnAAAAAOQBoQ7yzvelr3xF+uxnM2fNSnZ/fNNNFuy0t+dnvk5pqW3nOuSQ3CApbAt76SXm6xSkMMBJ53nWCuVyrk4yaW+e9DeF63XqAAAAAJCF9iv0Cs+zSp0VK6zNKfu+fOVKaZddpClTUsUQriST0tix1mK1YIG0YUPm8XXrrF1syhS7JhQQz7MXbP361JTtRMImc48ZY4mdC75vrVd1dVJXl32cTEqDBtkwpuy0EgAAAAAcINRBr6mulqZPl959V1q2LPPY5s0WsEydajN48rElerfd7P584UJbZJRu7VrruJkxw+bsoEBEIhaurF4tdXZauBKLScXF0oQJ7sKVSMQ2Xa1aZevTw1BHsuSvqsrNeQEAAAAgDX0C6FV77CF97nPdb5hasEC64w6rknE9XyeRsBzg0kulM86wcSnZfv1r6d57pcZGt9eC7dTd/BzX7VdS7gasIEhtwAIAAACAPCDUQa875xwLUqqrc4/dc4903XXWpuV6vk48bn+ec450xBG5C4ySSel3v5P+9jer6EGB6G6NeCLhfgjS0KG5w5Lb222dWizm9twAAAAAINqvUCAmTbLxJIsX594PL1tmnTQzZ1rQ4nq+Tk2NVRC9X1vYvHlWWTRpkrvrwHbwfXvzNDZauOP71oo1apStGHdRseN5tk597Vpp40Z7U4YtWTU1Ns+nuLjnzwsAAAAAaajUQUGorZWuuUY66qjcY01N0k9+YhUykYj7rpp43Gb9nHmmDUfOtmiRdNddNnsHBSAatZAlPe1LJHKnb/e07NXpYbVOeD0AAAAA4BiVOigYlZW2PGjRIqm+PvNYc7PU2mphy6hR7jtrgkDae2877zvvWFdNunnzrChj+nRm4va69nbpvfdsYHIYpkQiNvl61Cg3KWA4P6e52dajhUOa43H7/JgxtoELAAAAABwi1EFBmTpVGj7cgp3s1eLvvSc1NFiQUlPjtg0rLLqYONE6bLprC1uyRNp1V7seOm16UUmJ9cXV11uoEonY0KOyMmn0aPvThUhE2rRJWrlS6uhIhTrl5fbGYU0aAAAAAMdov0LB+cQnpOOPl4YNyz325z9LTzwhtbS4XzLU1WUFF9dcI33sY7kdNS0t0g9/KD35pPvKIXyASMSGLaVX5CST9gK6bsHqbiBzPnoEAQAAAECEOihAgwZJl18uHXdcbnDT0WHzdX7/e6mtzW2w43lWnTNunHTuudKsWbnPqauTbrtNmjvX3XVgG3QXruRjvfjo0VZaFs70iUatemfTJjZgAQAAAHCOUAcFafhw6YILpA9/OPdYc7N0553S66/n51piMemEE6Qrr5RmzMg9/qc/WcXO22/n53rQjaFDM9usfN8mbLe2uj3voEFSaWmqjMv3LXncutVtfyAAAAAAiFAHBezww6Wrr5b22y/32NtvW8XOv/5lxREuBYEVgpxwgrWFdTcq5Y9/tLawzZvdXgveR02NNHhwKkjxPKuWaW52G64kEjZHhw1YAAAAAHoBoQ4K2pFHSp/+tHW5ZHvuOenhh22gsusum3jchiFffrmFO0VFmce7uqQf/cjawrZscXst6Eb6avFQJGIPV+FKMmlB0ujRNqw5mbRzdXXZdO3mZjfnBQAAAIB/I9RBQSsqkr7+delLX5JGjMg8Fo9L118v3XijVcj4vruijHC+TmWl9PnPSx/6UO5zWlpsvk6+2sKQxvNSj1AQWNDi6k0RBJb0DRmSKhfzPAuYmppszTkAAAAAOESog4JXXCx97nPSQQflVuTEYtI990gvvZTqfHEpFpMOO0yaPbv7trB33pF+/GPplVfcXgeyjBxpq8qiUQtyIhGbp7N6tdTe7rYVKhbL3bJVVOS+fAwAAADAgEeogz5h0iQbVHzIIbnHli+31qc5c/JzHx2PSx/5iHTiidKoUbnH//536ZFHbDMW8iQazZxj43kW7nQXuPS0kSOthCsUidg8n6Ymdt0DAAAAcIpQB33GfvtJp54q7bpr7rE33pDuvVdaudJ9sJNIWGZw2WXShRfajN50QZBqC6uvd3st+LcgyG2z6q4ly4XKyszNW5GI9eK1t7s9LwAAAIABj1AHfYbvSxdfLH3ta9K4cbnHb7nFwpS6uvzM1ykqks48UzrwwNwgqavL1q6//LL7QhHIXvDaWhtcnF4ds3at1Njovv0qewNWJGJvEDZgAQAAAHCIUAd9zqmnSkccYQuHsj3wgLU/hWNVXAc7EyZI3/qWdPDBuc9ZuVL6/velJ5+0e3445Hn2hsh+0Ts77YVyJZm0Sp2qKgtxwg1YHR3S+vVU6wAAAABwilAHfc7o0TZf54gjco9t2CD94AfSo49akOJ6cHIiYW1hn/2stMsuucffess2Yi1c6PY6IHsxsmfYRKNu3wRBIJWXS8OGpTZg+b6FSQ0N0tat7s4NAAAAYMAj1EGfNHWqdPbZ0vTpuceWL5duv11asCA/83XicVu5fuml3beFPfyw9NvfWuUOHBoyxNqvwt47z7NQpbXVbQ9cEOQOZPY8W9vGBiwAAAAADkVmz549u7cvAtgRe+whDRpk4c3mzZnHli61DpiZM6Xhw1NdMT0tXLIUiUgTJ0rvvSe9+27m/X0QSEuWSJMnS9OmpQo60MNKS22g0oYN9rHvW6hTVWXrzouK3JzX921uT12dvenCUKmszFK+igo35wUAAAAw4FGpgz7tpJOkY46xIo1sjz4q/eUvdp+dj/k61dXSd78rfepTufN+Nm2ytrBHHrHrgQPJZG5Fju/bi+9yYLHnWXBUVpZ6k3metV+1tro7LwAAAIABj1AHfVpFhfSd79hMm0GDMo+1tEg//KF0zz024sR1hUwsZuvWzz3XqoiyLV8u/f730ttvu72OAc9VevdBsjdgSVYZ5HqoEwAAAIABjfYr9Hnl5dZitWCBtGpV5rH2dquS2WMPafx49/f7QWBtVsXFNhw5uy1s2TIr3pg2TaqpcXstA04kYkle2AYViVjlTiSSWnfugudZoLNmjdTUlHls7Fgr4WK2DgAAAAAH+Gdk9AuHHCJddpk0a1busVdeka69VnrjDff31mFodNJJ0sc/3n2OcN990v33Sxs3ur2WAcf3U2vNQ0FgZVoud8oHgbVfVVdbOVgQpAKm9evptwMAAADgDKEO+o3jjpM++Um7t8721FPSvfdK9fXug52uLqseuuoq6fTTuw92br5Zeughu+9HD0ok7BGma2HAko/d9rFYauuWZOcsLqYFCwAAAIAz3G2g3ygtla64wmbaDB2ae/zWW22+TkuL22AnHJw8YoR0zjnSXnvlPmfDBpuv869/ubuOAamiwhK1MEjxfevBa2uzQcqu+L6du6gos8evqYlKHQAAAADOMFMH/UpxsTR6tDRvns2vSdfVJa1bJ82YIU2aZJ9zOWMnmZQmTJBGjbI15+vWZR5fu9Y+t/vuNvIFPaCoSFq92gYpSZawdXTYizB6tLs0Lxq19emrVlmAFM7zkWyY0/Dhbs4LAAAAYEBzvA8IyL899pC+9z2rlnn++czgZv58afZsC38OPdTu+V0GO7GYrVx/911r/Vq7NvP4k09KU6da5jBunLvrGDDi8VT7VXobVDSanxas7GqgfJwXAAAAwIBFpQ76pXHj7P5+/nxpy5bMY2vX2v3+zJlWQJGPDdjTp0uNjdKiRVbQkW7+fJu7M22adQ5hJyQSVqmzcWMq2AmCVKVOUZGb8/q+nWvdutQGLN+3VG/UKOvFYwMWAAAAgB7GPyGj3zr7bJuvM3Jk7rF77rEZOxs32r23y2AnHrdxK2efLe27b+7x1lbpuutsmHPYsYMdNHiwhSilpalQp6vLkrzmZrfnLi+XysoyK4Q6OizF44UFAAAA4AChDvqt4mLpc5+TDj44t0giFrPV4i++aPfgkYi7YCccnDx9unT11dJhh6Xu+0ONjdINN0gvvOB2nu+AEAS5L2ZYSeNSImEJXvrmrXy1fgEAAAAYkGi/Qr82bJgNRl6xwgYnZy8meucdG2a82275Gbmyyy52DQsWSJs3Zx5fs8ZyhxkzpKoqt9fSr61aJa1caQGL79svvqZGmjjRbX9bJGIvan29pXi+b9dQXm6tX/TWAQAAAOhhhDro92pqbJTKggW2SjxdQ4PU2WnzdUaOdF8lEwRWsROPSwsX2nr1dAsWWGHHtGlSZaXba+m34nFrt2ptTSV1iYQ0ZozbtCwatVBn1Sp7U4WhzqBBlubxggIAAADoYfQEYEA4+WTpwgutKifbo49K//u/0tKldl/uUiIhlZRIl1wiHX+8/T1dV5f0i19Ijz+eO1AZ22jQIOu9C4VrzTs63E/Fjsdzk8GiIoYkAwAAAHCCUAcDgudJp5wiHXWUzbLNdued0kMPpYo7XM/XKSmRLr5Y+uhHc4OkWEy68Ubp6aft79hOiURqrXkonG3jeq5OTU2qIicIUi1ZjY0MSwYAAADQ4wh1MGDU1EjXXCOdeGJuhYwk3XSTVcjEYu4LK2Ixm51z7rnWapVt/nzp+9+3Qc7YTqWlNr8mTOc8zypoWlvtF+8y2KmstEqh9A1YLS1SWxsTsAEAAAD0OEIdDCjjx1uQMmtW7rE1a6Tbb5fmzbNQx3VRRzwuffKT1oo1aVLu8X/9S7rrLmnxYrfX0e9UVdn8nOJiC1J833rZ6uosXHEpHs/cgCXZm6moiA1YAAAAAHocdxkYcI4+WvrWt7oPdv7+d+nHP04FOy6F9/1f+IL06U9LFRW5x2+91drCmprcXku/kx2seJ771eLJpDR4sFRdbSFOWCUUi9mE7vZ2d+cGAAAAMCAR6mBA+sxnbHjyiBG5xx5/XPrDH6RNm9wHO+GYlQsvlE44oft5PzfdZMOcXReZ9CuDBlmwEgqHJbscUhQEdt5hwzJDna4uW7NGqAMAAACghxHqYMC66CILdoYMyT32m99Y61NLS37m64wfL111lXToobnHV62Srr1Weu45t9fRr4wZYy9sWK3jedZ+tWWL2/MGgVUJZQ9FZgMWAAAAAAcIdTBgVVfbfJ199sk9tnmz9LOfSc8/b/firsehxGLSlCnSeedJM2fmHn/vPem3v5XeesvtdfQb3a0v8zz3g5IkaehQq9gJ+b5tv6JSBwAAAEAPI9TBgLb//tLVV0sHHJB7rK5O+vnPpTlz8pMFJBJWOXTaabapK9sjj0jXXSctWuT+Wvq8ZNIe2WvNfd/ti+l51tNXXp5ZJbRpk5V9dRc2AQAAAMAOItTBgHfkkdLpp1sLVLbnnpPuuUdau9Z990wyacHO+edLp55q27GzPfaY9MQT7ruI+ryaGnuEs23C1eJ1dTZbx2WwE4vlDmqORvOzUg0AAADAgEKoA8iClPPPl0aNyj12223SLbfYrNt8zNepqpK++U3p8MNzjzc3S//zP9I//uH2Ovq8QYOsWsb3U6FOV5fU2mqBiytBYLN8KivtzRKeu6PDWrA6O92dGwAAAMCAQ6gDyDKASy6Rjjgid37O1q3Sr38tPf20fRzmBC6EG7Bra6Uvf9naw7LV10s33CC98oqba+gXgsDKnpLJ1OfCteYuq2WCwGbqpK81932bp1Nfz1wdAAAAAD2KUAf4t2HDpP/6Lwt2su/7m5psvs4zz6Tu012KxaSjjpIuv1yaNSv3+DPPSD/+sTR3rtvr6LM8TyottRAn3datbteaSxYkxeOZgZLvW8jj+o0DAAAAYECJzJ49e3ZvXwRQKMaMsdBmwQKbbZuuvl5as0aaPl0aOzbznt2VXXaxTVwLF0ptbZnHli+Xhg+36xk82P219Cm+bwHOmjVWHeP7qcqdceOsmsYVz5M2bJDWrbMAyfftvEOH2rl5sQAAAAD0EP7ZGMhy5pnSV75igUq2F1+U7rpLWr3a/XydeFwqK5O+9jXpYx/LPV9Xl23Duu02C36wDVxvv5LshRo1KnMDlmQhT1OT23MDAAAAGFAIdYAskYh0wQXSscdaB0+6REL63e+kP/0pVYTher5ORYWFTIcf3v28n7vusvk6iYSb6+izultr7nn52UAVj9sL0t0GLAAAAADoIbRfAd2IRqXJk617Z8mSzMAkkbDPjRkjTZqUn1Xn48bZY9EiW6+ebuNG+9zUqfYc/Jvn2QrzxsbUx/G4NHKkrTt39cKFg5FXrbJtW55n4U40auVfVVXM1gEAAADQIwh1gPdRVSVNnGhByooVmcc2b5aWLpVmzJB23dX9fJ1kUpowwTZiL1iQ28WzZo1UUiJNm2YDnyELU5Yvt9Qr/DhcLTZmTO4Q5Z48b2mptVs1NGRuwKqulkaPloqL3ZwbAAAAwIDCPxcDH2DffaXzz7ewJNvcudJvfystXuwuHwglk5YLXHyx9MUvWrFJukTC1q7fdJNlCZD9UuLxzBaocAtVPsqrstuvfN/eKFTpAAAAAOgh3F0AH8DzpM99TvrUp6TKytzj990nPfyw1NLiNicIi0w8TzrtNOmww3KLPYJAuv9+6YUXbIjygFdaaulXaamFLGH71bp19oK5kkzai1NTY+VT4bmTSTt3c7O7cwMAAAAYUAh1gG1wySXSySd3v436xhstTAk3Z7sSBjsTJkiXXy4ddFDuc1aulL7zHenPf7b8YkArKrIp09FoqmImmbQZO1u3uj13NGrnLirK/7kBAAAADBiEOsA2qK2VrrhCOvTQ3GPr1tlq8Zdesmod18uV4nFpr72kc86Rdt899/h770l33inNn+/2OvqE7BYoyYKWfLRAxeO5w5ZovwIAAADQgxiUDGyjqipp6FAbnJw9t2bLFhuePG2azeB1PThZkvbZx/KB+fNzBycvXGh/zpgxwAcnb9xoW6g6OuyXlUxaudXEiVZJ44rvW6izZo21eqUnfWPH2sBkwh0AAAAAO4m7CmA7HH+8tWFlDyqWpL/+Vbr+equUyccc3mRSOukk6aMflQYNyn3OQw9JTz1lW7UHrHHjpOHDM9eKb9wobdhgVTwuy6qGDrUAKTxHJGIvRkuLnRsAAAAAdhKhDrCdLrrIWp+qqnKP/fGP0iOP2OgU18FOLGYFH7NnSyeemDs4eeNG6Xvfs+vp6HB7LQUtO7gJgtyWLBfi8dT2rTBUCrdvue7RAwAAADAgEOoA22noUOnSS20DVbaWFumXv5See85CHdcdNl1d0qhRFjLtuWfu8XXrpNtus/XrA1J3q8U9z/3wo2TSyqeqqizESd++tWGDTdUGAAAAgJ3ETB1gBwwZYrNzliyRVq/OPNbWJq1dK+22mzR+vNvrCDdlT55sGcLChVJDQ+Zzli+X6uttqPKYMW6vp+BEItL69Va2lB6sVFZaGlZS4u7cxcU2aGn1akvfIhH7s6zM3hhDhrg7NwAAAIABgUodYAcdeqj0jW/YJqpsL79sG7HmzcvPPNxEQvrEJ2zmT3eDkZ94wtqwNmxwfy0FpbTUApxwrXkY6jQ2Sp2d7s8fi6XCpFBRkfvePAAAAAADAqEOsBOOPlo69dTuK2Ceflq67z4rFHF9Dx+PW+HHVVdJp51m83mz/epX0h/+YC1iA0p3q8XzFawMGyaVl6c+jkSk5mYr58rHXB8AAAAA/RqhDrATSkuliy+WjjoqNyPo6pJ+8QubadPcbBU7ru7jPc/OV1EhnX22rTvP1tRk1/L6626uoWCNGJGZcvm+tUU1N+fn3OltVpFI6tyEOgAAAAAPyfGUAAAgAElEQVR2EqEOsJMqKqSvf1065hjr8knX1SXdc4/0wgtWLOKyFcvzrNvnQx+yrVcHHpj7nDfekL7zHbueAZMpDBtmA4fCH9jzrP2qtdX9LyEWS23AkuzPSMTeKGzAAgAAALCTCHWAHrDnntLll0v77597bNEim6/zxhv56fiJx23ez6mnSmPH5h5/+WVrw1q1yv21FIREwh7polH3G7CCwFqvKirsXOFMn66u/M30AQAAANCvsf0K6CHjxlk1zsKF0pYtmcfWrLE/Z8yQhg/PT5XMXntZdrBggbR1a+axuXMtZ5g+3TKHfq2tTVq2zPrPwhAnGpV23dXao1wFO0Fgm64aGmy3fDxupVodHdaSVVtrFUQAAAAAsIOo1AF6iO9LX/yiPUaPzjwWBNKtt0o332zbtV3O15EsPygpkc48U/rwh3Nzi64u6Te/kZ57LreIpd8ZOdImWRcVpdqfWltt1Xhbm/tqnXADVsjz2IAFAAAAoEcQ6gA97LTTpCOPtCHK2R54QPrb3yxUycd8nd13l669VvroR3Ozi8ZG6cc/ti1d2cuh+hXP6/6XnUzmp2Rq8OBUoBReT2urVewAAAAAwE4g1AF62Pjx0je+IR18cO6x1attvs4rr+RnVm4sJs2aJZ1xhjR5cu7xefOku++W3n3X7XX0ukQiN8CJRNwma5J9/9Gjrd0qPL/vS/X11g4GAAAAADuBmTqAA6NG2TiVhQulDRsyj23YYF0/06dbZ5DrKplk0oKdkpLu5/28/bZVDk2bZvN++qWmJqmuzoYT+779UkpLbRBSeuDS03zfZuq8955V50Qidu7yciujqqpyc14AAAAAAwKVOoAjp5wiffnLNo8328MPS7/6lbRypfvRKuEq9bPOsjaskpLc59xxh/TUU7kDlfsFz5OGDrUQJz1B27JFam93f/6yMnukD1Lq6rJfdr8faAQAAADAJUIdwKGTT5aOP777DVOPPCI98YTlCi4HJ4fzdUpLbe368cdb61e6zk7pv/9beuih/OQcedfdWvN8tF8lk1JNjZVkRaP2IkejUkuLtHatlWwBAAAAwA4i1AEcqq6WLrtMOvTQ3GObNkk/+IEFKYlEbtDS02IxacIEq9iZOTP3+IoV0s9+ZvN++p1oNHOIkedZ4BKPux+WnEx2P9MnGnUfKgEAAADo15ipAzg2bJg0YoS0eLEVZ6TbutW6gKZNk8aOzU++MH26XdOiRbZePd26dXZNU6dacUm/UVpqw4k3brRfsu/bDzpsmA1AKipyc17Ps/OtWSOtX2/hThgo1dTYTJ+yMjfnBgAAANDv8c/EQB587GPSV79qgUq2F16w+TqLF7ufryNZrnDSSdaGVVmZe/yBB6THH88dqNyn+X7uqrEgcJ+iBYFUXCzV1kqDBqVm+oRBT7/6JQMAAADIN0IdIE9OOEH69KetaifbE09YG9aWLe6DnbBY5NJLpdNOs+VP2X7+c+mee/rZ1u3sYCesmHEd7Ej2S08/V1gtRPsVAAAAgJ1A+xWQJyUl0v77WxfQggW2ACkUi0n//KcFPnvsYd1AyWRucUlPSSRsePOUKdL8+dLSpZnH29utcmjGDGnyZDfXkFeRiA0lrquTOjrs43jcQpXa2u6TrZ7i+3autWul5ubUixoEdu7q6vyUaAEAAADod/hnYiCPBg+WPv956aCDcu/j29tttfirr6YWM7neiDV5srWF7btv7nOWLEkNTs5HMYtTnme/1OyULKygcW3YMAuOwsqcaNRCpqYmC3wAAAAAYAcQ6gB5ts8+0te+Ju21V+6xuXOlb3/b5uzkY+N2PC4dc4ytXu9uMPLf/ibdcIMNVe7zerMFKh7P3LQVnruoiBYsAAAAADuM9iugF0yYYMuXFi60jpx0dXXWqjVzpjR0qNsqmfB777mnVQotWmR/plu+XBo+3DZilZe7uxbnOjpsOHFraypI8X1bOzZ8uLteN8m+94YN9giHGiUS9gKPHs0GLAAAAAA7hH8iBnpBcbG1PZ17rlRVlXv81lul22+XGhvdtmFJVkAyeLB08cXSwQfnHm9psWqdF17o421Y1dW27itcMx6JWKK2ZUsqaHEhCCylq6rKHJaUSNiK9bY2N+cFAAAA0O8R6gC9JBqVzjxTOvRQ+3u6eFy6914LUiTLH1zP1xk1SrriCunII3Pn/dTXSz/5ibVjJRJursO5RMIe2S1Q3c3acSEez53fU1TEkGQAAAAAO4xQB+hFU6ZIP/qRdPTRubnCkiXSVVdJTz2Vn9EvsZht57rkEmv9yvbaa9Ivfym99Zbb63AmDHDSf5FBkL+15pWV1r8WvtC+b2VQbW35GdYMAAAAoN9hpg7Qy6qrLVNYsEBqaMg8tmmTHZsxw9adu773DwJp111t/MyiRbnzflassPEv06ZZRtGnFBfbtql162yffCRifxYXS2PGSIMGuTt3mMqtWmXtXp5nj85Oadw4m1JNxQ4AAACA7USlDlAAzjxTOv98qbY299h990m/+Y1lEa7n6yQSNv7l/POlww/PzRm6uqSf/1y66y7LJvqU7sqdgiB/a83j8cz2L8l+wdEoG7AAAAAA7BDuJIACcdpp0lFHdb8I6YEHpKeftlwgH/N1KiqkK6+UTjjBClnSJRI2xPmZZ6zQpE8JK2TyLQjshR0yxEKc8AWMx616qM/9IgEAAAAUAtqvgAJRUSHtt5+1OL37bmbxSGur9Prr0vjx0vTp7it2kkmppsa2bS9YYJvA023aZMOTp0+3a+pT1qyxvrKwOiYWsx+0utrtBqzSUmnzZttZH4tZOtfZaWFPba2tIAMAAACA7UClDlBAxo6Vzj5bmjUr91hdnXTHHdLbb+enWycelw46SDrvPGny5NzjL74o3XKLBVB9xv9n776jpKrv/48/P/fObGd3WTosXUSKIBbQxN5iiRpMrLHXX4opmsTENE1MNMk335jEb2IXoxITe+8dCyCoSK/S28KyvczMvb8/3ow7s7MoILOy8HqcM2e/7Gdm7t3JOXu++/JdWm+bSpYmxePZv3YYtr0BS+1XIiIiIiKynfSXhMhO5sQT4VvfgsGDM8+efx6uvx5mzsxcg76jhaFlHhddZI8ePTLP77kH7rrL5v10CK3XmkPLXJv2aMsqLEzvZ3MO6uttWJGIiIiIiMg2UqgjshMaPx6++tW2N0w9/TQ88YSNYsn2wqRkYcnZZ8Nxx7W9IGriRFu7Xl+f3XvZIYqKoLS0Za6NcxaobNpkrVDZDHacszav4uKWUMnzYO1au357rFUXEREREZFdikIdkZ1Qly7wq1/B179uo1hSJRJw003w8MPWOZTN+TrJzKN3b7jiChg3LvM5K1bANddY2JRIZOc+dpiSEtsNH4lYWuV5tr99zRpoaMj+9ZOVQqmSW7m+iAHOIiIiIiLSoSnUEdlJlZXBhRfCfvtlnm3aBBMmwLRpVq2TzZEsybEzo0fDd77z6fN+Pvwwe/exwwRBegrmXPu0X4Wh7YvPz7drJSuF4nELltpjro+IiIiIiOxStP1KZCfWrx8MGADz52duoFqxApYsgb32sgHLrefv7mhhCCNG2NdZs6z9K9X8+ZZRDB8OnTtn914+l48/tg8vkbA0LJGwgUEDB2aWRe1oBQWwbp09EglL5BoarC2sV6+299mLiIiIiIhsgSp1RHZyRx4Jp55qf/O39vrr8NBDNpYl2/N1wtCCo9NPh5NOanvez4MPwpNPWiXRTqtPH7v51Lk2q1fbuvFsC4K2K4WyXW4lIiIiIiK7JP0VIdIBfPe7cOaZ0KlT5tk//2mPiorsBzuxmFXhXHutDXNOXeQElov8+tc276exMbv3st1ycjIDlObm9hkI5Jxdv/X/UE1N9uGKiIiIiIhsA4U6Ih1Afj5ccAF8+cuZeURjo60VnzTJMoPkuJZsSM7XKSmB886DAw7IHEVTVWXzft57Lzv38LnF422vNff97M7VCUOb3dO3r7VbpfbLrVixk5c3iYiIiIjIzkihjkgHMWoU/P73cPjhmWdr1sDvfgevvWa5QbY7eWIxOPRQ+H//D4YOzTyfNMm2d73zTnbvY7uUlNjD91uGFTc2WqgSi2V/YHKy/ap1C5aIiIiIiMg2Uqgj0oGMGWMzbQYNyjybMQMeeMCGJ7fHeJZEwmbrnHYadO+eef7qq/D44xY47VS6dIGuXS39CkMLd+rqbDBRe/SMRaOZyVty1Xm2p12LiIiIiMguRduvRDqYMWMsh5g9O3MD1YcfWrHJyJFQWpq9Niyw/CE/Hw46yPKQWbNsNE2qadOgZ0/bmpWbm7172SbxOMyb15I2JfvVBgyA/v0tdMkW52zD1tq1NgQpDC3caWiwoKlnz+xeX0REREREdimq1BHpYHwfzj0Xjjgic1BxEMDEifDKKy0bu7M9XycnB84/38Kdtub93H23tWO1xxzireJ5UFxs4UnywwlDqKlpv+nObVXkJAciiYiIiIiIbCVV6oh0QHl5sPfesGgRzJ+fftbUBDNnwuDBsOee2b+XIIDevWGvvawAZunS9PO1a2HOHLuXgQOzfz+fKVkZs3y5tV15Xsucm379rMQpm5yDdeusUiget38nEjbnp3dvKCjI7vVFRERERGSXoUodkQ5q8GA4+2wYPjzzbMkSuO8+C1OyveYcLJvYf3844wzrYmpt+nT4739h8eLs38tWSYY4qXw/+8OIwtAqhLp0sX60ILBQJwgs6Kmtze71RURERERkl6JQR6QDO+MM+OlPrUqmtUcegRtvtEqebAc7YWjFJpdeCt/8JpSVZT7nttssaNqwIbv3slVab59qb/F4ZgtWe6wtExERERGRXYr+ghDp4L7xDTj2WCgszDx79FF47jnrNsrmfB1o6SQ6/3w48sjMeT9hCBMmwEsvWYvYF6p3b1vZlfxQfB8qK60lqj3WmpeUWJtV8jqeZ61gdXU70fAhERERERHZ2SnUEeng8vLgZz+DU07JXJzU1AR//CPcf78FO9ms2EkOTh44EH77Wwt2WluyBH7+c3jxxS+2UIb8fEudkqGKc7a6q6mpfW6se3eb3ZPcvBWJwKZNFiwp1BERERERka2kUEdkF9CzJ5x3HuyzT+bZunVwyy0wdaqFOtkuQonHYcgQOOccGDYs83zRImvDmjUru/fxqRIJu9HUAMfz2q8FKh5Pv35ytXk0qg1YIiIiIiKy1bT9SmQXscceFu7MnWtdRKnWrbPHsGHWedTWRu0dKQhg9GjbED5zZub831mz7HvDhkHXrtm9ly3e4MqV9qGkDivu1s0+oNa9YztaGNr1KyrSr9+jB/Tqlf3ri4iIiIjILkGVOiK7kBNPhJNOsuVKrb3wAjz2GGzc2D6Dk8PQtnOdcELb834eftju6QtZ+JSfbwlYfn5LqBKPw6pVUF2d3WuHoX0gPXrYBqwwbGn/Wrky+9cXEREREZFdhkIdkV2I58FVV8HFF2duoApD+Pvf4Y47oKoq+4OTm5stt7juOgubWgdJ9fVw/fXwxBM2i6fdJRJtb6Bqjx3wbV3fOW3AEhERERGRbaK/HkR2McXFcPnl8KUvZZ7V1MDtt8Pbb7fkB9kKdpKDk3v02PK8n/Xr4V//gg8+yM49fKqCAquUSd1A1dhoE6XbQ2FhepuVc3bt5uYveIq0iIiIiIh0FJqpI7IL6twZ+vWD+fNh+fL0s6oq20I1cCD075/9ubxhCEOHtsz7Wbs2/XzRIli9Gvbay8bJtJtIxD6cjRvtQ3DOQp1evSyJymbFjOfZ9ZYvbymbArt+v362HUsDk0VERERE5DOoUkdkF3XwwfD1r0N5eebZ5MlWsbNgQfa7fcLQOo2OO87m63TunPmcZ5+FZ56BDRuyey8ZN9a6/cq59mt/aqv9y/fVfiUiIiIiIltNfz2I7MK+/W17tFUB8+STcO+9VjmT7TEy8bgVxlx9NZx6qnU9pUok4I9/tHk/7RbsJKc5t251SlbtZPvaOTmQl9fSA5cc1tzQYF9FREREREQ+g0IdkV1Ybi5cdBEcdlhmcNPYCBMmwBtvtBSoZHu+TmEhXHABHHBA5nNqauDOO62KqF1GypSW2vryvLyWUKWx0TZQ1dRk99pBYJOse/WCaNSu73k2PXr58uxfX0REREREdgkKdUR2cT16wM9/Dl/9quUHqdavh9/9zjZQJRLZ7/yJxeCgg+A3v4EDD8w8X7AAbrzRBjlnXTRqK81TK2WCwHast9c6riDITLCS83ZEREREREQ+g0Idkd3AyJFw2WUwalTm2Zw5cNttMHNm+2zzjsfhkENg/Pi228LefBMefhhWrMj+vbQ51yYabb+5Nrm59qEngx3nbPuV2q9ERERERGQraPuVyG5i4ED7OmcOVFamn338seUbI0ZYV1A225+CwLKLsWMtu5g924pjUk2bZjN4hg+HTp2ydy+sX2/pUXOzBTlBYBfs3z/LF8bCnETCrl9b21IxFItB377QtWt2ry8iIiIiIh2eKnVEdhORCJx9Nhx1lI2RSZVIwH/+Ay+/bJlCtufrJAcnn3eeVe1EIunPicXgnnusaierRSt9+kBJScsP63mwbp2lXu0x2GdLw5pFRERERES2gkIdkd1IcTH88pdwxhlQUJB+Vltr83X+8x9oaspuK1ZycHKvXvDTn1qw09rq1fDb38LTT1shTVa0NdOmPbZfJUUi9kht9woCS7Jat4WJiIiIiIi0olBHZDfTty9ceinsu2/m2cqVNl/n/fct1Ml2thGPw+jRcOaZMGhQ5vmsWbYRa+bMLN3Allaat8ew4iCAnj3tEYnYvyMRqKqylqy6uuxeX0REREREOjzN1BHZDfXrB0VFMHeudRulWrkSNm2yeTY9emS/YCQMYb/9ICfHQpyqqvTzRYssYxk2DDp33sEXz8mxD2DdOvtBPc9KiEpL7YfPydnBF0zhnP3wixbB2rUtG7gSCfsfqF8/G6QsIiIiIiKyBarUEdlNnXIKfOUrbc8DfuwxuPtua4HK5nwdsAwDrFrnyCMzc4xEAu6/H155BRoadvDF8/Nb1ppDy/apurr220DVVklUEKj9SkREREREPpMqdUR2U5GIVchUVcG8eTZHJ9WiRdCtm1Xs5Oa2bK3a0Zyz9y4osFasNWtg4cL0TKWpCT780IpnhgyxreM7RBDAggVWnpSslAlDq5IZMCC7lTpg/yM0Ntr1GxosXEqmXOXlVjEkIiIiIiKyBarUEdmNdekCl18O48ZlnlVU2HydqVMzZ/lmQyxmWcrFF1u409qyZTZf5/33d+BFnbOkqLAwvTJmzRqors7+XJ3kUObU2T5h2PYAZxERERERkVZUqSOym+ve3bZQLVhg83lTVVRYEcmQIbb9O9s5QxjCwIFWtTNnjl0/1dKllrUMG2ZZzOfmnK39+vhj++r7Fqj4vk1uLivL7g/teVahs3y5XT8ZIkUilnB16ZL9NE1ERERERDos/bUgIhx9tFXIDB6cefbqq1Yhs3RpdtecQ0vByte+Bscd1/a8n4cegvvus3k/O0Qi0dLylNQepUlJ3btbeJS8XnIDVkVFFne5i4iIiIjIrkChjogAcMYZNqy4W7fMswcfhIkTYePG7Ac7sRjk5cHPfgbnntt2sHPXXfDww5mbsrZLbq49km1QztlNNDW1z7DieNweqe1XnmeDg1SlIyIiIiIin0J/MYgIYOHJZZfBl7+cOUqmrg7+8AcLUuLx7G7ESi6gKiuDCy+0Yc6tVVRY9dB77+2AC/bqZb1ckYj9UL5vO91XrrRgJ5tzdYLAwpuiopbrJ79fXZ05vVpERERERCSFQh0R+US/flYhc/TRmRU5jY1WIfP66y3FJNmSLJYZMwauvhr23z/zOR98ADfeCJMnf86LpQ4pTr2BbA9JTl47Px969rTypOSKsXjcQqUdUookIiIiIiK7qsgXfQMisnMZOxYuvdQWQH30UfrZ9Olw++3Qu7cNK249imZHi8XgmGNsvfr69TbXJ9VLL9kQ5+7dbcDydguCzFYrz2ufYAfsg2x9/fac6yMiIiIiIh2Stl+JSIY99rBAZe7czGKRxYstaxgxAkpK2mfz9rBhdh9z5tiyqFRz51rr2F57WRfTNvM8e/PVq63vy/MsZMnPt/SqsHCH/Ayfev3KStvZ3tjY0ttWUGBJVWlp+4VLIiIiIiLSoeg/A4tIhtxc+MEPbHhy60HFzc1w883wwANQX5/d+TpgnUhFRXDBBTBuXGa+UVtrbVhPPrmdy6J83y4QjaYPK66utpClPfTubUOEktf2fStN2rAh++VQIiIiIiLSYSnUEZE2eZ6tOf/KVyzkSRWGNl/nhRcsc8jmRqzkfJ3Bg+EXv4AjjsjsSqqvh9tugzfe2M4MJB5vu/0p26u+koLAbjw1HfO89m0BExERERGRDkehjohs0dChthFr9OjMs4UL4de/tiDF97OfPcRiNu/nwgthzz0zz6dOtaBp3rztePO8PKvUSUqu4GqP7VNhaNfOy0sPkRIJqxSKxbJ/DyIiIiIi0iFppo6IfKqBAyEnx2bXbNiQflZRYZnEiBHQtWtmscuOFoY2OyeRsPk61dXp5/PnW4HNsGE272er5ebCihWwcaP92zkb3tOjh22mymbFTnJ+TmUlrFplIY7vW6CUl9c+c31ERERERKRDUqWOiHwqz7N5Nt/8pgU3rU2cCPfdZ3lItufrJBIWMF1xBZx6qmUhqZqb4aab4MEHbdbOVguCzNXmybXm7bXaPHkPqdR+JSIiIiIin0KhjohslYsugpNPbrtoZMIEePxxKy5pj/k6vm9r1485xkKeVGFo83Wef34buqd8394odVhPEFhKFI/vsPv/VNGolRklJX9YDUoWEREREZEtUPuViGyV4mIYM8basFrPramthffft1k3w4bZ97JZsRME1hnVqRPMmgVr1qSfb9hg7Vl77WUDlj9Tbi5s2mTtT83NFvI0N1vQ0qdP+6w1D0NrAauubvl3czP07WslUqrYERERERGRVlSpIyJbrV8/24g1Zkzm2cqVNqj4gw/aJ3+Ix20z13e+A0OGZJ5/9BHce6+FUFulvVqtPk1bSdjOcF8iIiIiIrJTUqgjItvk5JPhvPOgvDzz7Jln4O67reAl29vAk/nHhRfCmWdC586Zz7n3XnjgARvo/JkSicxJz76fuT89W3zf2q9SA5wgaHvduoiIiIiICGq/EpHtMHSoDUaeN8+WRKVasADKymD4cMjPz24bVhha5rLHHtaCtWBB5gbwBQugVy9rDWs9fydNU5OVG9XVtQQ5zln7VVuJ0Y6Wn2/p07p1FjD5vn24nTrZBq68vOzfg4iIiIiIdCiq1BGRbda5M/ziF3DiiemzfcFG0/z+9/DEExa6ZLtiJxaz3OWaa+DQQzPPV62C3/4WXnnlM96otNSClSTnbL5NbW12k6mktjZdbWkrloiIiIiICAp1RGQ7lZbafJ0DD8zMIqqqrA1rypT2GQkTi8GgQXDJJTBqVOb5smVw5502zHmL4nGrkEkNUNpqicqWMMz8sJzLXLUuIiIiIiKymdqvRGS7DRhgucPs2daOlWrZMli61LZh9emT/bEwQWAtX3V1MHOmFdikmjcPKivtfrp3b+MNGhpgyRJ7UjJY8Tzo399ekO3ZOsmNW6ktYMkqnfLy9mkBExERERGRDkWVOiLyuZx+ug1O7tUr8+z11+GRR2xMTHsMTk4k4Pzz4Ywz2s5AnnrKHq0DKMCCm/JyW28eBBaq1NfbmvHa2uxX6zjXdlWQBiWLiIiIiMgWKNQRkc+lsBB+8hM49dT0kTRgIctNN8GDD1oRiudlt5MoHrchzVdfDUcfnVlcU18Pf/oTPPec3Vub1OokIiIiIiIdhEIdEfnccnJsns1hh2VW5MRicNdd8NprLduqssU5u163bvCtb8HYsZnP2bgRbrkF3n23jTfw/cwfoL0qZcLQyp169LB7SE6Zrqy0lqzWa8ZERERERGS3p5k6IrJD9Oxpa8PnzbNZOqnWrbPvDxtmc3iynZEkEjY4uXdvu+7q1enny5ZZTjJ0qM37SXvh8uXWbpUsK4rHrS2rrCy7N+2cfTCLFtkHlvxeImEfWnk5RKPZvQcREREREelQVKkjIjvMAQfYPJuBAzPPpk+HiRMt8Mn2fB2wLObII60trK15P6+8Ag8/bCvPP9HWqq72WimeLGMqKLDZOslrhqGFTI2N2b8HERERERHpUBTqiMgO45y1PZ15JpSUZJ7feafN2Fm1KvvzdRIJK2z53vfgxBNt/nGqWAz+93/htttg/fqUF7Vea+55lkJle1ByGNpN9uplw4mCoKV6Z+VK2xMvIiIiIiKSQqGOiOxwF18Mxx+fGaQA/Pe/8PLLFqpks2InOV8nLw8uvxwOPbTteT8TJ8Lbb1tlD2Vl0KVLS6WM59l68YoKaGrKfrADFiq17k/z/eyvVBcRERERkQ5HfyWIyA43eDBcey0ccUTm2fr1cOON8MYb7VMAE4vBmDHwq1/BgQdmni9YYPfz9ttA51IoLW0ZVOx51va0YYOt72oP+fmWhiU/GM+zQKm5WavNRUREREQkjUIdEcmKoUPhvPNg+PDMs4ULYcIEmDOnfebrxGIwbhycdZbNHG5t8mSY+AAsWhpA2Kr9yjmr3GmvSpneva1iyLmWDVgVFTY8OR5vn3sQEREREZEOQduvRCRr9t4bCgstvNmwIf1s9myoqYERIyzDSI6QyYZk0c3YsXadWbPs2qmmvQcuETCixxJK6ldDc8pMm169oF8/292eTZ5nq8vnz7fd68kPxPdhyBALfNojBRMRERERkQ5BlToiklWnngrHHQedOmWePfYYPPus5RiRSPbuIbkZPAzhtNPg8MO3MO/niSgvftiXOlcEbG51CkNYsQIqK7N3g0nJypzc3PTKoCCwNjBV6oiIiIiISAqFOiKSVcXF8NOfwtFHZ57V1sIf/8d6niUAACAASURBVAjPP2/BS7Y7nGIxK3a5+mo45JDM89XL4LnHHYtXOkgtymlreHE2BIF9YOXlNuE5COxDaW6GZctg06bs34OIiIiIiHQYCnVEJOt69YLLLoP99888W7sW7rgDpk9vn7E18TgMGwYXXGBfW8uNJIh4AbB5rk6yd6s9t0+FYea+d+faZ/uWiIiIiIh0GAp1RKRdHHccXHMNjB6defbSS/C738FHH2V/ZEwYWuHNWWfBlVfapq5U8zZ2YW1VCWHgAZvboWprrf0qkWifYCUazfwg4nF7tA57RERERERkt6VQR0TazfHHw0knQdeumWfPPw9PPGEdRtkOdoLA8plTToFjj4WiopazhRvLWFdVAsHmX4/JUGfTpvabaVNebtOjkyIRWLPGhicr1BERERERkc0U6ohIu8nLgx//GL76VStGSdXcDH/6k7ViVVdbt1M284tYDDp3hl/+Er7xDcjP33yPkTjRaAznWrVftVU9k02tf3iFOSIiIiIi0opCHRFpV8XFNl/noIMyz+rr4b77YPLk7A9Ods6CpG7d4PzzYZ997Ps1Tbl8vLGMquYcSAY7iYTtZK+vz94NpfI8C5BSW73C0CqF2mNgs4iIiIiIdAj+tddee+0XfRMisnvp2xcGDIB582xbeKqKCli+3IYY9+2b3QzDOXv/QYOgpATmzoUVqyP0L93EmH7LKctrhNC3sp6cKPTr1/Zu9h0pDK1saMMGa7lKJCzgaWyEwkKbOp0sKxIRERERkd2aKnVE5AtxyCHW9lRennn29tvw4IOwenX7dDwlEi3zfrp0gZxIQMS1aneKRMBvp1+ZW6rUCQK1YYmIiIiIyCciX/QNiMjuKRKB73/fWqD+9jcrSklKJODvf4ecHHtO167ZXTwVj1vxy9VXQ2UNxKd6NDY5SBbl5MHkaSHVXsjoE6B7Zz7ZeJ5VrX/gtladi4iIiIjIbkuVOiLyhYlEbLX4wQfb/50qCOA//4FJkyzb8P3s5RnJ+TqFhfDNcyDeq5wlFV0JAweE4EXo7dYx5akKZn4YEngOsrnZ3POs96xTp5b+M9+HlStttbqIiIiIiAgKdUTkCzZgAPzsZ3DooZlny5bBddfBM89YtpHtwcmxGIzbD37+qyj77+tBcoN54OjWOcGceQE/vcbx2muQ9XHFkUjmD6xBySIiIiIikkKhjoh84fbdF84+G/bYI/Nszhz4179g/vzshjpJcaC8b4KuZXFcGH7SZhUEjojnM/09xwP/9ljyMdmt1mmrLClb/WciIiIiItIhafuViOwU9t3XilNmz4ZNm9LP5s2zjGPvvW1LVRBkL98IgSAR4latxm1YjwtCi7+9gDkbujFzXQ/emZaLh2P4yJCS4uzcB7m5sHatrQNLlik1NkLnztCjhw0cEhERERGR3ZoqdURkp3H66XDUUZkbu8MQHnoIXnzROpCyOl8nAIqKCLt0hWjO5uHEHtGcZoZ1X0uPwjpiMbj1NseLzzuaE2SnYicnB6LRlvTKOZsW3dxsX0VEREREZLenUEdEdhpdu8KvfgXjx1uhSqoNG+D66y3cicWyvOo8AGKZ82vqY1GaE3bhunrHn//i88ILjnjIjg92trS+3PPUhiUiIiIiIoBCHRHZyfTrBxdcAKNHZ56tWGHzdWbOzPJ8HQ/C0hLCvJSSodCjX3E1ZfkNn3xr9hzHvf/ymDuXHRvqhKFV6vTpAwUFLeFSGMLy5Zn9aSIiIiIisltSqCMiO51jjoHvfQ+GDcs8e+UVuOkmm7PjedlpwwodBD16EBZ1arlA4BjZbT19iqv5ZHoy8N+HPP78Z5/5C9mxv1Gds3Kl1B8yDKGpyUqVRERERERkt6dQR0R2SqecAscfb4ORW3vqKXj2Waivt+HKWZFIZLRfNcd9YnGP1mU5997n8dSTjtq6jKPPJyfHHsmyJM+zoUKxmFabi4iIiIiIQh0R2TkVFcE119iq86Ki9LO6OrjhBrj3XmhoyNZ8nVbpTAD5hVBaFpKTk14elEjAX//u88gjHvWNmS/dbr16QbduLdU6kQhs3Ahr1ljFjoiIiIiI7NYU6ojITqtLFzj/fNhvv8yzykqbrzN9+o6fHeziEHbpTtirN2E0alUxgU9pfg1nHLKUUQNrMl6zbJnjj3/ymPSWs9+sO+J+wjBzYLJzlmJpWLKIiIiIyG5PoY6I7NTGjYMf/Qj23TfzbNo0+M1vYPLkLAxOjuZATi54KSvFaxIcd3QjP/t1nFFjMl8ya7bjln96fDiDzx/qhKH9UMn2q9ZzdbTWXERERERkt6dQR0R2escea2vOe/TIPHvtNZg4EVat2sFtWEFo82uClCqZ0EE8wqknepx6UkiXsswpzY8+7vHIwx4VG/l8wU4QQGEhlJdDfr792zmbp7NsmZUqiYiIiIjIbk2hjojs9HJy4Kqr4OKLrSWrtQkTrBVr06YdtBErBHwISkoIc3Jb3tABG6qgroHvfDfgnG8GlJZkXuz//uFx370eldXs2MHJqdR+JSIiIiKy21OoIyIdQn4+nHMOjB2bmWfU18P991sblu/b4/MGO2HEI+zRHQoKIUzZNLVuHdTU0LVbyJU/DDjkkMwLbdjo+MtNHm9OchDh8wU7kUh6b5lz1nqVSGRnn7uIiIiIiHQY/rXXXnvtF30TIiJbo1s32HNPWLwYPv44/WzDBpg3DwYNggEDdkAhiw/e+vX4ixbiGurA860FqqjIbqK0jJLSkB49YP58WLEy/YJV1Y61a2DIECjvC2578hfPs4Rq5UorQ3LOvtfYCL17Q/fuWRgmJCIiIiIiHYX+GhCRDuWAA6xiZ8iQzLPp023N+eLFO2i+jnOfXmUTwpFHhZx2WkCfPpmpzauvedz0F4+Zs9j+ap22QhtV6IiIiIiICKrUEZEOaORIWwA1ezbUtNouPnu2dSaNHAmlpduffzgHYTQHf80avI0VQAhuc5VMly42tdmPADB6FDQ1wpw5jrq69PTm46WO0hIYNiKkqHAbb8LzoKEBFi2ywcjJ8iPft5Kknj138HRoERERERHpSFSpIyIdTiQCZ50FhxwC0Wj6WSIBd9wBTz4Jzc2fY3ByCERz7QJu86/K5Dyb5uaWNw1s7M53vhNw2KFhRkFOfT3c/A+P119zBI5tq9hJJKBzZ9uAlZNj7V/JoGfpUmvJEhERERGR3ZZCHRHpkPr2heuugxNPtJAnVSwGN98Mzzxjuch2j50JAltpnpoKJefapEpAl67w458kOOaYIKN4ZuNGx5/+x+fFFxzxgG3jefZIHRIUhhqULCIiIiIiCnVEpOMaOhTOP99arVpbuNDWnM+Zs50dSgGEBbkE5b0J8wss4HHOvq5cCVVV6c9PwP77wVVXBuw3JjO5mTbd8ec/e0yf7rbtN28Yan25iIiIiIi0STN1RKRD22svW0g1Zw5UVKSfLVhg2cuIEbYoKtjWKpmIw9tQgbfsY1xjo1XMJBK2X33QICguznhJv/7WnTV7jqOqKj2MWbbckZMDw0eElJZiLV6fxfNagqSampYqoXjcypW6dFHoIyIiIiKym1Kljoh0eOecA+PHQ0lJ5tl//gMPPwzV1ds5XycRz0yDIpEtbKWyETwXXxxy7NEhuTnpx/E4/OMfHnfd6bG+gq2fr9PW9eJxC5hERERERGS3pVBHRHYJ3/kOnHwy5OVlnt16Kzz6qFXQbGsrVljYCfLyW6phnLNBxfX1bSdECSgogKt+lOCkk4KMYCcIYeK/PV55zdEYZ+uCnbauo+ocEREREZHdntqvRGSXUFxsK8xnzYIVK9LPamttUdTee1vH0tZW6zgHRHLwVizHq9zQ8s3GRltpvqWV4iF07Qb9+8HcObB0WXoAU1npWLYUhg+DAQP47Das3FxYv94eyQ1YTU1WmtS9u52LiIiIiMhuR5U6IrLLOOIIuOYaGDMm8+zNN+H66+H997exWicIMlOgtjZSZbwOxo4NueSSgL2GZqY2U6Z63H67x5y5fPZv4pwce3itVqs3NakFS0RERERkN6ZQR0R2KSedBKefbkU0rT33nM3YWbduW4KdzSvNWwc7n9X+FFpn1Tnnhlx+eUB5eWawc/9Ej1tv8Vi+kk9vwwqCzHApuVp9u/e1i4iIiIhIR6f2KxHZ5YwcaZuw5s61YpZUs2fbtqwRI2yJ1ae2YoVAbhS3qRJv7VpcLGZpUCxmL+7Vy75+2usd9B8QsmI5zJ/vaI6lpzdLlzr694Whw0Jyolt4H8+zlq+VK22eT3IjFkB5ufWdiYiIiIjIbkf/iVdEdjmlpXD++bDffplnVVXw17/Cq69uZaFLNAL5eeCnPDEILFyJxz/7ZhLQqydceWXAl7+cmSCtWev4xa88Hn/M0RzQdsWO59kE6Egk/fuNjRYwiYiIiIjIbkmhjojsksaMgeuug0MOyeyUWrcObroJJk2ys0/tpAqAeCJzrbnvb/0GqgTstRdc8d2AfccEGcdr1jruucfjg/fdltuw2mrB8n21X4mIiIiI7MbUfiUiu6x+/ayYZdYs236VasUKmz28995W2bOlNqzQB5eI461ciautbQlRggD69IGysq0Od/YcatecPcexcWP6axYtdsSbYfiIkC5lrV7onAU4a9ZAZWXL95qbbftVt24ZVTx1dXV88MEHrF69mqKiInK1IUtEREREZJej/8QrIru0iy6Cyy+H3r0zz+65B265Bdau/ZTByQ7CgkLCnJRQxDlrv2po2PobCe0x/mshJ58U0LlzZor06OOOJx732FhFZsVOQYGtLk8GSM7ZwKCGhrQqoiAIuPPOOznkkEM49NBDOfLII/nnP//Jhg0btv5eRURERESkQ1Cljojs0iIRGDUK5s+3ip3ULqpEAmbMgD32sOc4Z+dphTc+uOpq/Pnz8KqrrFInDK3kZuhQq5TZWiHkFcC4A0NWrXTMnuPSxvI0NTmmTPHo3Ttk+Agb5/OJeBw+/th6x5I3GYZWLdSnjwU+wIQJE7jxxhuprKzkyCOPpLGxkWeffZb8/HyGDRtGQUHBdn2OIiIiIiKy81Gljojs8oqL4Yc/hKOPzhxBU1trg5Ofe86ykowRNQFWpZOfb+U8YWiBSiIB9fUWtmztbB2ABJQUwwXnBxw4Nsh4aVU1TLjb472pzn5DO+ya+fnQt69V7CRDnSCApUs/acmqra3lrbfeIh6Pc8MNN3Dfffdx/fXX079/f+6//36mT5++rR+diIiIiIjsxBTqiMhuYfRoOPdcG1jc2syZ8Mc/wnvvZbZhuQTQuQthz96E0SiEm5Of+nobzFNbu+03k4CDDgr57ncD9h6ZOTj53Skev/ilx1tvu/Tf0mGYOfwnJRVauHAhH3/8MQcffDBjx44lPz+fr33ta+yzzz4453DbEj6JiIiIiMhOT6GOiOw2zjoLfvADGDw48+ydd2DCBFiyJHNzuM3DaSNM8bxtq9JJFcDxx4eceUZI716Z83XenOTx8EOOFStpma8TiaRv3UpWDCUSEIYkEgmCIKCqqoo1a9awZs0aFi9eTFVVFfF4nMrKShq2ZQ6QiIiIiIjs1Fr/6SIisstyDi680Cpz7rjDim2SwtAGJw8bBpddZiNqEomUzCYIIGgVvnyeUGdzR9WVVwVUboLbbveoqkp/r//7p0/PnnDZ5QGlnbHZOV272iqvMLSAZ/16qK5m8pQp3PiHPzB58mTq6+t54oknMi554YUX8u1vf5srrriCfv36bd99i4iIiIjITkOhjojsViIRq9apqIBHHrGV50mJBNx8s20IP/VUiEY3dzz5kOjdG69TJ9zGCnuyc7ZivKrq03eif5oE5ObA+ecHzJ7teO55RyLRctzcDPf8y2P4iJDjjwc/GSAl5/oA+D511dXcde+9vPbaawwfPpzu3buTSHkj3/epqalh9uzZLFq0iMrKyjZDneWLZrN8fS0DBw+hZ7fOGQu4RERERERk56JQR0R2OwMHwk9+YqvMX345/WzpUvif/7EV6EccYXOQQwcUFdrGq2R24xzU1dla8e0JdJISMGI4/P76BE2N8NIr6V2xs+c4rvm5T24eHDPWQcRLn+bseTTX11O5bh39+vblhhtu4Oijj864zJw5c/jhD39INBrFb2N/e9OGxfzf9T/htidn8P3r/8J3z/saXQq2tOddRERERER2BpqpIyK7pdGj4fLLYeTIzLOZM+GWW2wFuu9jM23icSvlISXAaT3jZnsFMGo0nHlWwB6DMwOijz5yPPDvkAVrS6G8r/WGJVd1NTXhLVuGq6khCEPCLQRMTU1NxFP3p7eyYMY01tZE6NurmLmzZrBo6erP9zOJiIiIiEjWKdQRkd3WaafB+PFQVpZ59sgj8PDDNr7GdxDm5hPm5YPzWipzmpttME9qz9TWclitZHTzVw8uviTkiisS9OubGczcPcHjz3/1WLzBh1zXki2F4eZyos9RLRTWM+ntydB9CKd/7TjqVsxl3qKFNH+OtxQRERERkexT+5WI7Na++13YsAHuuw+qq9PPbrkFunSBc8+Dou49CLv3JFy9CpeIW5VOTQ2sXGn9XIWFWxes+FicHsKqFfDRDMfGSgtpXMQyok6dMl8WhjDxftinHs4bDG11Rjlvyzm97/t4WzivWTGPGbMX0X3M1/j6cUNZsegPfDBjHgcfOJaBXQs++2cSEREREZEvhEIdEdmtde8OP/oRLFsGTz2VfrZ+PfzlLzBoEJx4bAhhIj242Za15pvDnI0Vjpdf9njkUY9Jb8Hq1Vtf6FNTBXc/349hXy3jsH71kMDav9aswW3cSDwWo7KykrVr12a8dt26dTSmToVO8eGUyayodowfUs7AEXszdHBPXvlwGosXHcrArsO27uZERERERKTdKdQRkd3ewIHwve/BunUwZUr62dKlcNPfoEs3OLAwFxfxoTklhWlqsvanLXGAB5Wb4Kknff55i8e06RU0N68FioAeQN5W32tjECWWSCnT8TzCWIwwHmfOnDmcccYZn/r68ePHp23GIraJd6ZOJ7/HIIYMHEyuK+SQgw7gpSkPMmP+Yg4YsxfFOdqDJSIiIiKyM1KoIyICHHMMzJgBK1bAqlXpZ6+8BJ27R/nVuX0YVTYHVjZahU4Y2gsqK6G4OPNNN1fnPPao48//6zN1aiPx4F906nQbZTmLcC6XpoZzqa39Ds3xgVt1n74L8VIzlliMwtJSTv3614mOGsX6jRu3OCzZ933Gjh1LSUnJJ99bveBDPvxoFu/OWc/Khe9TlBelqWYDs+ctpXDINI45ZBwjB3TdqnsTEREREZH2pVBHRGSzyy+3wci33mqtV6mefRpGe9BrT+gWTTlwru32Kx8qNsJ//u3xt797zF/gyMm7j86lt5CIHU3lxptxkXfJz7+dSKSYWPzbhHx2eDKnoisfruzD/r1XURyJg3NE6+o44/DDOePqq222zzZ4f+o0VlU5Ro3ah/JeZQRBiOfvQUFuhMWzpzN/8WKGDeiKlpuLiIiIiOx8FOqIiGxWVGRtWHPm2OarVPVVMPO9BGu7BnTrGkKy46qtmTo+NDTC7673ufMuj5oawC0jL+8lgthx1NV+l+Z4H2g+iPy8JgYMqCARrKO5ucsnb7G+AmprM8OixniU+uYcEoEHLrRtXPE4bNwIDQ3bFOrEq1fyzruTKRt6EFdd+T0OGtH3k7OPXprIj37zf0yeNosD9xtN75LcrX5fERERERFpH1ppLiKSols3+PGP4aijLK9JNaeyB6srywgTPhDakOJNm6ysJx7/JNwJQ3j0EccLzzsLdAA/MgfPczQ1fZlYPBfnplBW/jQ///3ZvDn598ydN5jFS+L2WBzn7bfi/OGGBPuMDom0it99L8BzrVqsPC/zhj/D4o8m88H8NQweOpz+5d3TzgaP3IchvYt47913WLhkxTa9r4iIiIiItA9V6oiItDJuHFx1FVRVwXvvtXx/ZXUxlXVFEG6uoPE8q46prbUVVpEI+PDaq46bb/aYPbel0sbz1+PhwL1MXtHfKC56G5+A5184Ey/4MTnxocSaQ7p2hdGjAvYYCj/5acBFlwTcdovHLbd6LF9h7/feyt4srS5mVLf1LfexapXN9ikr27ofMmhm2nvv0xDpyj6j96Rbq0qcgp5DOOTLBzHjwXeYu3AJ+48cSEFE/x1ARERERGRnolBHRKQNRx8Nc+faRqxly+x7OX6CaCSOc6EFO2FogYrvb/4KsSZ46inHzFnprVOOZhKJGfTo+z6X/L/zSaw7in/d25cXHxnDi4/0JbVw0jmfzp1DDjow5OfXBPzsmoA9h4Zcf73PjI8cGxsKqIulDfaB5gZIxLb+B3Qex575bQ49I0LnzqVEM54QZfzFP+Lgr20ip7CY6NasbRcRERERkXalUEdEpA3RKFx2GcyaBffeC83N0Bz4VDfl0pzwyfETFuwEQctacxfljTcdb73tqGk1D6e5MUok1+fwU8+hrPP/Y+JDnVmyCkoKq/E7zebE8T048ag+xOod8+fDE094PPe8x5Qpjh98P+CiSxL87a8hP7vGJ7ouju8lbKYOQBRWrY2wfKpH/xLo2WMrfkAXoUuPXp/6lJyCIvoUFG3nJygiIiIiItnmX3vttdd+0TchIrIzysmBIUNg+XJYvBhqG6P07lTLqPKVlOY1QuhDLGaVOn36QEkn7r3P8dxzHg0NLu19jtznI8pKpjB1+iE8+tABLF5Yw8B9PuD0Eyfi/AkcM34Ap399T/bfJ+CII0NOOy1gYH+Y8ZHjvw96VG9yHH9CiOc7Jk3NYc/CNQzvthHfheAc8aZmnn63K16P7vQdFN3W8ToiIiIiItIB6f/tFxH5FMOG2eDkcePs354XWPtVqs1rzVcud8ya6di0Kb1K52unwP/8pSf7jziZqqX7Mm50Lpd+4y727Pu/rF49mYZYhNxoIV6AbdWKQZcyuPxbAf95IM7xxwU8/KjHCy84Lr045IRT82kKCmhq9oAQQo/OnZupWV/L9b+N88pr7fHJiIiIiIjIF02hjojIZxg3Di66CPbcE+qbc2hO+CmnDhJxCOJ88KFV9CQSLaeFhfCVrwSU9Nqf6tgPwOtHn0Fv0W/QAjYtn8YTL0yi28AR7DtiCPkuhGRelADiMGoUXHJJQHl5yD0TPKZO8zjlxDijh8cIE6FdHyB0eNEos2Z4PPkYLF3aPp+NiIiIiIh8cdR+JSLyGZyDffaBqnp4+Y0II0pWsFf3TTZTJ+JRvb6J+XW9eOydHrz1boTa2pbXfvWEgLPOjvPyq3lM/G8+pYVTWb/8p7w25SXWV3kcdNR4rrryWxwwciB+GGZePIRhw2HNanjuBY+uXeCY4xyFiWqiG1aTRxM4D/yAulgO01f14anXi3HOqoxKStrvcxIRERERkfalSh0Rka109lkwfryjpMgRxjd/0wNHyB23OW6/DdasSX/NQQeG9O3jWLUaautCvvedA3nqsVv59lmn0G+PA7j44os48oC9yAmDti+6OecZOzZkQP+QZUtDqqt8+u5VSGmZD4nNr3MBvTrVUJLXRDwOEybAa6/ZyB8REREREdk1KdQREdlKg/rBNT8OOOSAOMQ3py0h+L6jsipCTZ3X0j61meegrsYxf66jvE/IsP1yGThqb0btPZoBfXsSieaSiAf22zi6+dHG9vB99w3p3w/em+axdKljeWUJa6o7EQ83z9VJ+HTLb6BXUQ25fpwNG+D66+Hxx205l4iIiIiI7Hq00lxEZBtEu3WC8u6wdpXN0vEcOTnNjC5fw6vLBrGiuviT5xYWQGGRdUeFQEE+5OYkcImQr575LY49LUE0JxffC/loBjz7rMfYA0K+9OWQnChpAVFhgW3RikTA82FORVc6bSqlJHel/SJPROjdqYaBZRspyInR1BBh/ny47Tbo1w/Gjm3nD0pERERERLJOoY6IyLbIyYfiUohGIB4DPCLRZgaUbaQsvyEt1IlEQiKR0LZlhRCEkBybE80vIOoBYUBzLOTOuz3uuNPjmKNCSrsk2Gfv9MsmgpTXh5DjJ8jxEziSw5JtC1Y84RMELaU+L78MfftCaakNehYRERERkV2H2q9ERLZVItGSzmzWFI8QC9J/pVZVO6qrHA6H70PEBy/5lCAB8QQQ8tYkx5TJjro6x6uveUyf7miKkdaGFY2S9h5B6CzACdN7tSJeiOe13FsQwAMPwEsvQX39DvwMRERERETkC6dQR0RkWyUTlqTQURCNkeMnMp5aVQ2R3IB9xoTU1DlWroRPNpE7aGqExx5zLF7iOOG4gF69Qp58wmPO3PT3+XgJbKiAgw8O2GOPGKvr8pm0vJyV9QXgB/Zm0RgHlH/MgJLKtNfW19t8nX//m7TNXCIiIiIi0rEp1BER2VbJfqZktU7gMa73KgZ1rqT1pOQpUx1Llzny8kI2bIBXX/ZYunTzoQfvvOuY+p5j3zEhv/x5wGGHhrz+hseUyR6NzXzyW/rxJx0fznAUFkJuDnw4y7FsbYTQdy3XDEJ6lMUpLswMl1avtvk606Zl4wMREREREZEvgkIdEZFt5Zw9UvguxGu9+gp4/wOP5cscxx4TMnrvkMee8Hj5FUddEzQ3waOPesyd63HsMSEjRwWceGKCAQMCnnveMW++Ax9ee9Xx9FMeZWVw4EEBSz92vPeWI2gMyY2mXLMBDhjn8e0fO0buk3nbU6bATTfBBx/s6A9ERERERES+CAp1RES2VRBkzNVJBB6J0KP1PvK16+CWWzxqa+Gb5wR06Rpy770eU6fC2+/Ae9Ng330DDvxySFGR4/DDYb/94NVXPaZNhRXL4M4JHjNne1xwfsBhh8HTz3p8+KGjKeETT53jEzpcc4JTvhJw3FdCSkoyb/2xx2DCBFi+PEufjYiIiIiItBv/2muvvfaLvgkRkQ7F86yfaeNGC3icw48keH9FN2av605TEE17+pKPHd27wZlnhmzYCE895fH0s8f5WgAAIABJREFUUx5PPu2xvsLxox8GHPuVED8CuXlQkAczZjiefc7jlls9Jk/2OPmkgEsuDXjzDcctt/osX+FoikcYW76CwZ03QejAeYT1Tfjlvdnv+O5U13jMmwuNjem3v2ABdO0Ke+0F+fnt+LmJiIiIiMgOpZXmIiLbqrjYZur4voU6oUdBtJELxm9gfqSB5yfnE4+3PD0M4c//6xONwnnnBvTuGXLzP3wWLnTk5MCktz2KSwIKCwBnIVAsZl8LCuCSSwKuvDJBQx3cc4/H3HlWDRT7pDooRZAg1hhQUgSXXAyzZ8GLL6Y/ZeNGuPVWGDYMjjsuux+ViIiIiIhkj0IdEZFtFQQQi9nXpEaPUUdE+MG+HhW/hsnvpL+ksQnunuCx734B3/9hwNLlHrfd5mhshDvu9Lj9jvRwJifHMqMjDgu45JIEa9fAb3/r88akluf5LsRzAbiUuTrOge8RDxzDhsHVV9vGq3ffTd/CPm8e3HgjFBXBl76UsmpdREREREQ6DIU6IiLbyjno0sV6l2pqWr6/eAOHH17HuWcXs261Y8nH6fN1li5z/PKXPo88DO9OcRx1RMAPfhCwdh0snN/y3FGjQ0btHfKn//F55lmPa66BhYscixenv19jzKeuMUo84bX8Mg9DaG4mTCSIxX0OPxwuvhjWr4eFC9N/jNdfhzvugG7dYOjQHfj5iIiIiIhIu1CoIyKyrZyDsjILdaqqrKQGYP1GIvV1fOtbARs3OP5+s83MSfXhDI8PZ9j/fcRhIX3KQw49zObppFq71jFgYIjzQl54se0ymmW1nZlfVU5tYhmlkUbwfFxDA96ypSSGDCLI7U4iAaedBkuXWsvVunXp7/HQQ9C/P3zrW9Cz5474cEREREREpL0o1BER2R6JRHr7FVi443t4vm26+mim4/HHHc2xtt/in7d6PPiwY+AAa4NKNX8BrFrl0lqmWvvSwY5DjnWUxoFqYHO2RBjA5vXq8TgUFFi1zsyZ8Pjj6bddV2dtWN27w0UXaXCyiIiIiEhHolBHRGR7+L4NonEplTjJVedxGDQQbvh9gqYmeOppLyP/SaqocFRUbNulnYMTTwj45S9hv4YA3mmV/HgeOO+T58Zi0KcP/OxnUF8PL79M2iDn5mZrwxo4EI45BqLpy7tERERERGQnpdGYIiLbo08f6NWrZQNWJAKbNsGKFdDUBKFj8GD45tkBw4dtIdHZDiUlIVf+IMHf/55g7LgQP5oDXko+7xwu1oyLxZPFOoAFO/vuC5dcYluvWvvgA7j9dpg1a4fdqoiIiIiIZJlCHRGR7eF5W67UCUMLVAI4/fSQSy8J6Vf+KX1UW2m/fQPuvy/B728IGNAPCByUl0NJSctqK8/DW7Mar6ISF6RfMxaDE06wNqv+/TPf/+mn4a67YMmSz32rIiIiIiLSDhTqiIhsjzBsCXCSwY5zVrGT/PfmTOXMswJOOimguHjbgh3fh1F7h1zx3QRHHhGwfr2jqgo81/LeOJceLKVeuJUgsNaqK66AM8+0LChVLAZ//zv8+99WdCQiIiIiIjs3zdQREdke0aitNc/JgcbGljasigqbPpyba88LoGuZLcuK+Ft+u2OPCThgbEg0AoT2dgeOCxl7YEhxCTz+mOPa6zweeshjxIgEo0dufmEQZA5sdp4lP86l5TvO2SydaBQuvBAWL4YnnrBusVR33QWDB8Mpp0Be3uf9oEREREREJFsU6oiIbI9IxJKavDybPuz7VrWzYYOFOmVl9jwPJr3uePllRyQCnYpCampbV9bY9qvTTgsYPbrVQWCPI48IefwxePRxj+O+EjJ0z4C8/NBCpdzczQHO5qqhRBwaGu2rH8ko3InFLLS59FJbdT5lSvr5okXwq19BcTEcf/wO+8RERERERGQHU/uViMj2isWsBSspDC3s8TeX5HgQa4ZHHvWYt8DjN9cl+M+/Exw4LnNw8iOPevziGp/p01oFPp49OpXAN74RMHhQwAsvOOYv2BzidO0KvXtb+U1oJT6utgZvxTJorCHcwm/5eBwOOwy+/W0YOjTzfP58uO8+mD17uz4ZERERERFpBwp1RES2V+fOVmLjbf5V6vtQWws1NZurZuDtdxxTp8LI4QF7DoWDvhTy5S+FlJZkzr15+lmPRx5yLFkMlRVQuT7lUQEjR4bsPRJefc3j7UlWjIMLW4YkJ7U5ZyddENjLzj0XzjkHunXLfM7EiRbsrF27nZ+PiIiIiIhkldqvRES2V7duUFoKa9Z8UiVDVRVs3AiJOPEwyjPPOGbOdtTVOY451iMataKaxsbMtwtDuOGPPn+92ScMbDROJGIzb5qbW7KjeBzefMvj0CNChg+hJaFJ5Xn2BlvgXMs4ngsusDasBx6wTCrVXXfZpqyzz4ZOnT7fxyUiIiIiIjuWQh0Rke2VusI8OdPG98HzAcektxxvTnLk5MAee4Tk59tWqaVLIRq1GTuNjel5TBBYsDJwYEhdLaxf7+jVO6RPb8jNhzWrYflyR1MTxGObr1tQYElRPL75XRzU10FzU1t3nSYWg5494Re/gPXrbXBy6v2sXQvXXWf51fjxn1kAJCIiIiIi7UjtVyIi28u5zRUxrefgBDTFQp540mP2bMdPf5Lg9VfjTJoU56ofJujVEy67JMED98U54rDM+ToAPbqHdOsOgweH/OP/EkyeHOfNN+KccXpAUWHI2P0D+vfbPMOnd29rA0tJY7y1q/E2VeG2Yot6LAbl5XDxxbDPPpnnq1fDHXfAtGnb8uGIiIiIiEi2qVJHRGR7depkacjSpdDQYFU6TU2wfinvvrkHk6fms99+AV8+GIqKYfUKePIpj6YmOPzIkJNODlm5OmTxkpCPl6YHQ+9O9vB9+OH3A/bfL8R58MZrjldfdYweHXLo4VBSjG3HCrcwV4etL6uJxeCEE2DJEtvKvnx5+vmzz9qir1//mswNXSIiIiIi8oVQpY6IyPbyNg+98VJ+lXohTZUxHn0gwew5cOLxISNGWODy+JOODz50nPTVkNGjQpyDffYJ6du37XKa5Pwd50FTQ8jDjzhmz3Yt75l8WXI4Tmqw4zz7Db+VuU4YWifZOefAmWdCly6Zz3nmGWvPqqjYuvcUEREREZHsUqgjIvJ5JBIWqCTlh0ye6jF1kse+ewd86eCQTsWwYjm88IJHPOY46siAfv0g1ggPPeQxZ65HUZHlQ6kaG+Guux1vv+2Y9p7j/fcd+44J7T0LaQl1Cgrs4XmfzPdxzY24unpIxLc62InHobgYrr4ajj8+836amuBPf4KnnrLKHhERERER+WIp1BER+Tw6d7ZABcAFNDXl8+iUgcxdW8pXTwoYOTIkCOCppxwffug4+aSAMfuFeL6tO393Muy/X8At/4xz8kkJotH0qp216xzXXutzxfcizJvnOPnkgJGpVTphCN272yRj3/9kWLOrqsKtWQtNjVsd6jhnYU1JCVx6KYwbl/mcmhq4/Xb+P3v3HSZVfbZx/D4zs7uwu5SldwtWBAsq9m7sSixEURBRUWJNNMYWDZpEfTXGEpNYo2CLGLsGldhQVGwoNmygFGlLWVi2TTnvH48nMztnsMD8Zgf4fq5rLgJnwvntLpcze+9T9Oab4Y4vAAAAAIVFqAMAa6JLl/Su75K43p3fTe8u6KNtBpVp512kyjbSovnSxOcjqq+X9t47pT69JSWlxx73NPV9T/vv52vw4JROOSWlrQeEk5KPP/H03vuedtjB1+57SJWZVTqSpSuprIHLkUjuIc4/Qjwu7babdPnl0qBB4euvv26zdd588yf/1QAAAADyiEHJALAmgvYr35f8iMqjjdqm1yLtekKVtu7fWvpuQdUWW/jaaSdfu+zi2wielLTxhr5GnZLSfvunVFnh6YCfSd98k9LSpZ5mzAyHMW0qpbIyv3mgI6VDnWC1eiAIdlZDIiHttZd01FE2NHnevObXJ02SHn1U6tNH6tlztW4BAAAAYA1Fx4wZM6alDwEAa62VK6Uvv5RqaiQ/pm7lK3TI1jM0YJ8qlXbvKqU8lZdL++3va7c9fLWtkG2skrTTLtLBh/rq1tn+LBKTNt9c+uJLTx9/7CmZbH6r6Z956tpF6r+1r/LWWeeYP19asMDSGM+Tkkn5HTrK79FTatU6HAT9gFTKwqgdd5TmzJE+/rj5HB3fl956SyotlbbayjaqAwAAACgsQh0AWBOtWkmLF1uokkxaZUx9XGrVRurW3a77skdWh9T//txP/76slbTtNr4WLJC++MJTIpGuvPF96asZnnr1lDbdzFdJyXf/35ISC5dmz06vVk8mJS+i5Aa95berkvcTQx3Ps2CnpMS2ts+YYevOM7u8Uilp1iwLojbbzG4LAAAAoHCYqQMAayIWszTD876bHOxJyZSVtWTPucklO2xJWkvT6NN97bB9OImZNcvTrbd5euc9r/l/wVfVfuWt2X/m43Gpf3+bobPbbuHr33wjXX219Oqra3QbAAAAAKuBUAcA8s3zVmtA8f8kpV138XX2WSkN2Coc7LzxZkR/vTmiDz9S+r/iqVQ62JHs10hEiqzBOb6TSEgDB0rHHSdtvHH4+tSp0oMPWhcaAAAAgMKh/QoA1lRTkzR3rrVARSLpcKVXL1t5vpq2GiDV1fn66CNPK2qbhzOffOqpvLWnrQb4atsuIq2ss+E3wRkk+dGoUj37SFUdtCYZfpATDRpkRUkff2wjhDK99551fG21ldS+/WrfCgAAAMBPQKUOAKypsrLmA2U8T2pstBKX1fXdrJ3hI3wdeWRK7dqGK3bG3evpscciqlkmqXMXqX2VBTq+L0WjiiyvUWTx0u+GJ6/+UYL5OqmUdMwx0j772KigbOPHSy++aGN9AAAAALhHqAMAaypzrXkgGk3P2lntv1fq0kkaPTqlQYPCoc6iak+/HxPRM894Sigpecnm7VdeRIpGtEaJToZ4XOrcWbroIlt3nq26WrrySumxx6SGhrzcEgAAAMD3INQBgDVVWWmPaDQ9rLihwXqUMveAr46k1H8r6YILUtppUHjw8pIlnu4a6+ntd1LylbT8JgiSPNmZ8jBXJ5BISJtuKo0caa1W2b75RrrnHmnatLzdEgAAAMAqMFMHANZUq1bSvHnSggVWsRONWqjTvr3Us6e1Z62hvn3t108+8bR0afOQZuYMyU956td7vjomFkqNSQt2kkn5VVXyu3e3Xek/ca35qqRS0oABUps20qef2kb3TDNmWAvWlltaZQ8AAAAAN6jUAYA15fvh9ivPs3XnkTz8Z/a7+Tq/ONbX0KEpde4cTmfGP91aT07spKV1pVIkZfdPxOVVL5IaauXnr1jnfx/u4MHSgQdKbduGn/P449KECeGBygAAAADyJ9bSBwAA/AgpqW0b6ZKLUlq0SLpnbESNjemkprZGmj0jpdo+UlUbT0pKkidFojZbJ8/ices4u/RSmwl9//1SbW36+sqV0p/+ZEVMw4dbVQ8AAOu6hbNn6osvZ6imrqHZXL1UKqFYqzbaol9/9erWWTF+tA4gTwh1AGBNxWLWZvX559KyZekNVLNnS0uXSuXl+blPUmpdLp08MqUZX3l68WVPyWT6cuuylEqimXN3fBuUnMeZOgHPs2CnQwcLbT7+WHrttebPWbJEGjvWZu/kGqwMAMC65s3//Ftjrr1RXy6qVevW6VWRicZ6VfTYXL+/6v903GH7EuoAyBtCHQBYU54XXmsurfla81yS0qBB0qhRKc2f7+nDj9OBzSeLOmlebRt1K/9up3gkKm/pUnk1K+RVdZGLjtt4XNp5Z+m886QVK6QPPmh+/a230hU7gwat2TIwAACKXSqV0gZb7a3zTjpJB+y53f9eeX0/JS8SU0VlpVpFv/evAICfhFAHAPIhe6aOZBU7LlKMlHTE4b5mzUrqppujmj3H7vFFdQctrC2XugT3j8qrWSavZqWUUr42m4ckkzZbZ+pU6dtvpUWLml+fONGGJnfvLvXp4+YMAAAUBd9XtKRMHdpXqUunTi19GgDrAUIdAMiH7t2lTp2s/cr3rWpn6VLbiNWjh7VoZYc+q8u3ZVa/+rWvBQtTuvW2iFas8FQaTSka8Zs/Mc8rzXNJJKTSUumCC6w46c47rfUq0113Sd26SaedJnXs6PQ4AADkzezZ0kcf2ct7tpISadttpY02ShfrpnwpEonKczDPDgByIdQBgHwoL7ceo6Ayx/OkpiZbbZ5Kff//d3Uk7Q3kKaek9NVXnp5+xlMsklI0klKz3eWeJ0Vjclamo/SH2rq1NGyY9P770vPPN3/OypXSuHHSNttIBx2Un6VgAAC4sHCh9OKL0qOP2ry4hQvVbIZdpo4dpV13tde2ww6T2lSWqLb6S/3r/rv0/pTn5UlKJRPyyiq1+74HafsBm6u8hF5kAPlDqAMA+ZBMWsmK76eDnUjEkhdXg2SS0uabSX+4IqnaWumd19rrq4VdtFP3eSqPJiXPk9dQr9LF8xRPbqBEWeV3W7HyLxicvOWW0pgx9r9ffrl5cdL06XatrEzaZx+CHQBAcVm8WHr8cekf/5CmTbPXsh/z/3nqKXvccou0aYeoFixeqDlL5+qjqeVKJqVUIq5IRSe177OV+m+5ucpL3H8sANYfhDoAkA+xmO34jsUs3PE8q9BZscLKWEocvYNLSf22ko4/3tfX37TWvJq2akjEVB5L2DrzpgYt/GKJSjepV6uelcpTA9gqxeM2EPmEE6xk/csvm19/+23p3nulXr2kzTd3fBgAAH6k8eOl66+3atOmptX7Oz79VPrUa1Dn7oN06YVn6MRhO6qqQ37PCQDZomPGjBnT0ocAgLVeSYkFOHPmWMtVNGoJRyxmCUabNu7u7Unbbudr2VJP5QtnaqsOs1VZlpT8iNQqqbEv9NLj0zZWr01bq0un/I32WZVUShowwObrfPKJVFvb/PrHH9uv/fpJ7du7PQsAAN9n3jzpttuka66x2TmrarP6sVpVvKZUY7XeeG2QltX01KabSVVV+TkrAORCpQ4A5Euu2TmuNmA1u68kTxo50ldjr5jazIpam5UnyfNUXhLXf/+TUO+tpI372FDjZNLdsVIpu8dxx0nvvWel7Jmb3RMJ6dZbpS22kEaOtFFEAAAU2vLl0h/+II0dK9XVrfp5rVpZMFNWlv4z35eqq21mXDPfLTNYsVK64UZp7rfSZZdJ/fs7+RAAQEw0AIB88f3CrTXPlpR69fTUd5+equjSVkp8d45kRPtsMlcbVCzVNVdLD/7LysqDLR0uBPN1eve2GToHH2wFS5mamqSbb5aee+7HzSwAACCfUilruZo4cdWBTq9e0q9+Zc/57DNp5sz044svbHbcFVdY5Wn6dTUl+8mKvQ4/9ZT09NPhrZAAkC+0XwFAPs2ZI9XUpIOcRCK97tx1uBOJSEuX2SCblbX2+0hKKxpaacLnm+m9bzppyWL7aWHv3m6WcmVKpaQuXewnm598YttDMlVXW6dav3627hwAgEKZMEG67rp0S3CmSEQ6+WTp9tttRlyHDjZr59FHpcmTLdDxPFsOsP/+0lFHWYXqF19IdfWvqyS2VIn4jkokeyqRkKZOlTbe2J7v8ocqANZPtF8BQL60bm0JRub2q4YGe/i+/b4QA22yKoaSvqfUd799/XXphhuk3//e3lyu6eyAH5JISD//uY0buuYa6fPPm19//HEbN3TJJdaOBQCAa3V1VkHzySfhaxttJI0eLQ0bZq9do0ZZpU11dfNW4mjU5sLtvru9hv3hD/ZDiquuOk3TP43L99v+77lLlkjPPivtsIM9BwDyiVAHAPIlc615IBKx3qNCtGBJFiqVljYLkMpiSVWWNikWSSqRimrCBGn77aWePS1QcTlfx/ctZxo2zLaC3HabzTDIdO+9FjCdcYbUrp2bcwAAEHjhBWnKFKm+vvmfd+okXXmldPTRVpVz1VUW/HTubH+2665Sjx62AGD6dOnJJ+3x5pvSeedJJ50kVbWv0uW/l959t/nf/fzz0kEHSZtsYi/TAJAvtF8BQL4kEtKsWdLixc2DnR49rL8oe7CMC61bSwsWWK9TKiUpqjat6/TNsvb6cH43rWgqUyJhq8XbtLEtVa1auS0g8n37ieYWW1h32hdfNP9pp2Rvjrt2lTbbjDe7AAC37rnHQpbGxvSflZZKp50mHXusVbRecYW0bJl09tk23P/UU6Wdd7ZKm223tbarIUOsw3raNJvPU1cnDR5sf99HHzXf/lhfb28Htt6azY8A8otByQCQL+3a2bu7srJ0u1VjoyUZK1YU5gw/Mp1ZscIqZN55xwIX14VE8bhVBo0YYW9os82da+1Zkya5PQcAYP321VdWOZoZuEjWKnzSSVZ188QTVlEzbpxV7mywgQ34r69v/ujQQfr1r6UHHpD22ceCnRdflE4/3Sp7Wrdufo+335a+/rpwHyuA9QOhDgDkUzIZnkBcUmIBT6EEc3UyJFIRJf3mZ/joI5sB8NprhekOi8elffeVLrwwd7Dz5ZfWnjV1qvuzAADWT1OnSjNmNH+p7tBBOuIIe7m+/377QcPw4faaFYvZ61eun5nE4/azm+23l0aOtPate+6RPvxQOvDA8Ky4zz+3R3bbFwCsCUIdAMin8vLm/UOeZ+/empoKc/9IxH40mNnq5UlVZfUqj4XP8NprVrEze3ZhNnIEg5OHDLEZBdmefFJ6+GHrIAMAIJ8aG61Cdfbs5n/+s59J22xjw/unTLHXqYMOsvbkH1ookErZa9sxx0iHHCJ98IFV62y3nbTbbva2IFBTY9d5jQOQT4Q6AJBPPXtaG1bwI71IxN69LVnifvOV79uPGXv2lCoq0j+GbPQ1bP85Gn7MUnXJsTr8/vvtJ4uLF7tf0BW8+T3tNFsTW1UVfs6tt1rQtGSJu3MAANY/335rK8yXLUv/WTQq7bKLzXVbsMCCn4EDpV69fvzrYTJpL7+DBkl9+liLVV2d/T09ezZ/7jvvSN98k7+PCQAIdQAgn7LWiUuyap1Cbb/KdYa4VN7W04mnetpl13AnWEODdN990uTJdi0adRvsJBLpOQR77BG+vnSp9Je/SK+84u4MAID1TywWfg0Mfv6xaJEN8t98c6l/f3stzO6m/iHbb2/zd95/36qBcnRDKxIp7FsCAOs+Qh0AyKdc7+A8r7Dv4oIz/O8cvlTnaeMunsZcJh1wQLjV6ptvbBjkc8+lZzy74nnpwcnnnms/Ic02b550003WHvZT31QDAJDL8uX2g4xMFRXWtRy87pWXW9vV6rxkV1RYB3au8AgAXOE/NwCQT507Ww13LGZpRDQqrVxpNd/19YUJdioq0u9IM7dw1ddr2wFJjRgRHt4o2WDHsWPtJ5WFmK8Tj0t77SUNHWrl6tleeUW69lr7iScAAGvqzTdtSHKm/v3tNTEaTe86WN1q1WQyd8EuALhEqAMA+VReLlVWplMRz7MhyStWWIpRCN262QqO4AyxmPU0LVwoNTXpmGOkUaNyBymPPSb99a9WueM62PF9a8UaMUI69VQ7drbnnpP+/W/LxAAAcCUSsUewsHJ1wpmSEnvtpFIHQCHxnxsAyKdgEnBmz1Dmu8RCnSFXE/9394/FrDpm772lsrLmT0smpTvukB55xAqLXA9OTiYtBzvjDFsdmx0kNTVJt9wi/fe/9mkFAGB1fd+Iuw02kLbdVpo/3+bhBJ3TP8XMmVJ1tbTzztLGG6/5eQHgxyDUAYB8a93aQpzMNKS+vnCVOr6frgHPFI3+7x1qly7S5ZdLgwc338AeuO026Zln7MiFmK/Trp0NTt5vv3Cws2KFdMMNBDsAAHdiMftBx/z51v47b166i/mHBK+TTz0lTZuWfhsAAIVAqAMA+RSJSD16WAtWZrXO3LnWAuV6pk4qZe9M27SxX4N3o6mUVFPTbEJk377SyJHS1luH/5qZM23N+SefFG6+znbbSb/9rbTDDuHr778vXX21NGWK+7MAANY/qZR04IE2Y+fRR6WXX06/pH4fz7PnPPusPXr3tgUAHToU5twAQKgDAPmWSoVXNmW0Pznl+/Yjwu7dbVhyKmXvOBMJG0yzfHmzpx90kHT++dJWW4X/qokTpT//WZo+/Yff1OZDPC7ttps0bJi04Ybh66+9ZqvXv/rK/VkAAOuXZNJWkg8dai+j994rvfeevf6t6jUwqO755hvpn/+016fhw6U99shdBQsALhDqAEC+lZbaIwhxglClqalwKzFWNVcnR6XQccdJxxwjdewY/mseflh66CErMirE4ORYTDrlFOmQQ+xNdaZUSrr1VmsNY3AyACCfgs7loUOl/feXJk+Wjj/e5rrV1NhrUvYjkbBh/kcfbYsGDj3UHhUVtAsDKJwC/OwVANYz3bvbWvOFC9NrzWtqrAWrTx+roHEd7uSaqbOKUEeSRo+2oOSBB2wDe6Y77rAPZ9gwG2qcXYSUT/G4zSE45xz79D31lG1jz/TQQ9I229ib6Fat3J0FALB+SSbtZzKXXir17Cndead07rnS7bdLRxwhDRxor4OSzdx59FFp0iT7mc3o0fbatdFG9vew/QpAoRDqAEC+fd96jUJp187eeQYJTSQi1dZKdXWWymS92+zWzebrTJ8uvfpq879q4ULp2mstjzr8cAteXAc7fftKF15oW0Refrn59Vmz7Dxdu9pPUwEAyJdk0n42c/HF0p57Sn/6kw1Ovvrq3M8fONDmwQUVpvF44YpyAUAi1AGA/MvcPpUZ7kSjhQt7unSR2raVFi2yc0Sj0pIl1ke1ih8h7rKLvYmtr5feeaf5tTlzpL/9zYKUgQPdHz+RsNWyp54qLVggffpp8+vTplkFUbduNtQSAIB8CTY/7rGHNH68VbJOnmyrzgNbb22vP1272m6CVCq95LKlf64DYP1CqAMA+VZSYu/yvvrKKmWiUXu3N3++7ecuK3N/hlXN1PmeFixJOvhgC1DmzbNusUyHsC7WAAAgAElEQVQTJ0pbbGHLvbp1s2zIlczZBsuWSdddZ4MoM40fL1VV2U9IN97Y3VkAAOufVMrafysqpC23lPr1Cz/H9+2HEIkE1TkAWg7dngCQb7GYVcnEYuk+Jd+3uTr19YU5QyqVe67Oj6gWOvVUacQIqVOn8LV77rFHIQYnB0vEjjrK1sxWVoaf88gj0nPPWVYGAEC+JRJSQ4O9fGc/GhoIdAC0PEIdAHAhV/tVLOY+CZEsCSkvtzKWWCz9bjMelxYv/sFgqW1b6bzzpP32C+c/K1ZIN95oVTue5/7DaWqSOne28+y+e/h6dbU0ZowNq2xocHsWAAAAoNgQ6gCAC6WlFqgEPM8SiqYm9/f2fStr6dzZzuH71nYVj9uAmtraH/wrOna0LR577hkOdpYutRWvkyaFc6t88zw79iabSGeemXuez8KF0tix0tSp7s4BAAAAFCNCHQBwoVcvC1UikfSg4sWLLVRJJNxPUfT93HN1otEfvWd1112l4cNtE1W2KVOkq66yIKUQxUfxuM37+fWvba5Ptpdekm6+Wfr4Y/dnAQAAAIoFoQ4AuJArtCl0032umTo/MCg52/Dh0ujRllFlmzRJ+te/bCuI62AnGJx82GHS4MFWSZTtqaekxx+3hV8AAADA+oBQBwBcyBxUHIQowRCaQuw69TxLPsrL038WiVjvVG3tjw6YSkut7enQQ8NLuxIJa8O6/Xbblh4UJbmSSFhX2cUXS8cdFx6cvHKldPXV0oMPMjgZAAAA6wdCHQBwoaLC1pqXlVnAEwyHmTfvR820yYsOHewcQdLieZa+1NX9pL+mVSvprLOkAw5oPiZIstzqoYesaieZ/NGdXaslGEtUUSGdeKI0aFA4H1u50ubrvP0220gAAACw7iPUAQAXSkubrzX3PEs9li0r3JqmYCd4ptWsFOrfX7r0Upuzk+2rr6Q//1l66y33bVhBNjZwoPSrX0nbbht+znvv2VlffdXtWQAAAICWRqgDAK4kEulAJ1BaWpjJwlI61MksWfG89OMn2nFHacQIadNNw9feeUe65x5pxoxwNY8LyaStXD/2WKlnz/D1N9+Uxo+Xvv7a/VkAAACAlkKoAwCudO4stWmT/n0kYu1PNTXue4NSKal9e5urE1QLRSJSfb1NEq6v/8l/ZSQinXyydMYZ4cHJvm9tT3/9qzR3rvv5OsmkVFJi1TojRlinWbbbb5fuvVeqrnZ3DgAAAKAlEeoAgCsdOoQHFdfU2BTfQgx8qay0YCconYlErPVr8eLVCnUCxx4r/exnzT+0wCOPSC+8YEVK0ai7DzNow4pGpWHDrC0suwAqHpfuu0+aPNnOAwAAAKxrCHUAwJVkMtz+FI22fPvVGm7g6t5d+u1vpT32CF+bP18aM8ZWi6dSbj/UINjZdFPpqquk/fcPf1iff27bsp5/PjxeCAAAAFjbEeoAgCvRqFXJeF46WEml0rN2CiFYq54pElnjNVVbbCGddpq09dbha3PmSOPGSR9+6HYbViAel/r1k44/Xtpss/D1Tz+VHnhA+uwz92cBAAAAColQBwBc6dzZhs+UlqbLVurrpVmzbK35GlTL/CDft/t17Wp9UplrzRcskJYvX+NbHHWUzbTJNTj5+eelW26xzViFKEyKxy3UOeUUqUeP8PX775euvdYqdwAAAIB1BaEOALjieVaqkhne+H7hqnQiEaldO6msrHm1zvLlazRTJ9ORR0qHHGK3yfbkk9LTT1t+5TrYCT6lxx4r7bOPfcjZ/vUv6b//zduHDgAAALQ4Qh0AcCmYq5MpFitMX5IUnqkj5aX9KtC+vXTZZdKQIVLr1s2v1dRIV18tPfSQ1Njofr5OU5NV6fzxj9Lhh4dXqzc0SNdcIz31lFX2AAAAAGs7Qh0AcKlTJ6miIv17z7Md2ytWuG2/CuQalpznQKljR1srvv324WtLlth8nalT07d1vRGrVy/biNW/f/g5s2fbeaZNc3MGAAAAoJAIdQDApaoqK2HJnGmzbJm0cqX7tea+b3N9OnVK7xePRq2EZtEiK13Jk913l847T9pmm/C1N9+ULr9ceuutwhQpxePSYYdJl1ySO9h55hnblvXBB27PAQAAALhGqAMALsXjtu0qM8CJxdJbsVyrqLBHJGJn8DwLc2pr7Vx5dNBBNjy5a9fwtVdekcaPt5Xnheg8S6WkwYOlQw/NPe/nsccs3Fm61P1ZAAAAAFcIdQDApaoqe8RiFqpEIlJdnbR4sQ2BcR3s5BrMHMzUyfO9W7eWfvMbafhwm7WT7Y47pPvus86zIGNyJR63D+/88y1oatWq+XXfl66/3lqxli1zdw4AAADAJUIdAHCpqkrq0CHd/hSJ2Pql6mqbHuxaEOrkGpbsIFAqL5dOPFEaNCj819fV2WrxKVPSuZLL+TqJhH36TzxR2m678HOWLLG166+/7uYMAAAAgGuEOgDgUiplG7Ay0wvPK8xwmVTKdnv36JGe6+N59udz5jgrURkwwLZe7btvONj5+GPp0kull16ynKsQ83X22EMaM8aCpmxffin9+c/SG2+4PQcAAADgAqEOALiWa4V4rlXnLkSjNlMnaP+S7NfaWmv/cmTgQOnYY6WNNw5fe/996cEHpZkz3a45DyQS0v77S0cemXvez0sv2Yydb791fxYAAAAgnwh1AMClWMx2bFdUpEMc37fd2oWa0ptIhAOkAlQKjRxpj1xByr33SjfdZAVDroOdVMo+BWeeKY0aZQvBsv3tb9Ltt0sLFrg9CwAAAJBPhDoA4JLnWWqR3YdUqEodyQbdlJWlz+B5Ns+nsdHpGWIxaehQW3ceizW/lkxKY8dKzz9v/9v14OREwjrQTjvNzpNr3s9tt0mvvlq4LwsAAACwpgh1AMC1IMDJbH/K1ZLlSvfuUseOlmT4voVM1dXSokU2dMahjTeWrrpKOuSQcEXOypU2z+aJJyx0cfnp8Dz7ULt3ly68UNpzz/Bz5s+3WUDPPef80wIAAADkBaEOALjWoYPUtm26HCUSsUSjpsYCH9d8f9Xbr1yvVJe02WbSsGFSv37ha19+Kd14o/TOO4Wbr7PDDjbvZ6ONwtffe0/6+9+lDz90fxYAAABgTRHqAIBrHTtK7dunS1FiMWnFCtupnUi4D1YKvNY8lyFDpN/+Vtpii/C1t96y1qfPPw+3aeWb79un/OSTpbPPlnr3Dj/nueesNezrr92eBQAAAFhThDoA4Fr2WvOgWqcQO719XyotlSor0xuwgrXmK1bYXJ0COe44a8OqrAwf8eGHpWeesdk2rufrJJP2qR8xQtp7b6mkpPn1eNxCnZdfdrogDAAAAFhjhDoAUAi5qmIKMSw5lbLNW92727DkINRpbLTVU8uXu71/hlhMOv98C3eyg51EwtqwHnxQamhw24oVzNdp21a65BLpiCPsU5Oppkb6059s1XlDg7uzAAAAAGuCUAcAXCsvtz6f8nILWYJUYdYsadmywpwhu/1qVVu5HOvRQzr3XGmXXcLX5s2Tbr5ZevPNwhwtHpc22UQ64wxpu+3C17/80ladv/uu23MAAAAAq4tQBwBcCzZdBdunJPu1kGvNs0OdoAWswKGOJPXvb/NscgUpn34q3XSTNHVqYZaDJRK24nzUKBvonO2112zez6efuj8LAAAA8FMR6gBAIbRAeNJM27ZSq1bp30ciUm2tVF/vdoDNKhx+uDR4sM2QzjZhgm2g+vpr9xuxgmzruOOkn/3Miqmyrz/0kDRxoi0sAwAAAIoJoQ4AFEKvXpZgBNU6sZi0cKE9gpYsl7p2ldq1S/8+GpWqq214TAuEOpK1YY0caRvfsz3+uPToo3Y818FOU5PNkr74Ymno0PC8n6Ym6ZprpPvvt9nSAAAAQLEg1AGAQigtbZ5OeJ71/sTjhQlVUqlwq1cLtV8F2reXzjpL2m238LVly6xa5403LP/K7FzLN8+z4KZrV+mXv5R23DH8nHnzbL7OlCluzgAAAACsDkIdACiEZNJCnOxhxSUlhRkeE4Q62fcPEpMWssEG0m9/K+21V/jTMHu2Vci89JId0eWnKZhdve220jnn2K/Zpk2zDV0MTgYAAECxINQBgEIoL5eqqizECYKVREJassT9zuxgrXm7dhbiBGvNm5oKc/8fsPvu0plnSv36ha+98YZVyEyfXpjsK5mUDj3UHrnawp55RrrjDmnGDPdnAQAAAH4IoQ4AFEJlpdS5czrUiUQsVFmwwP0EXt+3QcmdO1uok0rZ/evrra+ottbt/X+EQw+1YcXdu4evPfus9OCDNn7I9XydRMJ+Pe886aSTLIfL9tBDNu9nyRK3ZwEAAAB+CKEOABRKMhkeDBONFqb9yffDM3U8z+5fiBKYH1BeLp1+urTnnuHj1NdLN9wgPfCAVFdn113O14nHLQM7/XRp553Dzwnm/bz+upszAAAAAD9Wy7+TB4D1Ra7BxIXcPJVMFt2w5EydOkmXXCIdcogVFGVqapLuucfm6ySThZmvs/HGNu9n993Dn6KZM6X/+z/p5ZftPAAAAEBLINQBgELp1ctWPgVBTjQqzZ8vLV7s/t6eZ0NiWrdO/1kkIi1d6r796yfYemvp7LOlgQPD1z79VPrrX6UPPnDfhiVZsLPHHlaxs/nm4euvvSbddpvN+wEAAABaAqEOABRK9lpzyZKD7K1YLnielcKUl6fv5XkWKBXBTJ1M++5r82w23jh8bdIk6a67rFKmEMFOMikNHiwNHSp16xa+/sQT1hb27bfuzwIAAABkI9QBgEJJJsNzdSIR6zUq1Frz7PAoEimKmTqZYjFp9GhpxAjLoTIlkxbq3H23DSp2OV9HsrytdWtp1Cir2sk17+e662x48ooV7s4BAAAA5FJc7+QBYF1WWdl8rXgkIjU2WgtUY6P72TarCpWKZKZOJs+TTjxROuig5h1jgQcekCZOtA8nGnU/OLlzZ+nii6WDD7YFZpnicQuaXnzRZv8AAAAAhUKoAwCF0rFjeq14EOrU1dla84YGt/f2fdvP3aFDOgWJRGyezpIlFioVmQ03tPk6gwaFr82aJf3ud9KECfZhuG7FiselAQNsvk7//uHrH39s83WmTXN7DgAAACBT7IefAgDIi1TK0oHMDVSRiJV+uG6B8n2rEqqqslApkUiHStXVFiqVlbk9w2oYNEj65S/tiB9/3PzarFnSffdJfftKW20VXuyVb4mEtP/+0tdf21rzmTObX584UdpgA/sU9+3r9iwAAACARKUOABRWmzY2MDmzX2jFCveVOtKq26+i0aJswQoce6x06qm2PCzb449Ld9whzZ3rfr5OKmV52JlnSiecYEVPmRIJ6dZbpfvvL8xCMwAAAIBQBwAKJRKxFUoVFc3LSubPl5YvL0ywkkzar5n3ikaLblhytqFDpcMOs0ws2/jx0lNPWS7mer5OImFfuhEjpAMPzD3v55//lJ591oYoAwAAAC4V97t4AFjX5NpAVYhKGd+3MpMuXaRWrZqHSgsXFv3qpq5dpT/8QTriCPswMlVXS2PGSI89lv4wXYrHbd7P6NHSdtuFr3/zjXTZZdILL7g9BwAAAECoAwCFtKoykkJU6USjNvCltDQd6vi+DUquq3N//zXUqZN00knSDjuEry1ZIo0dK02dWpiFXomEtMsu1orVr1/4+syZ0rhx0ocfuj0HAAAA1m+EOgBQSD16WNlJsAErGrWpu3PnFm6tue+H26+KeKZOpv33twqZzTYLX3v5ZavYee8999uwfN9yseOOs6Cpe/fwcx5+2IKmuXPdngUAAADrL0IdACiksjJ7eF46XInHbSBMMO/GpVSqeQtYcIa1JNSRpCOPlI45xip3sk2caMOTFy92H+ykUvYlGzbM2sJyzfsZN0564gkbmQQAAADkG6EOABRSKpWethso1FpzyWbqdOiQnigci0k1NZaCNDW5v38etG0rXXKJNGRIeFCx70s33WQbsZYtc78RKx6XOneWLr9cOuigcJC0aJH0+99LzzxjX3YAAAAgnwh1AKCQotH0WvNAKmWlHI2N7u/fpo1UWZmuzIlGbU3TihWFqRTKk4oKaeRIm2uTXWRUVyfddZc0ebKFOi6zsqDQqmtXO0+uwcnV1dLdd1tbGAAAAJBPhDoAUEilpbbWvHVrC3OCNqx58wrToxO0XwV831IP171KDuy4o/THP0q77x6+9s030jXXSK+/XpgPLR6XDjhAOuUUaaONwtcnTpSuvFJ69133ZwEAAMD6g1AHAAotu/1KsjaoQrRfBRN+s3uSCrEyyoFddrH5On36hK+99Zb00EPSnDmFGZycTErHHiv94hdSx47h5zz/vPT009aSBQAAAOQDoQ4AFFpFRXpYsmS/NjTYw+UAmFTKKoS6d5datUpXCiUStqJpLZ3me8YZ0tlnSz17hq/dfrt0883S/Pnug51EwrrbLrlE+vnP7UucKR6Xrr1WevRR+1IDAAAAa4pQBwAKrUcPK+UIWq+iURtUvHChJQOuKmaCwciVlemV6lJ6ps9amjTEYtKJJ0p7723zpjMlk9L990uvvGK/dzk4OZivU14unXyytPPOq5738/rr4WItAAAA4Kci1AGAQvu+9qdCtEDlun80Wpj2L0e6dLEKmX32CV9btMhm7zz+uIU8rj/MeFzaaSdpzBgLdrK9/bZ02WU2yBkAAABYE2vvO3gAWFu19FybXKUqhQqUHOrXTzrhBGnzzcPXPv/cKmQ++qgwg5MTCWm33aSjjsrdFvb669aGNXu2+7MAAABg3UWoAwCF1qaNfaefOdemqckm+hZirk337lL79s3bv6qrpSVL1qq15rmceKL0m99IffuGr/33v9Ktt0ozZ7oPdpJJ+9SefbYNT27TJvycv/7VHnPnuj0LAAAA1l2EOgBQaLGYDSwOkgXPs3Bn5UoLd1wrL28+xTcSkerrbabOOjDo5Re/kH72M/sUZ0qlpH//28KdeNz9fJ1k0r7EI0favJ9YrPlzkknpvvukSZMK82UHAADAuodQBwBaQjKZe615IXqDWnqmj2Nt20q/+5103HGWX2VascLm6zzwgNTY6P7THY9LW2whXXGFtOee4evz5klXXZUe5AwAAAD8FIQ6ANASvq9axjXfX/VcnXVEz57SKadIAweGr82bZ/N1pk61UMf1h51ISFtvLR1/vLTJJuHrH31kG7o++8ztOQAAALDuIdQBgJbQs6fNtQlEIrbSfPFity1QqZTdt2dPC5WCmT4NDdKsWYWZ6VMgu+0mnXuuNGBA+NqUKdL110vTprnfhpVKWbAzcqR0/vnSRhuFnzN2rJ3nq6/cngUAAADrFkIdAGgJLbX9yvelkhIb0hykGcFMn/p66xdahxx+uHTwwc3zs8BTT1mYMn++2zas4NObSknHHCPtt1943o8kjR8vTZxoo5UAAACAH4NQBwBaQkuuNV/VvQvRi1RgZWXSxRdblUyuYGfcOOnhh6XaWreDkyXLy9q3ly66SNp33/D1mhqb9/PwwwQ7AAAA+HEIdQCgJXTsKPXoIZWWWsASzNSZO9e+o3cdruT6+10mGi2ofXvp5JOlHXcMX1u2zObrvP22zal23YoVj0sbbiiddFLutrC5c6W775bef9/tOQAAALBuINQBgJZQVmbDkoPyEM+zwSsrV7pvgfI8m6nTrl06yIlGbYLw0qXrZLjTv79V7Oy6a/jap5/aBqrJkwtTqBSPS0ceaRU7W24Zvj5pknTzzTZAGQAAAPg+hDoA0FISieYBiucVplxEsgqhWKz5nzU12ZnWUfvsYxUyffuGr02aZBUy33zjfs2579tG+yOOsHk/7dqFn/Pkk9J//mMZGwAAALAqhDoA0FK6dZMqK9PBjudJCxbYcBXXJSPJpD0yQ6VIpDAzfVrQ8cdLw4ZJXbqEr40fbzN2qqvdBzuJhM2qvvhiafhwqW3b5tcbGqSrr7ZBzsuWuT0LAAAA1l6EOgDQUtq0sTasgOfZxN6GBrctUL4vVVTY/aNR+30kIjU2WqDU2Oju3i2sosLm6+y2W7ggqq5O+vOfpUcftdDF5eBkz7PCqPbtpREjpIEDw89Ztsyqh955x80ZAAAAsPYj1AGAlpKrWiYWs4fLahnfl6qqrFylpCQd6tTV2VyddXz1Up8+0u9+Jx1wQLgip7FRuvNO6cUX0/OrXfE8m6+z3XbSBRdI228ffs60abYRa/LkdXLUEQAAANYQoQ4AtJTSUuvBySwJicdtC1Yy6fbeqVR4rbnnrZNrzXMZONAqdvr1C1/74APpn/+UPv/cfRuWZF/q/faTBg/O3Rb2yivSvfdKM2e6PwsAAADWLoQ6ANBSunWzR1AtE4tJy5dLc+ZYsFOIuTrZ5R/BXJ31wM9/Lo0aZSvGsz39tHTbbdKsWYWZrxOJSOefL512mtSpU/g548ZZsLNggduzAAAAYO2yfrxzB4Bi5fvhahnXYU7QbtW+vc30yRzUvGyZtWGtB0pKpLPOkoYMsfFCmeJx6R//sOHJdXXu5+vE41a4NWyYtNNO4X8C9fU2NPmNN9wXcQEAAGDtQagDAC3F98MtUFJhNlBFo9brU17e/P6LFkkrVri9dxHxPKvWOfjg5jOrA3fdJU2YYNU0Lit2gmCnb1/p8sulffcNF0zNnCldeaX03/8S7AAAAMAQ6gBAS4nFrP0qM1jxfWn+fGvDcm1VgdJ60n4V2HRT6dRTpW22CV/76isLUl59tTDjhuJxG5h80knSZpuFr0+dKt1zjzR9uttzAAAAYO2wfr1zB4BiEolY309JiQUsgeXLba25a8lkONgpRJVQEdp/f+mcc6Qttwxfmz7dVotPn16YwcnxuHTMMdIpp0i9eoWv//vf1hrG4GQAAAAQ6gBAS4rHmwc6wcDkQqQHVVVSu3Z2r2DOzsqV0tKlUlOT+/sXEc+TTjhBGjo096Di8eOl66+3IMXlfB3J/jnEYnaWPfe0WTuZEgnpb3+THnlEqq11dw4AAAAUP0IdAGhJXbpIHTqkg5Vo1Cp1Fi+2ShpXVTO+b6FO+/bplCISsZRgPQx1AqNGSUcfHR6cLEmPPWbzderrLXRxJZiv07Wrzdc54ohwsCPZdq7//EdqbHR3FgAAABQ3Qh0AaEnt2kmVlenwJhq1dUvLl1tJhkupVPMqISk9U2c9bMGSbMTRpZdK++wTvlZTI117rfTCC4UZPRQMTj7pJKl///D1L7+U/vlPado0t+cAAABA8SLUAYCWlExaeJM5KDkSsXDHdWrg+3Z/328e4qyHw5Iz9e4tnXaaNHBg+Nq330p33mkDiwvxKUokpAMPlM49V9pii/D1556TbrxR+uQT92cBAABA8Vl/37UDQDGIRm2XduagFt+39ieXe6t93wY0d+5s90+lLNhJpda7tea5HHqodNFF0oAB4WvPPitdfbUFKa5HHwVb74cNk37xC+vUy/bAAzbzp7ra7VkAAABQfAh1AKAllZdLPXvar0GwEo9Ls2bZbBtXglCnQwcb2BK0Yfm+zfNZudLdvdcShx0mHX641LFj+NqECdITT1hLlutgJ5m0x6mnSoMH2z+VbLfdZoOTly93exYAAAAUF0IdAGhpLTm/hvarVWrdWvrNb6SDDw4HNw0N0nXX2arz2lr3wU4iIXXvLo0cKW23Xfj6/PnSVVdJL7/s9hwAAAAoLrxrB4CWlkyuemCxa8Gw5OyZPuvpoORsVVXS6NHSrruGr9XWSvfdJ731lv3e9acsHrdzXHhh7mBn1iyr2Hn3XbfnAAAAQPEg1AGAltali23BktJrzZcutUcQtri8d1VVeqZPNCotW2b3dr19ay2x227SZZdJgwaFr334oW3Eevdd99U6kgU7hxwiHX+81KNH+Pp//iPdf780Z477swAAAKDlEeoAQEtr394GpQSlHpGIlYHU1qbn7LgSrFQPqoKiUZunU1vrdlDzWmaffaQhQ2z8UbZJk6SHH7YWqEIMTk4mpZNPtuHJueb93HmnNG6czbsGAADAuo1QBwBaWjAJN7MqJ1hr7rqnJ/veQfsVLVjNxGK2Vvz00624KVMyKd18s/SPf9iM6cxFZi4kElLbttJ550n77hv+Mq1YIV1/vfTCC+GuPgAAAKxbCHUAoKVFo7aJKnOGTiHWmgf3yZypEyDUCSkpsban3XazkCdTMin961/S5Mn2aYtG3QU7wYK0Tp2ks86y82R/qZYskW65RXrtNfcdfAAAAGg5hDoA0NI6dJB695bKyixgiUSk+nqbfOtyR3UqJVVUSN26pe/teRYmffst+7Fz6NtXuugiC1KyzZwpjRkjPftsuuDJpXjczjF8uLTRRuHrkydLf/qT9Pbbbs8BAACAlkOoAwDFoCXKKXxfKi2V2rSx0pNgtXkyKdXU2N5uhOywg3TCCRbwZPv4Y+nee6UvvnAf6vi+tWIdf7x06qm5Bye/+KI0fjyDkwEAANZVhDoAUAxisXAKkGvVuQtB+1XQwxP0DxVipfpaKBKRRo2yGTt9+oSvP/KIdOut0ty57ufrJJNSq1bS2WdLBx9sGV2mREL629+kZ54howMAAFgX8Y4dAIpB7962BStIAKJRad48m7zruorH98P38Dxm6vyAIUNsUHGrVs3/3Pelf//bqmQSicLM12nVyubr7L9/eN5PQ4PN1/nvf+25AAAAWHcQ6gBAMQg2TmXKNcDYhe7dLVAKRKO2D3vpUtYnfY9u3aTf/14aPDhcIbNwoXTlldJjj6WDHZfical/f+mSS6Sddw5f/+gj6Y9/lF5/3e05AAAAUFiEOgBQDL5vrbnrNqiKChuUHPA8qa5Oamx0e991wIYbSiNGSFtvHb42a5Y0bpzN2SlEJ1siIe24ozRsWO55P2+9lZ73AwAAgHUDoQ4AFIOqKqljR+udydyAtWiR9c+4bIVKpcIVOaw0/9EOPthanzbbLHxt4kTpmmukTz4Jt0XlWzAW6eSTrXqosjJ8/Y7P2FUAACAASURBVK67bMbO7NluzwIAAIDCINQBgGLQrp0FO8F3/pGIhTmLF7uvmMk1Uyc4A36UI4+0cKdt2/C1xx6THn7Yutlct2ElEhbs/PKX0uGHS61bh58zfrz0wgtWjAUAAIC1G+/YAaAYpFK5269iMfdVOlVVNlenpCRdJVRXZ+UcK1a4u/c6pG1b6Xe/k447zrrZst12mwU79fWFma+z4YbSxRdLu+8evj5vnvR//ydNmuT2HAAAAHCPUAcAikU0agFOZrCTSLgdVuz7Nk+nvDy9f9vzLGBauZJ1ST9Bp042X2fgwPC16mqbZ/P++4XpbEskpC23lE45Rdpqq/D16dOlO++Upk1zew4AAAC4RagDAMUgEpF69ZLatGke4syda307LlMA388dHAUhE360XXeVLrtMGjQofG3KFOmKK2xgsevONt+3YOeYY6Rf/UraZJPwcx55RLrhBunzz92eBQAAAO4Q6gBAschVwlGotearmquDn+xnP5OOPVbq2TN87aWXpIcekubPd9+GFWR1gwfbvJ927cLPefxxacIEqabG7VkAAADgBqEOABQLz0s/AoUIdTzPqoTatk3fKxKxKqFly9zeex112mnSCSfYuKJsd91lrU+LFxdmvk5VlXTeedIee4SvL1sm/eEPNjyZwckAAABrH0IdACgWPXvawOJo1MKcaNS+654zx+1ac8+zuTqZO7c9z+7JTJ3VUlkpDR8u7bhj+NrKlbZW/MUX7dMcjDJywfPsS9i7t61dz3WexYulsWOl995zcwYAAAC4Q6gDAMUiGm0+x8bzLNxJJNxX6+SqCCrERN91WP/+0pVXSvvsE/40Llki3XijtWP5vvsZO/G4tP/+0gUX2LmyTZ4s/eUv0gcfuD0HAAAA8otQBwCKhe+n15pnBjuu15oH90He7bSTtWH17Ru+9s470nXXWZBSiPk6yaR00EHSz38ude4cfs6ECdJjj0kLFrg9CwAAAPKHUAcAikUsZgNQSkvT26hSKSvrcDnwJJWSuna11q9YLN36VVMjzZ4t1da6u/d6YMQIa33q0yd87eWXbdX5nDnug51EQmrdWvrtb6Vhw8KDkxsaLGQaN84WrgEAAKD4EeoAQLEoKZE6dZJatbJgxfOsxGLRIvfBSkmJPYI+oKD1q6kp97pz/GixmDRqlHTggZbXZUokbHDyhAn2v13P12lqsmBn+HBbu55doFVXZyHT22+zDA0AAGBtQKgDAMUkmUwHOoFo1P3QlVSKuToOlZfbBqpDDw0HOw0N0k03Sc88kw52XAkGJw8YIP3mN7kHJ3/4oXTppTbvhzwPAACguBHqAEAxyRWiBIGLS57XfEhz5r0p2ciLLbaQLrxQ2nnn8LXPP5euvVZ66y33bViShUd77ikde6xtxsr2zjvSgw9KM2a4PwsAAABWH6EOABST3r1tim3QehWLSdXVNr02mXRTNeP71nrVq5dUUZEOkHxfmjXLZvogLwYNkk45Rdp88/C1d96xVqwvvmi+Xd6FYGzSWWdJp54qdekSfs7dd9tj/ny3ZwEAAMDqI9QBgGISi4W3XSWTVlrhslon2LKV3fuTSNj9kReeZ0OKDz9catMmfP3++6V//EP69lv383XicbvH0KHSrruGg6Rk0qp1Jk+25wIAAKD4EOoAQDFJpSxIybXW3PVcHd/PPVPH9X3XM5GIdM450tFH26ydbP/+t/TsszZrx2UrVhDsbLSR9Kc/2SDn7PvNnGnzdZ59lmwPAACgGPFOHQCKSatWUocO1g4VDExOJKTFi6X6erf3zh7I7Hn2nXwyyVydPOvdW7rgAmn33cPX5s+XbrhBeuON3GOO8i0elzbbTDrhhNxtYZ99ZhuxPvnE7TkAAADw0xHqAEAxad1a6tjRViRlhjoLF0orV7q9d48eNlwl6PuJxWyezrx5UmOj23uvh/r1k844Q9p22/C1zz6TbrlF+uCDwg1OHjJEOv10qU+f8PWHH5auu06aPt39WQAAAPDjEeoAQLEJ5udklmiUlrr/7j5otcq876pWnSMvBg+Wzj5b2nTT8LVnnpFuvFH68kv3X/rgy3vMMdK++1q2mO2BB6T//EeqrXV7FgAAAPx4hDoAUGzat2/+XXUkIi1f7r5Sx/fDrVaFmuezHjvySOmII6SqqvC1p56SnnjCvvyug5143Aq1rrxS+vnPLUfMlExK119v56FwCwAAoDjwLh0Aik3XrlLbtunfRyI2U2fpUncbsFIpqaws3PqVTFrrF+UZzlRVSeeeK+2xR/haTY109dXSQw9JTU2FCXa6d5eGD5e23jp8/dtvpbFjrS0MAAAALY9QBwCKTa7BxNGo2+/ofd/CnCDUCe6fTErV1e6rhNZzvXtL551ng5OzByMvXy6NGydNmWK/L8Tg5AMOkC65RNpmm/D1iROlP/5Reu89t+cAAADADyPUAYC1RSHm2uSan5O9FQtO7LWX9KtfSQMGhK+99ZZ0003SRx8V5kuRTFpL2ODBtowtW9AWVl3t/iwAAABYNd6lA0Cx6dxZ6tUr3QYViVilzOzZ1gblslQjV5VQ9vBkOHPwwbaFqlu38LWJE6Xx46VFi9y3YSWT9k/vrLOko4+WysvDz7n5ZmvFWrLE7VkAAACwaoQ6AFBsYjGppMSCFN+3X1Mpm06bTLq9d+fOUps29r9939KDpUttuIvre0Pl5dL550snnCC1a9f8WkODdMMNFqTU1qY3z7sSj9u8nxEjpIEDw9eXLbNg57XX3J0BAAAA349QBwCKUVAqEfA8C3pcl2i0by9VVKQrcyIRacUKSxFcDWlGM61bW5Cy++6W72VqapLuu096/fX0BnpXwY7nWbCz007SFVdIO+8cfs6sWdKf/yxNnuzmDAAAAPh+hDoAUIzatZNatUr/3vNsYm5dndv75pqpE6QHtGAVzIAB0q9/LW2/ffjap59KF18svfBCYcYdJRI272fIEKlnz/D1V1+VHn7YugMBAABQWIQ6AFCMunSRKivTAYvn2Wrx5cvd3jeVWvWwZEKdgtprL6vY2Xjj8LWPPpIefFCaMcN9qOP7Vjg2apR02mm55/3cdpt066228hwAAACFQ6gDAMUokQgPLY7F7OEqXEmlpLZtLVAK1pp7nvX8fPuttWChYGIxafRo6dRTpa5dw9fvvVe66y7bQOV6vk4iYW1hp58u7bFH+J9gQ4MFO5Mm0aUHAABQSIQ6AFCMKirsEXy37nk2KHnFCvsO2wXft5avtm0tUQjum0jYVNz6ejf3xSp5njR0qLT33pazZfJ96aGHpJdesiAlGnU/X6djR+nCC6V99w0HO4sXS9dcI02YYM8FAACAe4Q6AFCMOne2ipmSkvQWqtpaad48K4twVa3j++lHpkIMb0FOG24oXXWVdMgh4TnZs2ZJl14qPfOM/ZNwPUc7Hpe23VY67jipb9/w9Q8+sI1YU6e6PQcAAAAM79ABoBj5fni2jecVJlhZ1bBkZuq0mI03loYNk7baKnztm29sI9YnnxTmn0c8Lp14onTOOdIGG4Svv/iirV2fMcP9WQAAANZ3hDoAsDbxPLfhiufZJNy2bdN/FolICxZINTVuB7fgex19tA0qzhWkPPGEdPXV0mefhdeg51sqZf8kRoyQ9tsv3BaWSEj33GPbuRob3Z4FAABgfUeoAwDFKBqVevSwuTrB5Fnfl+bOtfk2LlVWSmVlzTdv1dbyHXoRGDJEOugg+xJle+wxa8NaudLt4ORgvk55uXTRRdKRR9oopkx1dTZf55FHGMUEAADgEqEOABSjSMS+U84eklJf734KbbDWPBMrzYtCly7SlVdakJJdIROPS9dfb61YdXWFma+z0UbS2WdLO+wQvj5jhnTjjdKUKW7PAQAAsD4j1AGAYpVMhufbxGLuB6fkGpQctH0R7LS4Ll2s9Wm77cLXFi2S/v536a23CpPDJRLSjjtaW9iWW4avv/22dOut0kcfuT0HAADA+opQBwCKVWWl9bh4Xnq9eH299de46q1JpWxvdbduFiAFu7Jra6U5c+xXtLj99pMuv1zafvvwtU8/lf7yF+m999xX6wT/LH/xC2sLa9Mm/JyHHpLuvFOaPdvtWQAAANZHhDoAUKy6dbOAJfjOPBq1eToLF0pNTe7KMFq1klq3TlcEBUNUamvtvigKhxwiDR4sde4cvvb88zZjZ/Fi98FOImH3+M1vbNV5rnk///qXzftZvtztWQAAANY3hDoAUKxWtVrc9XrxXPf1PObqFKFzz5VOOcWyv2y33CLdcYflgK6DnaYmaws75xxpl13C1xcskG66SXr9dbfnAAAAWN8Q6gBAsQpm26xqvo3re2djpk7RadtWGj1a2m238LXaWgt1Xn/dQp1CbMTacksLmnK1hU2fboOT33rL3TkAAADWN4Q6AFCsysttrXl5uVXPeJ71usyZI9XUuLmn71sC0LOn9dEEW7A8rzDr1PGTbbCBrRbfY4/wtdmzpauukl54wb60rmdsx+M2W2f0aGmTTcLXn3tO+sc/pC++cHsOAACA9QWhDgAUq2g0PdsmKG1IpWxftcvZNsE69Vis+Z/X1zNTp0jtsot0zDFSnz7ha8EGqs8+K8zitGRSOuooW7ueqy3s0UftUV3t9iwAAADrA0IdAChmyWS4V6UQa82/b54PitIvfymddZYVWWWbMEEaN06aP78wg5PbtpXOPFPaddfw9eXLpT/+UXr4YcsnAQAAsPp4dw4AxaxHD6mqyv530BpVXW1rjYLWKBeYnbPWKSmRRo6U9torXGTV0CDdc480aZJ9aQsxX6dnT+m3v5X23jucBa5cKd19t837SSbdnAMAAGB9QKgDAMWsvFwqK0uHLJGItUHV19t35S7CF9+3depdu1qIlEql16l/+63dG0WpUyfp0kulww6TSkubX1uyxCpknnjCgpRCzNfZZRfpjDOkrbYKX3/7benvf5c++sjtOQAAANZlhDoAUMySSetnySyriESsFMNlNU1pqZV+BPcIyi+amtxWCGGN9etnrVjbbBO+9tlnNqh42jT3bViS/dM9+GBp6FArOss2YYL0wAM2+xsAAAA/HaEOABSzsjKr1sn8DjyVsv6VeNzdfX0/PFeHmTprjX33lU49NfcGqldekW67TZoxI9ymlW/JpM3cPu886fjjbdZOpoYG6YYbLNhxtdANAABgXca7cwAoZu3aWYlDWZmFLJGIfSc8Z460YoXbe0ci4WogqnTWCrGYhSj77WehSqZk0ubrjB1rLVmFmK8TjUojRth8nZKS5s+Jx22+zgsvsFwNAADgpyLUAYBi5/u5N1G5ar9KpSxE6tXLqoRSKbtXKiXNmmVJAIpeZaXN1znuOPsyZrv3Xunppy1Icd2KFY9LW2xh27m22y58ffp06ZZbpHffdXsOAACAdQ2hDgAUu1WtF3c5UycSsZKKzHYr37cEgHVFa43evaXRo6UddwxfmzPH5uu8846FOq4XniUS0p572oauvn3D1195RbrzTunzz92eAwAAYF1CqAMAxa5HD2vDCkSj0oIF0tKlbu9b6AohOLHTTtI550hbbx2+9u670o03Sh9+6H5cUrCs7bTTrBWrc+fm11Mp6Z//tFas+fPdngUAAGBdQagDAMWustK2UWUGLHV1UmOju2Eo0qpn6uSqHEJRO+oo6aSTrKMu25NPWpgyb57b+TqSVeukUtLw4dJBB0mtW4efc9990vPP2z9xAAAAfD9CHQAodomEtTxlfrcdjdo0XJflFb16WTlF8J1+LCZVV0sLF7rdvAUnhg+XjjyyedFX4MEHpccesyAlGnU7OLmpyf5pnXmmNGhQ+Dlz5tgsoAkT6PQDAAD4IYQ6AFDsOnaUuna1GTfBBqyVK6Vvv7Xvwl21Q0Wj4Qm6ySQbsNZSnTpJZ5wh7bxz+NrixdIVV0hPPGH/nFyuOg82Yg0cKP3yl1L//uHnzJljg5w//NDdOQAAANYFhDoAUOwqK6U2bdIBSyRi5Q7Ll7utmAlarTJ5HjN11mJbbCFdcIG0yy7hL+OyZbbqfMqUwnTXpVLSkCHSqFE20DnbE09Id9whff21+7MAAACsrQh1AKDYpVLpYSSBXNup8i1o8cr87t/3w2fBWmW//SxI2WST8LVXXrEgZeZM92vOUykr/Dr2WOnww6W2bcPPeegh6amnpJoat2cBAABYWxHqAMDaoKzMApbMEoqGBneVOsmkVQf17i21apVu+2pstNKJZcvc3BcFMWSINHSo1KVL+Nqjj0oPPGAtWa6DnXjcugt//3vpiCMsp8y0eLF0+eV2psZGt2cBAABYGxHqAECxi0Sknj2tDSuzQmbuXAtXXLVDed73b8DCWquyUrroIumYY8IbqFaulK69Vnr4Yevyc7kRK5iv06GDrTnfYYfcbWFjx9r6dQAAADRHqAMAa6tCzLbJtb48EnHb9oWCaN1aOvlkaa+9woORGxulu++WXn3Vfu/6yx2PS/vsI40eLW22Wfj6K69YNc+UKW7PAQAAsLbhXTkArA1aamhxaWm4Bycet7k6hZimC6e2397m6/TrF772/vsWpLzxhvs2LMk6/o44wqqHOncOX3/hBenJ/2fvzuOrKuz8/7/OOfdmJQkJYQlhX4OouKAioFTUVkS0blhFFLfamXnMdNbfd9rvzPc7v3Y67XQ6085vtloRN9xbt9bdKiKKCoJsKvuehAABsid3Ob8/PtwmNzcoYA5wb97PxyMPyj2XnCPcJve881lehD17gr8WERERkXShUEdEJB3062c7qT3PwhTPs+1XNTXWIxNUuFNeDsXF7b8PhaC6GmprFepkiJkz4Y47YMiQ1GPLlsGTT8LOncEHO9GotYV973swezbk5SUf9334+c/h6aehoSHYaxERERFJFwp1RETSQUGBfSQGnDiODUqur7e74aB0NVPH9xXoZJDsbPizP7PByUVFqcd/9Sv493+3LO9EzNfJzoZ582Dy5NS2r+ZmWLAA3nvPKntEREREejqFOiIi6SAWS215cl0rnwhy4MmR2r40UyejuC7cdRdcfrl13HXk+/DEE/D22/YyPBEbsc46C37wA5gyJfX4J5/A3/99+7wfERERkZ5M78pFRNKB61oJQ8c7at+3ibZBVer4vu2Yzs62ICdRIRSLWZWQSiUyyujRFqRccknqsb174Z/+yQYWe17wo5yiUTj/fGvDGjo09fiyZdaGtXVrsNchIiIicqpTqCMikg6ys22+TV6eVc44jv26cyccOBDMOeNx2zU9cKCVb8TjFi41NcH27XDoUDDnlZNm3Di49VaoqEg9tmEDPPIIrF8ffLVOPG6Z4b33WltY796pz7nvPmsL27Ej2GsREREROZUp1BERSRddzbI5ERuwunKyziuBu/VW+Ou/hlGjUo89+ST89KewZUuwwU6iIMxxbL7O9OmpbWHxOCxcaG1hra3BXYuIiIjIqUyhjohIugiHbftUQuLON8hByWDn6DxXp6sBypIxbrwRvv51yM9PPfbcc/D66xakBDk4GWy+zsiR8MMfwte+lnp8/3740Y9s3bmIiIhIT6RQR0QkXQwaBH37tt9Jex7s22driaLRYEIWx4EBA2zXdOLu3XVtlXpdXfefT04JhYXw/e9bsNP5ZVVfb0HKE09YsHMiVp2PHXvktrCNG+Gxx+DTT4O9DhEREZFTkUIdEZF00dXGqaDXizuO3eFnZyc/Vldn+6UlY5WXwx132CaqzvbsgQcftE1UQS9C830LdubMOXJb2OOPw7/8i839EREREelJFOqIiKSLxPTYxBYqsF9PxFrzzsGR62qteQ8wa5ZV7JxxRuqxDz6An/8c1q0LvlonFrOPG26wtet5eanPeeYZawtraAj2WkREREROJXpHLiKSLvLyoF8/q5pJbMCKRKxsIsg72Xg8NdjRTJ0e46qr7KOkJPXYK6/ASy9Z4VaQ83USL/X8fPje92DGjNQgqbER/vEfrWpHwY6IiIj0FKEvf4qIiJwSsrOhqMiGJbe02K+xmK00b262Nqnu5vs2x6dfP6ittd+7rt3FV1XZnJ+uyiYkY+TkwN/+LbS1wQMPwMGD7cdaW+EnP7GX4t132+ilxNaq7pYIdgYOhNtvtw1cK1cmP2fPHrvGsWNh2jQ4uHc3Gzdv42B9kz3Bj4OXRdnQUQwfVEZ+jt4GiYiISHrTuxkRkXTSuf0K7I46qFYo34fcXCuRcF0bbuK6doff0BD85i05JRQWWpCyahW8+WbysYYGeOQRmDDBWqMgdVlad4pE4Mor7SX4gx/A6tXJxz/6CH7+C8s/G7a9wt/+vz9h9eYacnJywPeJA15eCdfc+kf8xb1zGDekb3AXKyIiIhIwtV+JiKSTrKzkvpNE+UKQ4UpX7VeOo5k6PcwZZ1jFzgUXpB779FNbO754sb00guzM833LNq+80tqwevdOfc7LL8Gbb0AsEqPfqLP5x/9+hI/XrGHN2rWs+ngZv/irW/jktcd54vk32FPXFtzFioiIiARMlToiIulk8GAoLra90mABz549ttp8wAC7mw5isElXpReaq9PjTJsG3/wm7Nhh3Xcdvf8+PPqobc0aNsyCl+6UCItCofZc84c/tJav//xP+79BQiQCP/0pTD3d52BOFv37llDWv/8f3vTcfOedrPhsHVu2bqJy3yH6F6paR0RERNKTQh0RkXQU5BrzzucJh+1OfdMmm6WTeHzXLhuwUlBwYq5FTrpQCP7yL60wrHOQAvDEEzbz5k/+xAYrd8d8Hde1l6DrWlizdq29FFtbbd6P51nO2fla9u6D5xbB0LNc8kJO0hue+n01NNVFGDi0P8WF+V/tAkVEREROIoU6IiLpxHXtLrbjnXJi1Xk8Hsxuade1YcihUHKY1NRkg02kR8nKgltvhRUr4MUXkytyWlqsWmfCBKvogeMPdjzPXnKtrfD22/Db39oa9c8+a88Wv4wbCtNWX8XvXnqSjWuXQQwizfWsfH8p7uDzmXvVDIaVatC3iIiIpC+FOiIi6aRvX9s4tXu3BSqeZ5uvduyA4cNtOmwQOs/UAbVf9WDDhsH//b8W4rz+enKws2OHtUXl5Njg5ONZdR4OW4fhs8/CU0/Z8ONDh479OkPhEM379/PMgpfpNyCfnByItkWp3VfHoLYCttVUc3qknF7hAMJQERERkRNAUy5FRNLJkSp1otFgVw51JeiJuHJKmzAB5s2DceNSj61ZAw89BOvXH33xmO/byzs7G5Yvh+98x1q93njj+AId04zvV+C4DzH7prW88upa1q5Zy7J3nmdCQS3/9a//zvsr13OC/58jIiIi0m0U6oiIpJtEq1VCYnpskNuoysqsSihRdhEKQW0tVFdbf4z0SNddB/fcA0OHph574QWbu7Nt29EFO55nxWfPPgt//Mfw9NNH32b1RUIhh+ZmeHABvP8exAhRPu58rp11Gc7BPWzctotmpToiIiKSphTqiIikmz59IL/DcFfHsYCloSG4c2Zn2zCVRGWO49gdeGvria8QklNGKAS33AKXXGIvkY5iMZg/H555xsYvfVkbVigEL78M//APsHLlF5+3Tx9bBJf4GDIk+f8SHfm+g+M77Npln/uVVyEa9Tl4oA4/O5uiXnlkqeBMRERE0pRm6oiIpJuSEsjNhQMH7PcnItTx/fa5Oolgx3U1V0coLYW//3sb7fT886mFW/ffb6HLtddacNNVBhgO2xDk++6Dzz/v+jwFBfCNr8O134TpF8GAUuBwSBR3YMNWWLQYHn8Cli23eT/g4Dj1hEKfkxXPZ906eOD+VjaueJVnnnuKPmddz7hRwwnrJSwiIiJpSqGOiEi6SbRfdSx78LxgNl91dKQZOidqvbqcskaMgDvugC1bYNmy5GPbttl8nVGj4Nxzk0Md37cCsB074Cc/sS1XXbnkEvjbv4aLp0FOvs/ahiZer6tnbyRCaTjEmJw8Ksbk853TQ9x6Czz9a/jZv8HnG3KJ524lv/BvyCeE7/ssXuzy0fISpl15I3/2p/cwYVR5cH8xIiIiIgFTqCMikm48L7VCJjEsOYiAJRazleaDBtkdemNj+wCU7dth9GirHJIe7RvfgIMHbfPVunXJx37/e+jdG/7P/7HBytGoPR4K2f9esACWLk39nAUFcP218Nd/A0NOi/KLnZU8sXYPm5oaaIq0guPaa98L0Sc7m9G5+fzV0EHcfGcfBg32+Om/XMP7719E3aEIjuMAPrGYx5lDS7jzpkImnaGtVyIiIpLeFOqIiKSbsjIoL4e9ey1wCYVsouzOndbnkpfX/eGO61pJRcfBKL5vwU7iDl16vJtuso1X//EfsG9f8rHf/AbGjIHvfheKi+2l63k2R+ell2D//tTPd8N18Lff8znQv47Zq7bxVu1ePNfl7MLeTCsqZnxuL1riMSrbWnnlYC0fH6xl7pqD3DVwEH9x0SB+ObyQ7/55ES+/kvx5V6+Cxe/AhDNt/reIiIhIulKoIyKSbrqaZeP7dpccZCtU55avxLVopo50cO+9sHs3PP546pin+fNhwAC49VYLdrZvtyqdTz5J/TyXXQb3fgeWFe3lR+s28VlzI9f2HcBflA9hYq8Ccj33DzN1cODPBw7itQO1/HjXNv5rxzY+baznR6NGM3duIdu3w7pP2z+378OLL8LUqXaeIBfHiYiIiARJb2NERNJNxwCnY6DiecEGLF0FOF0FPdKj9e8Pd94J55yTemzvXvjpT2HxYnspLVgAS5akPq+iAv7qryD/9CYWVlVSE4vxoxFj+eWoCqYWFOH5Ls1RaI4d/ohCjuNxfWlfnq44ndvLh7C8vp5na/YwdWYrM2dAYWHyOdauhU8/tQHPIiIiIulKoY6ISLrxPNvpnJ2dPHV2/36bdxOUQYPsvI5jQU4oBDU11mejFizp4IIL4Hvfg/POSz22e7dV7Hz/+7YtK7HELSEvD+66C8ZPjPJQ1bjqTwAAIABJREFUdRUfHDrIdX36clO/fvQOhWmJQ6yLc0Z9aInB0Jxc/qisnLPze/FY9R4WtRzgtntiTLs4uSInFoOPP7YhzSIiIiLpSqGOiEi68Txba56Tkxzq1NYGG+qEQskbthzHwpxYV7fY0tNdcQXccotlgZ299BL8+MewZk3qsauvhhkz4FPqWVxTw5jcPOYMGMCQUA6xLtahdxaJwcReBcwpKycXnxeraoiXt3DuRGv56qiqCg4dUrGZiIiIpC+FOiIi6SgSSQ5TEpUzQa41j8eTQyQ48ppzEeDuu+H2249+GPHo0TB3rm3I2t3aysF4nEkFvRmelcux5C5+HCblFzEiJ4/KtgiHolEuOA+GD0t+3ooVsHWrQh0RERFJXwp1RETSUXGx7XtObKNyXavSqatLDV66i+umzu05EQOaJW316mWzcY5mGLHnWQg0ZQq0RXw+rKunznE4q6CQUi9M/BheYlEfRmTnMK6giM/bWtne2kK/Up+CXsnPUyYpIiIi6U6hjohIOiottWAncaccCkF9vc23iUS6/041FrPzDR7cPsvHdaGlBbZtg4MHu/d8kjGKi+FP/xQuvviLX5bf+hbMmgX5eVZp4zkOYdcl3/MIHcd6qhzXJc/zyHJcHKwtq6tCMxEREZF0plBHRCQdxePJFTKJap0gN2B9UaVOUNVBkhEuvBB+8AOYPLnr40OHwk03wZgxFuiAbSv3gbh/fIVgcR/ivk/8mBq3RES+Gsexn7McKYtWmCwi3U2hjohIuupqxbh/nHfAR+NIrVau++W9NdLjtbUdeUna/v3w7ru2Gcs5/FLyDn+EHHCP8SbIBzzHqn1CODgc/r+LXqYiErBoJEpTYyuRaAwH6PzlKx6PE4m00RaJENcPRESkG+jtjYhIOsrLs7VCublWJeM41na1Y0ewrVDhcHKAow1YchR27YL/+A/48MOujzc0wL/9G/z3f0PNXsgJO0wtLKKv67GjpYXGeOyYfrrtObA/GmVXSxMT8vIYkZNHY7NDa1vy8zrPGxcROW4OhJ0Wfvf4L7jysonMvudP+Gj95xDq+KQYn37+X9x55wXM++7fsXLDzpN1tSKSQRTqiIikI9dtr+/u2ILV1hbcXarjWJBUVNR+TteFyko4cEDDkqVL8Tjcfz8sWfLFz4vF4Kmn4J3F0BqFfM8lHmnjd/tr+Ky18ZhCHdeFN+pq+fhgLaF4nCzH4cMPbdNVR+PH20ta7RAi0j3iHDpUy77aWtaseJ9PPtvOoeYOh53t+O5HNNZvomZfLc0tkZN2pSKSORTqiIikq65m2QS91ryrVqt4XIGOHNHvfge//a21WH2ZbdvgX34K778P5xT2YkJxH1Y0NvDbvXvZH23DO4rwJezC5uZmnt5TzR7f55J+fcg5kMOqlanXMHgw9OmjUEdEvoRLe09o54/OXdCEGDF2AoNLc6nctJX9++o6HFzLkNFhLjhvPP2KC0Azv0SkGyjUERFJV8XFkJ/ffkfqurYBq74+uJAlHk8NkhKzfXRnLJ3s3g2PPAKrViU/7jgwfLgFKp198gk89BDUbcvmjoFljM/N47Gaan5/8AAxJ07YTZ1RAfZYlgtN8RgP7a3mvUO1zCwu5YriUt57I8Syj63dquM1TJhglToiIik88LPBDwGtbTiNzThNLe0fjS3Q1IrvxvCzgTDgQCzaRmH/YZw+ehi9I58Ra9x1+BP6wGbKC0sZVlxGlmfD3EVEvqrQlz9FREROSX37QmEh1NRYiON5Nk/nwAGr4gmFuj/cCYchK8vuiH3ffo3F2tu+gqwSkrTi+zB/PixalJoDjh0LP/sZbNgAP/857NyZ/OcefdRuf77//SJuKh/Iz7Zs5o83fMrqhqH8SdlAhubkdHnOlQ0N/OOu7bxSU8XoXr24rbyM6mW5PPQQbN6c/Nxhw+C006CgoHv/u0UkzYWwlLi+AW/7NryN63F37cBpbUuuVI3HwfOIlw0kNrqC+PDhOCX54Lp4OYWMHVvGtnXr+HxLJRH/NHAqcbwdOJExOG0HcdCQZBHpHgp1RETSVTRqHx2Dm46zdrpbPA6lpTBwoM3RiUYtxKmvh+3bYcgQqx4SAV54AZ5/PrXlKSsL7rwTpk61SpnVq+Hpp6GpKfl5Cx+1yps/+15/+o4J8eOtW/mXnZt5bn81lxaXMq2oN6WhLBygJR7jdwdreW5vNTWtLcwo6cvfjxzKqEghf/Er+OCD1Hzz6qvh3HOVQ4qI8UP24e7dj7fqE7y1q3H374N4DLwjfF/1fbzafXifrsEvLIZxI6GqmrZ4OUMqzmH0yLUsXbmVgy1NuKG1uE4rkegoYv56QFPaRaR7KNQREUlXublWqRMKtZdCRKNw6BC0ttrx7nakFiuVkEsHW7ZYtc3atanHrr8eZs60BW69esFf/7VlhK+/nvrcJ56GieeGmHdHf845s4B/2r6D5/bu4b5d27hvZ+I159uuctelNCuHH44aw91lZRzclMX//gW8/Frq7PBRo+Cyy6C8vNv/00UkTbm1+3FXfoK3aiXu/v2W+IbD4GR98R88XBXrNDXCRx/irltPPDdGQeE1nDZhICVvb+HArhpCofXEY4XEYuX4votCHRHpLgp1RETSVUEB9OsHGzdCc7O9AW1thepqaGwMJtTx/a4HI3teMNVBknZaW+Gxx+C99yxj7GjMGJgzx36NRi1sGTsW7rkHqqpgzZrk5zc3ww9/Ajur4J678niwYgz/Ono4v99/iHUNjUR8H3yfoTl5XNC7FyPzc8j3PBa/7fK/vw9LP+j6GqdPh3Hj9JIVEWiNQbRmN+Htr8NnG8D1IDv72ObEOQ54LnjZ+NnZULkR573FlOCSX1iF424lHN5JxB+DTxkKdESkOynUERFJZ0cKWIIaWuy6kJNjP5nseMfe3Jw8hVZ6rDfftNarPXuSHw+H4a67rO0qsbjNcexldO219pwf/CA12KmqhB//2Nad33qLy3VXZ3P1uH7cNCD5eYf2w+p34OHH4IXfwt69XV9fWRlMmmS/ikjP5jpxJnvLGf7hYuh1EMJZyWmv79v3tsQXrM7fW+PxDm3PHXo5w2H8XVVMDtUxMXs32/JfxXHrifjDgBws1NFyARHpHgp1RETSWVfhTVCtUIlhzOXl1jfT3Nx+DZWVNqC5tDSYc0ta2LnTNld98knqsdmzYdYsKyCLxdpfuol7pmuvtf/9wx+mBjtgLV0/+Ef4159bdU9xcftL3XFg1y5bid7aeuTrcxy4+Wa4/HJr/xKRnm3K4F3cfNZyhhfVQjQL3A7fUxM/qOjf38oLhwyxL2CJLzzRqH3h2bjRVv21tUG44/dkh4GFfRnfZyOLqp5nf8tF4PcHfMU5ItKtFOqIiKSzwYOhd2/rXQELXaqrbTptV/uig6SV5j1aNAoLFsA776TOsBk/3sKUESNSN2FBe1ffrFkWCO3eDbW1XZ+nsRFWrDi+a/za1+CGG7TGXERgXOle/p9p7zBpYDXEw+3fw+JxC3QGDIALLrAvYL162eP19facnBwrPxwzBi6+2Fb5vb8UdmyiuaWFQxGIxKOQXcTI4hwKvX1sbRyFHx2Mg09Lcz31DQ5tUbVhichXp1BHRCSdZWdb2XdHbW2pW7G6Uzye2val4SQ93uuvw2+7aHvKz4dbb7WWJ2jvYugsErFM8u/+zoYY/+xn8Pbb7QVhX1W/fnD77XD22d3z+UQknfnceNqnXDBkB57jQ/xw61QsZt/bRo+2L0SDB8Nnn8HmzVYKuHdve9XqwIH2hWXIEJu+fm1/WPQW0/fuZWRDlHG9ciDmM3XoWP4+pze/WTeCN9eHiZHFpG/MZciZMHbIgC++TBGRo6BQR0QkncVi7W9CEzyvfXBxV2URX1VOjpWgu66d13EsSGppsWvRjugep7IS5s+Hjz9OPXbllbbtqqAgue2qM8dpH08xbRpUVMCvfw0PPADr1qUOXT4WrmsDmqdPt5eviPRsZ/bfw0WjNtM3pxVih2+HEl+AJk+2FLq1FZ5/HpYvh4YG6NvXApzCQmhqspbj996DJUvgzDPtC8y113P2kOGcvWQxHDwE0Rh9Cvty3YBSxvfdS21dNQcYRcXEy5h28cn9OxCRzKFQR0QkneXn2xvM6moLWFzX3ogeOnS4vz/cvRU7vm8l6X372jnjcQtxDh603w8fbtckPcr998PixamPjx0L8+bZr51bso4kHreXcN++8Kd/CtddZ4OXn38eVq60tqxjzSqnTLFV6oMHH9ufE5HMcnhhHleO3sTp/fcAHb4/RiL2xer002HHDnjrLRsUNmIEnHee/VpU1P6Di7Y22LoVli6FtWvtz1xxBYweBTu2w8HV4MchDjT4jCmp4uz+W3kvXkYkpu+TItJ9FOqIiKSzPn2s/HvrVntD6rr2E8Tqavu1qKj7z5l4V9xRV1tBpEd48UULXfbvT348N9e2XV144fF93kjEPvr3hz/+YwuH9u+HDz6wyp2ObVlZWfDhh3YsMfIioaQEvvOd9vYvEem52mKQ7zYxps8eSrJbIX64dTgSsdT34osttFm61H5Ycckl9sWjpMTS5MTqPrDvt2PG2JCulSst2X73XZtzN22afQ/etOkPFa2OG+esAZVsqz+Ej0IdEek+CnVERNJZ4k1m5/k2ifarICSm2nYul3BdzdbpYbZtg0cf7Xpb1axZMGOGFW4dbZVOVxLhTihki9duvNE+Olq7Flat6nr+zp132oBkdQWKSCQOIwr3MKxkD1lezFqv4nH7AnPmmZYiL1pkVTcXXABTp9qqvMQmrI583/pCc3PtedGoVfcsXw6XXmo9pFVVljSHQhD3OLt/DRuya8n2BgD6fiki3UNfTURE0t2R1poHMSg5MSCyVy9r7er4eEODzdWRHiESgYcftm1XnefdjB5tQ4krKrpvrFMsZm1Zzc3tH5EI7NsH//3fNlS583Vccom1bw0c2D3XICLpLeTCBYMrGda7DhKLxaNRS4wHD4bPP7eEeMgQOOssC3S+7HtpYrbd2WfDaafB+vX2eYYNs8+TmD8X9RhaUMd55Xvom99NE+BFRFCoIyKS3hzH7lgLCpLvnisrba5Od7dE+b5t3Cors59OJlYZxeOwa5edU3qEV1+1tqvO2648z9qupkxJXZLW3RzHruGNNyxT7Ki01Fq2zj03uPOLSHoZVlzH5MG76Z/dArHDywQSq8lLS+17mO/b7/v0OfpPHI/b9+FRo+zzHThg3ytHjLAfgsRigEPY9ZkyeAcjeh8I7L9RRHoetV+JiKQzx7F1Pp6XfPfc2tp1uXh36epu3XU1V6eHSLRdrV2bemz2bGu9ysv7ahurvkw4DKtXw2OP2diKzubNs43EWVnBXYOIpJdcL0ZRdithL84ffrbtuvZDipYW2L3bekYHDDi+RQNlZVBcbD9YOXjQPkeHtmTH8emV0wrhAL84ikiPo0odEZF013FwY0LQ8226eqOrUKdHiEQsSHn33dTcsKICbrnFflj9VebofBHft/EUjY1w3302HLmz6dNt25XarkSko2jcJRL38P0O36sSM+ISPZ69etnH8Sgqaq+cTcy76/z9Mu6Ar++VItJ9FOqIiKS7sjIb7hgKtc+8OXTIflLY2hpM0DJwoJWmO077Offts16cICuE5KT7/e9tvXh1dfLjOTlWHTNlSvss7SAk8sqnnoI330wdjlxWBrfdBhMmBHN+EUlf55fvpqLPPkKODzgWvJSW2vezxA8mvsoXsERApI2QInICKdQREUl3ubn2kXgz6jjQ1mbrVIMql8jNtXkBiTetjmMBUmtrcHfzctJVVlp1zPLlqce++U246irrXEjc0wQhFLLtwU88AVu2JB9zHGv/uuQSe4mKiHRUlNdMfnYbrnO4eiYxJy47u32bFRz/F7BEmNNVBa2ISEAU6oiIpLtYzN6IdnwD6bp29xtUC9YXrTTXTyczku/D/PmwZEnqsXHjYM4ca7sK8j7G8yyrfOAB+PDD1ONTp9q68yFDgrsGEUljcTe19SkxI65XL5ul4zjHX3Ha1mbfk/v3tzYsEZETQKGOiEi68zwrj+i8Yryx0SpnRLrByy/bpql9+5Ifz8uDuXPhwgvt90GHOo8/Dq+9ltp2VVoK3/42nHdecOcXkQyWkwO9e8OePTYNPhI59h9SbNliJY35+SoXFJETRqGOiEi6y8qyQSJ5eckrxhNrzbtbLGY/gRw0yN4Ex+NWodPaCtu328YPySiVlfDww7BqVeqxK6+0tqvE1t4gCrV83zLL5cttls62banPuf12a7vStisROW7FxVbl+umnqYPDvojnQW0trFtnXwh797bPIyJyAijUERHJBCd6xbjn2QyCju1d8bithA1yj7WcFA88AG+/nTqiadQouOMO23oV9BydujoLlpYvT32pX3QRXHstlJcHc34R6QHicTjtNDj3XAt0Pv7YvvB8WRuz59mvK1bA5s0wfrx9UczJCf6aRUQARcgiIpmgq7WpQW/f6BwkOY5m6mSgF1+E555LbbvKyoK777a2q6423Hcnz4Nnn4U33oCGhuRjvXvDPffA+ecHew0ikuESVadnnw27dllpYiwG06bZjJzEcxIS3/Nqa+GDD+yjrAzOOQcKCzUoWUROGIU6IiKZoLzchorU1bWvGN+/H2pqbPCj53X/nXdXoVFX4ZKkrW3bYOFCWLs29dg3vwkzZ1rbVVDFWb5v4dGKFfDYY7BpU+pz7r4bLr00eaSUiMhxSbROTZ1qM3WWL4edO+Gss2DMGPs+63n2va+lBdavt6nt27fb9+GpU+17bmITpYjICaBQR0QkExxpxXhLS3Ahy6BBNn+gsdF+73k2YPLAAXtTG9TmLTkhIhEbSvzuu6mLYEaNsuHIFRXBdtuFw1Bf39521dn06XD99TBwYHDXICI9TCwGw4dbgLN8Obz3npUsFhbaR+J7W0uLVenk5sKUKfZRWmp/Xj/cEJETSKGOiEgmiMfb30gmgp3EWvOgfloYDrfPEgA7T1ubZupkiN//3tquOs8K9Ty46y77gXQsFtwsnUQh2G9+Y9uuOrdd9e9vw5HPOqv7zy0iPVxiIcD06ZZi79xpm60OHLDjvm+VOwMGWMtVebn9YEXf/0TkJFCoIyKSCfLz7Y3ljh3200PXtYBl9257Q1pc3P3n7Kr9SjN1MsLu3bBgAaxcmXps9my4+mpbthbUtiuwPHL1anjiidS2K8eBm2+2bVeaRSoigUhMhh88GIYOTR0g5rrtVTvRqGboiMhJo1BHRCQThMN2l52onEmsNa+vt3Cnm/nxGG0tzdAWIUyHVYq+D/EYkdZWYo5LOBzG89SGlU6iUQt03nknddvVaafBLbfAiBHB3r+EQtDUBL/6FSxdmnr84ovhxhvtXktEJFCxWPsXw44pdsfHRUROIoU6IiKZoqs+/nC4+2fbeB71u9fxz//0c7L3tHH76SMZGnIsUGpuhV0beerlp1hcmc1td9zK1HNHd+/5JVBvvmnjI2pqkh/Py4M5c2DSJLuvCapKJ7FQ5oknbNtVc3Py8b59Yd48WzAjInJCaVaOiJyCFOqIiGSKvLzkFUCJ7RwBVOrEY23UHqglpzFEtON7XN+HaIT6g7Xs3Z9DS1vkiJ9DTj3V1TB/Pnz8ceqxGTPgqqtsTmjQbVcrV8JTT9kIi45c19qupk9X25WIiIgIdKiYFxGRNFdenjw7J7GNat++o1uv6hyutunqo1O1j+M4hENhQq5Dymd1PbxwmHA4hKv5Omnl/vut7arzD6NHj7ahxBUVwbZdeZ61XT34IHz0UerxCy+0tqshQ4K7BhEREZF0okodEZFM4fupd+NfNrg4EeQ4jvW5dFXV4/u21SM7OznccRzC2dm4WdkQBnwAF1wHz3E0LznNvPQSPP+8ZYAd5eTAnXfatl7fD27bFdhL8ckn4dVXobEx+Vjv3vCd71j7l4iIiIgYhToiIpkiccd9tMGO57VvyNq0CTZuhIMHU6t6YjHruRk+3Fa4Dh4MoRBO2GNvTg4b6htorj28bzruw4eH2P35RiLhsTiukp10sGMHPPKIbZvqbOZMuPJK6NUruLYr34esLFi+3GbpdG67Alujfskl1p4lIiIiIkZvjUREMkVJia01r662FUaua9U3lZUwbJjdlUN7O9XGjbBkCWzbBq2t7a1WXamutvDngw9g+AicvmGy6mp55v23eMYHlw5BUjxOa1OEiZcOI3ykzyenjGjUAp1Fi+x/dzRyJNxxh2296nysO4XDcOgQPPpo1/N8pk2D666zDkMRERERaadQR0QkU2RnQ36+BTORiAU30aitNY9E2ksc9uyxkojVq6GhwR7Pzf3iz50IZ+Jx2LEdf3U1bbtqmXHuNK4fMZBBTtTar+I+FGXx6/XrWJudTUTrXk95r71mbVedt125rlXHTJnSdQFYd3IceOEFeP11e7l2VFJiwdK55wZ3fhEREZF0pVBHRCSTxGLJk2wdx0Ib17UhJZ9/DkuXWvWO51mJRMd+miPduSee47r257Ky8InTnxin9SlhWE74cPsXUBxm2Z4drG9ztP31FLdjh1XHdNV2deONMGuW5YRBV+msXg0LF1rxWGd33AGXXWaZpYiIiIgkU6gjIpJJcnPtLrnjwONIxH6/fDm8957doWdlJYc50ah9OE7Kpqs/lGmEQintWZF4nHgkCh6HAyEHapuJ7dyHX9QfNFPnlBWJwGOP2barSKfN82PGwC232K9BFluFw5Y1/upX1tnX2SWXwPXXq+1KRERE5EgU6oiIZJLychtq3HB4cLHnwc6d8Mor7WuNOpY8xOMW5vTqZXuiT6uAviXgOdZKFQcO1sGmLTZM+cABSF1inszH/pyqdE5pixZZ21V1dfLj2dm2vnzq1GC3XTmOfTzzDLz5po1/6qh/f5g7F846q/vPLSIiIpIpFOqIiGSSRPtVou/J8yzgOXSovXUqIRKx544dC5ddAuWDiMdd2g5FaNndSqgwRE7fLLxyF+eMCVC7D1asgJWriR/YTUNbK9FojFjn9MaBltYW6hqbiEQ1U+dUVFUFv/wlLFuWeuyaa+Dqq4PddgVW+LVqFTz+OGzenHzMcaz9a/r0Lx/3JCIiItKTKdQREckkWVntrVWJ1eSum9pSFYnYpqzJF0JFBQfXt1H5yOfUvLGXAytqaT3UioNDTu8cSqf0oVdFLwZ/awjFl34dp98A8t6IM+/MJrz8IvqFvA6zeHyIwvTLr2D0aeczfkTZCf8rkC/3wAPw7rupI5QqKmDOHBg1Knk0U3fzPKvMmT+/67arCy+E2bNh6NDgrkFEREQkEyjUERHJJAMGWFhTVXXkMotIBHJyYNoU4qedwc6Fu/j0x+vY+/k+wk4WxWOLKb+yDD8GLTUt7P1oH5te2sKWZ7Yy7o8qGHbbaHLmlnHxoLdgw4bUoSuROKePGs7pF06A/sUn5r9bjtorr9imqb17kx/PzbVAZ/Jke9kEWaXjeTbP59VXU9uu+vSBe++FCy4I5twiIiIimUShjohIJvmyu/BYzPpevnYRTdmD+fSPV7LxyY1k5WRxxnfPYPD1gyia0JtwYZjEUJymHY3sfGIn63+1gRXfW0nN23s544enU3zGeKiqhH37beLtH64BaGpKHtYsp4Tqanj4YVi5MvXYFVfYtqvCwuACHd+3QrKPP4ann4Zt21KfM3euDUjOyur+84uInHLiUVojUWJxv31ineMQDofxPO/LptiJiOB++VNERCRt+H7qWvOOYjEYM4b46LHseG4vO17cQd+z+jJlwSTO/KczKL2oD+F8B6KRP2zEyhuUy9j/VcGUR6cw9JtDqH6vmh3PbKel90i4cLKlAJ13XrtucGUectzmz4e33kotrho5Eu66C047LdhtV6EQ1NXBQw/ZPJ/O7V9Tpti2q8GDg7sGEZFTyeuPz+fqSyYzdswYKioqGDV8OBMuvpxH33qXppN9cSKSFlSpIyKSSTzP1gbl50N9ffKxtjbbcDVlCntXweZfbyGrKIvT//Z0BlzRD6JxiHRxRx+LQyxOn0klnP4P42mpb2XLQ9soPruUQVeOw926FT77rH2Gj+NYi1drq4VLnef5yEnxu9/Bc8+ltl2Fw3D33TbHpnPI0t08D559Ft54o31BW0JREdxzj9quRKQH8fez8rNlHAwXM+eemzh9RDnxWJRwr96cPW4MKlgUkaOhUEdEJJO4rt0dZ2dbSURCPG79LGefTjNFbJ7/Ka3rmznzB+MpnVJsgc6X3dHHYhSdUcTo20byyT+tYuP968kffhZ9Ro+G3bttw5bnWTlGbS3s2WOTbrW+6KTbsQMWLoQ1a1KPXXMNzJwJBQWpBVfdJdF2tXKlbbvatCn1OXffDZddltzJJyKSyRp317Bz8z7OmXQV8+68m4pBBSf7kkQkDenHpyIimSYaTe2hiUZtiHL/QbQd8GmsbaBoQiHFE0sJ5XnHUKIRp//lfSkZV0zbrjba9kfxR4yw4cyJjVvQXrEjJ10kYkHK4sX2vzsaMQJuvdW2XgXddnXokLVdLV+eevxrX7O2q/Ly4K5BRORUs+fALmpjLp7TwqJXfs0vfvH/8fLvl7L/UOPJvjQRSSOq1BERyTRZWVbu0DFU8X27s3Zd9i+tpXlLC4OvKSdvSG5iHvLRifuES7Lpc1Yfapce4ODag5SeP4Bwdkghzinq7bet5amqKvlx14U774SLL7ZCrng8uH9C17WWq0WLUrsC+/WDefPg7LODObeIyKmqcuMmdm5YzWvvLKVPcRGRhgMcaPSZOe+7fO/P7+H0Yf1P9iWKSBpQpY6ISKYpL7c7ZddNrsA5/L9jrXHciEuvwflklRxjr4sPbtglb1g+bpFHPBrDjwc8iEWOW2UlLFjQ9barG26w1qv8/OACHd+3fHH7dvj1r2HDhtTn3HwzTJ8OOTndf34RkVOXTyxUwvjzLuP1PLxkAAAgAElEQVSvfvQLXlvyAWtXr+LHfzmH5a88yVO/fYOahtaTfZEikgZUqSMikmk6350n7qyHDYXiYhy3ClyfeCSOHzu+QMaPxCGeGIzcDdcs3S4atXanRYtSZ+VUVMCcOTB69JEXpXUH17WWr4UL4d13U9u/pk2D2bO17UpEeiKHaVffxLSrb0p6dO4981i5bi2rV61je+Vl9Bsz4CRdn4ikC1XqiIhkmq7m48Tjtm6orfUPYY4TcnCO87uA47nggB8/igHLclK89Ra88ILNq+4oL8/m6EyebL8PMtQJhazt6oUXoKYm+Vj//nD77Wq7EhHpKLekL6V9S4m2+DQ3BzjsTEQyhip1REQynePYFNx9+6Gxid5nFpFbnkukPkqsxcc7jraXtv2t5PTKpmB4AaHcMPgq1zmV7NkD998Py5alHrviCrjqKigstJdFUG1XWVm2devhh7veunXVVXDRRVqOJiI9VKSOl59+lJU1MHPW1Zw1ykoWGyp3UL2rmt7Dx1JcrKXmIvLlVKkjItITuC60tUE0St6QPJwSh8pXq6hbV39s3wk8l6YdjVS9U0W0OUZOaTZuazM0Nati5xRy//3wzjup/ySjRll1zLhxwVboeJ61fC1cCEuWpLZ/jR8P110Hw4cHdw0iIqc0L5u62p088R//yn898gwbaw5Qu3c3//kfC1i6uY1JEycxvH/Jyb5KEUkDqtQREck0rptafhEKQXU17NhKeEQxhYOK2PHeDva8UUVBRS+y+4S/PJRxwI/57H6uiv2rDlB6TgnZA7Jh02e2Wsn3U4czywn3yivW7rR3b/Lj2dlwxx0wZYr9EwW57SoUgldfhRdfTG27ysuzbVeTJ1v4IyLSI7nZXDvnT9lTc5CfP/gTfvvgL/BirTTGejHvu/+LWZdPple2vkiKyJdTqCMikmlaW20ire+337U7jt3Fr1xD9sBBjLp3JAc3HWTjgi30PreY8mvLIXZ4+HFXXMD12P/OPjY/s5lQyGPU3aPpPTgGL22ExkYLdOSk2rXL2p1WrUo9duWVMHMmFBQE13YFNpN792741a/g449Tj19zjV1L797BnF9EJF1kl5Tz3X/4GVNmXM/ylZ/SFM9iwnkXMfGMsRTlH+N2ShHpsRTqiIhkmt27rTwiHreSiYRwGPZUw6JFFH/jCkbdMpJP/nk1y/9mBc07mxl88xCy++aAHwM6hDuOCzHY9dQu1v3zZ9StrefMH55B6YW9YfVS2LX78PM6pAS+r4qdEywWg0cesW1XnbdMDR8Od94Jp51mzwtKItdbsADeey/1+LhxNqS5oiK4axARSSteLyZOvpyJky8/2VciImlKoY6ISE+SlQU7d8HaVZRffgGttRV8+t+fseyvVlD5chWDrxtMv0tLye2fbc934MAnB9hy3xa2vrQd4jDq26MZdN1gwlvXwkfLoKnJAqOEaBT69rX1RtnZJ+e/swd64w147rnUbVeOA3fd1d52FWTW5nnw0kvW/rV/f/Kx3Fyb53PhhSrqEhEREekuCnVERHoS17XQ5cPlZPXpQ8VfTqTPpFI++9Gn7Hx7B9tf20FeXh7hwyGN7/s0NzfTGmmjbFJ/xv/N6fT/en9C1dtg+QpobEquBrI/ZCFPdrbu3k+QnTutSmf16tRjN9wAV18NvXqlDizuTom2q0cf7Xrb1axZ1v5VXBzcNYiIiIj0NAp1RER6mlDI7u4XvwcH6+l73kR6PXIBIz8ezd43qqn9qJbIIevfye6TzahpIymoKKDPlFLyh2bDkvfg3fesQicU6no4i9qvTphoFB5/3Nqu2tqSj40aBbfcAmPHBtt25Tj2z/3QQ7Z1q/O5Ro+2Kp3TTw/uGkRERER6IoU6IiKZxvNSK2SiUbvzTmzGCoWgrg7eegvWryd3+sWUX15B+cyyI3zSOGzdCk9+CBs32dCWIwU6ckItWmRtV1VVyY9nZdmWqYsuOjHbrn73O3j+edi3L/XYvffadYiIiIhI91KoIyKSSeJxOHgQWlqS7+D79LHHmpvt94lgJxSyocrPPAelpVbaUdKxP8ax8GfbNuutaWtr/3NfRJU6J0RVFfzyl/DRR6nHZs2yjyC3Xfm+hUfbt8Njj8G6danPmT0bZsyw6xARERGR7qVQR0Qkk8RiFtI0NbXfxUejtm4oFLId04cO2QCURDVPOGxh0J49Ftx0DmMcx6p/QqHUwcfxePtzOqYGWVlfHvzIV/byy7a+vPM/2ZgxtmVqzJj2f6IguK7lfE88AUuWpG7dGjPG2r+07UpEREQkGHrHLSKSaRLtV4nBJonem/POs+EmixfD+vUW9oTD7W1Zrpu8xeqLxGJ2B5+ba38mEmnv73EcGDxYE3ED9vHHNktn06bkx3NyYM4c23blOMFV6YDldq+/bm1X1dXJx7Ky4O67YepUzcsWERERCYreZomI9ASJUo6hQ+Haa+Gaa6CszMKYSOToWqV834Kg5mYLjs46C266CcaNs7v2jp+jc+WOdKu6Onj4YVi2LPXYN75h266KioKbo5NYcFZZCQ88ACtXpj7nxhvhqqvsOkREREQkGKrUERHpSaJRyMuzqp3Bgy0VWL8eDhywBOBIJRWJdKCgAEaOhHPOgSFD7LENG1J7fDRTJ1DPPQevvQb19cmPjxwJ99wD48cHu748FLJ/8gULrPCr8z//+PHWdjVmTHDXICIiIiIKdUREMkuijaqjRPtVImSJxeyjXz8rpbj4Ytixw8Kd/fvteR3LO2Ixa6UaMcJSg+Li9sqc1laFNyfY6tWwcKFlaZ3NmGFrw4P+J/E8eOUV+O1vU7dd5eXB3LkwaZI9T0RERESCo1BHRCSTNDbaR6J0Ih634Sa9eqUOLk7M3CkogDPOsPKKriRCHte1zxeLJc/POdKfkW7X1AT/8z82lLizadPg5pth4MBgq3TCYZun/eCD8MknqcevugpmzoSSkuCuQURERESMQh0RkUyyd69tsUoMQY5GbajJwIE21LirVUiJyh04ckiTCHO6evxI27I0U6fbPf44vPmmbafvqG9f23Z15pnBbrtK5HgPPdR129Xo0XD77UfOB0VERESkeynUERHJJImKmo6BSuf2qy9yLBU2rmsBUlWVhUee1x4iDR4M+fnHfv1yRKtWwZNPpm67chyYPRsuu8xyvKC3Xf3udzbTp3PbVXY2fPvb7Vu3RERERCR42n4lIiLHLxazIKdjyYbrtq9Vl27R3Azz58PSpanHJk2yUKe8PPhtVzt32jyftWtTn/PNb8IVV2jblYiIiMiJpHfcIiJy/BL9OJ0rg6RbLVxog4mbmpIfLy626pjzzuu6O667uK5ldwsXWttV55k9o0bBbbfZkGYREREROXEU6oiIZJKuKmQSg40lLS1fbm1XW7akHrv1Vpg+3f7Zg8zSQiGb5fP881BTk3zMcWyN+tSpwZ1fRERERLqmUEdEJJPU1EBDQ3vljO/bFN2gemK62oAVjytE6iaHDsEjj8CyZamhzZQp1nZVVhZclU6i7WrXLruONWtSn3PLLTBrFhQWBnMNIiIiInJkCnVERDLJwYPJq5F83wKd3NzuP5fv2/r0trbkx3r1gpyc7j9fD/Tcc/Daa1Bfn/x4URHccQece26wFTqJ2deJtqtIJPn4uHG2Rn3MmOCuQURERESOTKGOiEgm6WqVeCwWzJ2/79vmq46VQfE4DBigabndYNUqC1M2bEg9Nm8efP3r7bNuguJ58Pbb8MILtuiso9xcC5YmT7bniYiIiMiJp1BHRESOX+f16XD069PliOrrbdvVhx+mHps2zdquBgwIbtsVWNtVdTX86lc216ezq6+GGTNsWLOIiIiInBwKdURERE4xzzxjbVcNDcmP9+9vw5HPPDPYsUWJWdsLFsCSJanHKyrsOsaNC+4aREREROTLKdQREckkXa0X1/artLJmDTzxBGzcmPy448ANN8Bll1kVTZArzD0PXn3V2q727Us+lpNj68vVdiUiIiJy8inUERHJFA0NcOCADVlxHAtysrKgtDSYQcldbb4CtV99Ba2tcN998N57qccuvBBuugnKy4Nvu6qstG1Xq1enHr/qKvsoKQnm/CIiIiJy9BTqiIhkiro62L/fVhS5rgUrOTm20ry7Qx3HsfO0trYnDL5v583JgVCoe8/XQzzyiFXINDcnP96nD9x5J5xzTrBFV4mg6JFHYNGi1CHMI0fakOYzzgjuGkRERETk6CnUERHJFK6bOrg40X7V3ZUzrmsBUmVle4gUj0N+PgwdCoWF3Xu+HmDFCnjqKdi8Oflxx4FvfQsuvdSqaIIMdUIhePllePZZ2Ls3+Zjnwb33wkUXBXd+ERERETk2CnVEROT4HKn/R61Xx6yuzoYSf/BB6rELLrBtV+Xlwc3R8X0LjHbssDXq69alPufGG+HKK5XXiYiIiJxKFOqIiIicZIltV42NyY8XFcE998B55wW/7SoSgSefhHffhba25OOjRsGcOdp2JSIiInKqUagjIpIpuhpcrKHFp7wVK2zbVee2K4Dbb7dtV54XfNvVO+/Ac89BdXXysXAY7r4bpk5tX3UuIiIiIqcGvT0TEckUu3fDwYPtv4/FoF8/236VGGTcnRIzfBIcJ5j5PRmsrs6GEi9blvrXNnWqtTyVlQXfdlVdDQ88ACtXpj7nhhtg1izo3TuYaxARERGR46dQR0QkUzQ1JffN+L5tvcrKCuZ8Bw4k9wvFYnbnn58fzPky0PPP27arurrkx0tL4Y472rddBZWThUL2+RcssEqdzuHRuHHWdjV2bDDnFxEREZGvRqGOiEim6Lz5CoJNBPbtg4aG9t/HYlBcDAUF6tM5CmvW2FDi9etTj918c3vbVSx25JnUX5XnwZtvwosvpm67ysuDuXNh0iR7noiIiIicevSuW0REjk/nEMlxNMPnKDU1wf/8DyxZknrs4ovhppus7SoeDy7QCYehqsqqdLpqu5oxA2bOhD59gjm/iIiIiHx1CnVEREROsCeegDfegObm5Mf79bPqmDPPDHYwcmKm9oMPwuLFqecaNQrmzYMzzgjuGkRERETkq1OoIyKSKRItTx0rZTS4+JSzapWFOps2JT/uODaU+NJLbQxSUMORwWbpvPyybbvq3HaVlWVr1KdODa5KSERERES6h0IdEZFM0NQEe/ZAa6uFO4m1RmVlNuMmCIn2q0Ro5PuWRARZYpLmWltty9TSpanHLrjA2q4GDQqu7Srxsti92+b5rF2b+pxrrrHWK227EhERETn1KdQREckEra22QikWaw91PA+KiiAnp3vP5TgQidiQ5Gi0PdgJ6nwZ5NFHrUKmqSn58eJi+Pa3YeLEYCt0XNc+/2OPWdtVJJJ8fMQIuP12tV2JiIiIpAuFOiIimcB121cUdWy3ise7v3LGdS3QqapKrgzKyoKBA6GwsHvPlyE+/hiefBK2bEk9NmcOTJ9ubVFBdsuFQvD738Ozz0J1derxRNuViIiIiKQHhToiInLsHOfEr1BPY4cOwSOPwEcfpf71TJ4Ms2dbHhZUlU6i7aqy0q5jzZrU53zrWzBrlhVbiYiIiEh6UKgjIpKpfF8Byyni+efhtdegvj758cJC2zI1cWKw/1SeZ4HRwoXwzjvQ1pZ8vKLCqoUqKoK7BhERERHpfgp1REQyQVcVMq7bvhFLTprVqy1MWb8+9di8efCNb7SHLkHxPFi0yMKlzm1XOTk2R2fy5PYOPhERERFJD3q3LyKSCXbtst3UibVJsRiUlsKAAcEMavE8+0i0XzlO+/weVQf9QUMDzJ8PH3yQeuzii63tqqws2EAnHLbFaPfdB8uXpx6fNQtmzoSSkuCuQURERESCoVBHRCQTRCK2iSrB95OHJ3e36mqorU0OkYqLLRkIhYI5Zxr6zW+s7aqhIfnxvn1h7lyYMCHYDfCOYx8LFsCSJal525gxdh2nnRbcNYiIiIhIcBTqiIhkgsTde2dBVc3U10NjY3siEYtBXh7k56uH57B16+Dxx2HDhuTHHQduuAEuvdQWhgUZ6oRCFiq98IIVcnWUkwO33QYXXqh/MhEREZF0pVBHRESOXWJeT+f2K7VeATaI+L77rDqms0mTbNPUoEHBt11VV9u2q1WrUo/PmAFXXWVdeiIiIiKSnhTqiIiIdLNHH4VXXoGmpuTHS0rgzjvh3HNPTNvVww/D228nd+YBDB9u1zFhQnDXICIiIiLBU6gjIpIJTmTrlXyhVavgqadg8+bkxx0Hbr4ZLrvMqmiCbrt69VV49lmoqUk+5nlw771w0UXBnV9ERERETgyFOiIi6a61FXbvtrIQ120fkjxoEPTuHcw5E5uvOgZHie1XPVhDAzzwACxdmpqpnX8+3HgjlJcH13bl+xYY7dpl1UJr16Y+5/rrbdtVUVEw1yAiIiIiJ45CHRGRdBePQ0tLclLgODYJNxzu3nM5jm3a2rfPBsckQiTHsZVOvXp17/nSzDPPWIVM521XhYVwzz1w3nnBztFxXWu1evJJWLzY/ok6GjkS5szRtisRERGRTKFQR0Qk3TlO8tDihCAGFydCnf37rULIPfxtxHWhT58eHeqsXGnbrjZtSj12++1w+eXWFhVkV1woZGHOs89CVVXyMc+Du+6ytitX3/1FREREMoLe1omIyLFxHLVfdVJfb+1Oy5alhjaTJ9sK87Ky4P56Em1Xe/ZY+9eKFanPueEGmDULiouDuQYREREROfEU6oiIpLvEqqOOfL/9QwL3wgu27erQoeTHS0rgjjtg4sRgM69QyD73Qw/BO++ktnhVVFjb1bhxwZxfRERERE4OhToiIumurc0+EomB71slTVaW+mxOgHXrrErn889TjyW2XXmeBS1dLSnrDp5nq8tfeMGqdTrKyYFbb4ULL7TniYiIiEjm0Lt9EZF0V1kJ1dWWGriu/VpcbNuvcnJOTLVOD60Kam6GX/4SlixJPTZ1KnzrW7btKh4PLtD5srarGTPgqqugtDSY84uIiIjIyaNQR0REjp7jWIKwd6+tWXIcC5F697ahMTk5J/sKT6innoLXX7dt8h317Qtz58KECcGOGUp03h2p7WrECGv/OuOM4K5BRERERE4ehToiInJsWlps81VilbnvW6tXdnaP6u9Zu9a2XW3YkPy448D111vbVVZWsCvMQyF47TXbdlVTk3wsK8vWqE+dqi48ERERkUylt3kiInJsEuvTO/YT9bCtV21tMH8+vP9+6rHzz7e2q8GDg2u7Smy7qqy0eT5r1qQ+Z9YsuPJKbbsSERERyWQKdURE0t2Rtl9JYB59FF56CRobkx/v3Ru+/W0477xgK3QSo5Mef9zartrako8PGwa33w5nnhncNYiIiIjIyadQR0Qk3XW1K9vzgpvM28OtXGmzdDZvTj12yy0wfbq1RQWZq4VCtu3qN7+BqqrU4/fcAxddFNz5RUREROTUoFBHRCSdxeOwaxc0NCTPsykvt76bIJKFriqDugqWMlBdHTzyCHz0Uepf7QUXwOzZ9lcfVJVOou2qqsquY/Xq1OfMng1XX21VQyIiIiKS2RTqiIiku2i060qdIKbjxmK2Pr2hITnYGTAAioq6/3ynmBdegFdfhUOHkh8vKLAtU+edF2yFzpe1XY0ZA3PmwLhxwV2DiIiIiJw6FOqIiKS7rtqsfL/70wXHsfCovh4ikfbz+r6lGhm+znztWli4ED7/PPXY7bfDFVdYW1TQ264WL7ZtV5WVyceys+06pk7tUUvIRERERHo0hToiInJsuprXk+HtV42N8MADsHRp6rGpU63laeDAYAOdcBj27oX77oNly1KPX3WVfZSUBHcNIiIiInJqUagjIpLOXLd9xXhCImDRBqxu85vfwCuvWJFSR337wm23wVlnBZtpJcYYPfggvPtu6j/t6NEwdy6MHx/cNYiIiIjIqUehjohIOmtqsvk2iUQhHoesLGuHysrq/vMdaX16BgdIn34Kjz0G69enHrv+erj0Umt9CjLUCYXgjTfgueegpib5WHa2BTpTpqjtSkRERKSnUagjIpLO9u2zwcVtbVaxE49Dfr71AuXldX/YEo+n9hi5bnCDmU+ySMTanZYsST02aRLcfDMMHhz8HJ2aGtt2tWpV6vErroBZs6C0NLhrEBEREZFTU+a9AxcR6UkcJ3XGTaL9qrtLR1zXhrpUVlra4bq2eaugAIYOtV8zzGOP2barpqbkx4uLbdvVOecE33bluhbovPWW/bV3NHQo3HWXtX+JiIiISM+jUEdERI5eLGZBTscKINe1cpIMq9RZswaefBI2bkx+3HHgppvgssuswy3otqvXXoNf/xr27Ek+5rpw7702qFlEREREeqbMegcuIiLB+qKZOhk0Vyex7er991P/syZOtFAn6LarcNiKohYutHXqnV17LcycaVVDIiIiItIzKdQREUlnnTdfQcYFLCfDr39tbVedt10VFMA998D55wffdhWNWqXQ4sXQ2pp8fNgwuPVWOP304K5BRERERE59CnVERNJZS0vqoJXsbCvz6Bz2dIcjVepkkFWr4PHHYcOG1GNz58Lll1tbVNBtV+++a6vUd+9OPuZ5FixNm5ZxHW8iIiIicoz0dlBEJJ3t3AkHD7YHLbEYDBgAJSXBnK+rKqAgwqOTpKHBhhJ/+GHqf+akSTB7NpSXBxfo+L7lcXv2wPz5sGJF6nOuu862XantSkREREQU6oiIpLOuApWgKmd838pGDh1qP288DmVlljBkQLjz4ovwyiv2n9hR79627WrixGAWiyWEQvbX/PDD8M471oLV0Zgx1nY1blww5xcRERGR9KJQR0REjl5ra/J0YN+3FVCh0Mm7pm7y2WdWpfPZZ6nHbr65ve0qFgsuv/I8ePtteOGF1G1XOTkwZw5ceGFG/HWLiIiISDdQqCMiIkevqyEuGTCYuaUF/ud/YMmS1GOTJ8O3vtXedhVUoBMOQ02Nbd36+OPU49/4/9m77/io7jvf/69zzox6oQmBBaK6UWxMN9WhumCDu43BFGMnzuaXuzd3s9lyN2V3bzab7M1mN7/NGgdMM81gXGNjh+JCM7YxBptiXGmiiCIkUJs55/7xlSyNjjACzwGNeD/z0IN4vqM5R8ojjPzWp4yFO+6AnJxgri8iIiIiiUehjohIIqtv+1U0GuwU3ybomWfg9dfNKvPaWrY0w5F79Qo2t6qePz1nDrzxhn9VeseOMHUqXHddcPcgIiIiIolHoY6ISKI6cwaOHzfbryyrZspuq1aQmhr/61UnD3VDJNdN6EqdHTtg4ULYvdt/dtddpu0qOdkftMRTKASvvQYrVphqndrCYZgxA4YN07YrEREREYmlHw9FRBJVSQkUFvpDnZwcSEuL77Usy0ztLS+vqQLyPJMypKYm7JCXykqzZWrDBv9Zv34wcSLk5wfXdlX9P1lBASxYANu3+59z223mI6iFZiIiIiKSuBTqiIgkKts2k3Xra7+Kd+WMbcOJE7B/vwl2bNtcIyXFpB7Z2fG93kXy9NPw8ssmH6stOxsee8wEO0FW6Ni2CYwWLjTbrioqYs87dIDp0037l4iIiIhIXQp1RESkYeprvYKEbb368ENYsgQ+/dR/NnEijBxpqmiC/PJCIVizBp591lTr1PXoozBkSHDXFxEREZHEplBHREQuOyUlZn35O+/4Q5t+/eC++6Bdu+CqdOq2XW3b5n/OvfeabVfNmwdzDyIiIiKS+BTqiIgkqvoqZ6rXiydo9czF8uKL8OqrUFQU+3h6OkybBv37B/strG67WrzYbLuq23bVtSs89BB06xbcPYiIiIhI4lOoIyKSqA4cMHNuwIQ70ajZfJWTY/p6gpirU9/mqwTbfrVjh6nS2bnTfzZlCtxyi/n2Bb3t6u23zbargwdjz5KSzPryIUPMyCQRERERkbNRqCMikqhKS02JR3Wg4rpm93ZycjDXO3ECTp+OvV5WlvlIkPThzBmYPRs2bfKfDRoE998PeXnBBjrhsFla9sQTsHmz/3zcOPPRsmVw9yAiIiIiTYNCHRGRRPVN7VdBKCyE4uKaa0ej0KwZZGaaKp4E8Nxz9bddtWwJkyfDDTcE33ZlWTBnjqnUqXutrl3NfXTvHtw9iIiIiEjTkRg/hYuIyKVX3/r0BGq92rXLrDCvr+3qrrtg9GhT5BRklY7jwKpVJlw6fDj2LCnJBDqDB5v2LBERERGRc1GoIyIiTV5lJTz5JKxb5z/r398MJc7PD77tqrgYFi2CrVv957fcYrZd5eQEdw8iIiIi0rQo1BERSVT1DS6ORhOmcuZiWrQIXnnFrDKvrVkzmD4devc2RUdBqe6Ue/FFM8+nsjL2/Kor4buPQa9ewd2DiIiIiDQ9CnVERBJRWZnp3ykrM+GO55menSuuMDNugnC2ECnINCQOPv4YliyBTz6Jfdyy4L77YNQo03YV5JcRCpn7ePpp/31AJQNH7qfztUX1faqIiIiIyFkp1BERSUSVlXDqlPmzOmixbbOJKiUlvteyrLNfLzsbUlPje704qt52tWGDv4Cpd2944IHg265CIZO9zZxp7qOu3Jw3eP3FSfzrk79l577D/ieIiIiIiJyFQh0RkURkWfUPLg6i/cq2TSpx6BCUl8dWBuXlmSCpkXr2WbPt6tSp2MfT0+HRR808naALjWwbli6F1183IVNtubnwf/6xJ3897Rref20Va9Z9yOlKtc+JiIiISMMo1BERkXP7phCpkbZfbd8OCxfC7t3+s8mTYcwYM7w4yNsPh2HbNli8GD79NPbMsuDuu2HE2DaMGPYd2qYlUXSwkIrSSHA3JCIiIiJNikIdEZGmwvNqPi5zp0/DggXwzjv+b0f//nD//dCuXbCBTnWB09y55j7qGjDA3EenTnC44ACloWQy2rYinBoO7qZEREREpElRqCMikohc13zUTixsu/5qmsvQSy+ZbVcnT8Y+np0N06ZBv34138KgOI4Z0E3OwKcAACAASURBVFzf1q3sbPje9+DGG+HwFxtZ9MLzZOZfSf9eV5OuTEdEREREGkihjohIIjpwAI4cMamEZUEkAi1amO1XSUnBzNWxa71lWJa5dpAThi/Q7t0wb57ZNlXXgw/C2LFmHFA0Gkz+5Xmm7WrrVhPqfPaZ/zlTp8KIEXD8wAf84m9/znsHm/HQ5KnccE0HFMmJiIiISEMp1BERSUSRiD9Qqa7UCcKRI3D8eE1pSyRiyk1yckyI1EiUl8MTT8C6df6zgQNNu1NeXk0WFoRQCIqLzfry997z52uDBsPd94B7ch1//f/9iHV7w/ztz/6B8Tf1IVnvyiIiIiJyHkKX+gZEROQCWJY/lQhynk5xsekhcl0THEWjZpV5enpwQdIFWL4cXnvN3+7UooUZjty7d/AjhxzHtH+tXAlFRbFn2dnwF9+H5tbz/PB//DOFSVfyb7/9e0b070FIgY6IiIiInCeFOiIicm7V7VfVQZJlNbqhzLt3m+qYnTv9Z3feabZdJScH23aVlAQffQTz59e/deu7j0P3K1byf3/9O9I738ovfvx9el3dJv43IyIiIiKXBYU6IiKS8CIRmDUL1q/3n/XuDRMnQocO5nlBztEpLTX3Ud+2q++MgNvHfMmKZX/gT+t20HtQa+b84V+IRiK4nkvEcxh8xwRuGT6E1mkp8b9JEREREWlyFOqIiDQVjahq5mJ7+20T6BQXxz6elQXf/a5ZYx7kTOfqQqZnn4XXX/e3f+XkmOHIXToXsj6nM8OGO5RXnmFndVmR51Lpheh67ASVjXD4tIiIiIg0Tgp1REQSTSQCBw/C6dOxG6natYNmzYK5ZvWq9NrBUTTaKIKkI0fMcOT6qmMeeABGjjRtUUFmJaGQ2ba1cCF88on//N57YegQaNuhLz/5ed/gbkRERERELisayygikmg8D8rK/ClFSorpAYonyzLXKSw0q6WqQyTLMuUnGRnxvd4FeOopeOutmsVc1fr0MaFOfn6wgY7jmG/NrFmwcaP/vHrrVqdOwd2DiIiIiFyeFOqIiCSi+gbDuG4wlTORCBw7FhvqALRsabZfXUKrV8Pzz8OhQ7GPp6TAtGkwYEDwxUS2DUuWwKuvmuKp2po3h0cfNe1fIiIiIiLxplBHRETOrXpted32q7rlMRdRYSHMmQPvv+8/GzUKbrzRtEUFVaVTPRx5+3ZYuhQ++8z/nIceMu1fKZp7LCIiIiIBUKgjIpJoLCt2vXi1oCp1GqlZs0ylTiQS+3iHDqY6pkeP4OfolJSYYGnTJv+3fsAAuOcecz8iIiIiIkFQqCMikmgqKsxHdZWM55lKmpSUmoqaJu6112DFCn/bVSgEjzwCgwYFfw+OAy+8YO6l7tatzEx47DFTLSQiIiIiEhSFOiIiiebQISgoMCUqtm3KUbKyzPar1NT4V+vUN78HLllV0IEDMH8+fPih/+y22+D22yE7O/i2q23b4OmnYc8e/3OmT4fRo83WLRERERGRoCjUERFJNJ538QIV2zY7ww8fNiGSZZk/q0OkizwoORKBxYvhzTdNsVJtHTrAww9Dt27Btl2Fw2Yg8vz58O67/v8phgyBu+823x4RERERkSAp1BERSTSWdfbqmSCUl5sP1625bjh8Sdq93nwTli831Tp1TZsGw4ebkCWo+c3V44xefBFWroSiotjzli1h6lTo2/fi/k8kIiIiIpcnhToiIvLNqocy104pLsFQ5kOH4KmnYMsW/9ndd8Odd5oCotrZU7yFQrBjByxYALt2+c8feMBsu0pNDeb6IiIiIiK1KdQREWkKLmZL1iUQjZp2p7VrobIy9qxrV7M6/Kqrgt92VV4OTz4J69f7zwcPNqFOx47B3YOIiIiISG0KdUREEk006u8vchxTUdNEvfUWPPecmQ9dW3KyCXQGDzbVOUG1XYH59i5bBq+/DmfOxJ61aGHm+dxwQ3DXFxERERGpq+n+G4CISFO1fz+cOlXTY+S6kJdnBroEob4ZPhex/aqwEGbOhM2b/Wdjx8L48dCsWbBtV+EwfPwxLFoEn3wSe2ZZcN99MGrURZ8bLSIiIiKXOYU6IiKJxnX9JSnVc2+CuNahQ1BSEhsitWljBthcBLNmwRtv+L/kTp1gyhS49trgK3QqKmDOHNi40X/ety/cfz907hzcPYiIiIiI1EehjohIIqob4ARZNVNSErs/3PMgI8NsvwrYn/9s2q4OH459PCnJbJkaOjT4tivHgSVL4E9/Mt+K2jIz4fHHYdCg4K4vIiIiInI2CnVEROSb1VcFdBHarwoKYN482LrVfzZmDIwbB9nZwbVdeZ5pu9q2DRYvhk8/9T9nyhQYMcKETCIiIiIiF5tCHRGRRFN3ILLnXZIV40FyXbPtavXq2CIhgPx8eOQR6Nkz2AqdUAiKi8368nff9X97Bw6Ee++FDh2CuwcRERERkW+iUEdEJJGUlZkeoOrylOpykqws82cQ6iuDCXiF+qpVsGKFGedT1/Tppu0q6C3ujmNarlauhKKi2LPMTHMf/fsHd30RERERkXNRqCMikkiOHTN9SRUVpmLHdc1sm7ZtzZybeHNds0K9dnpiWYGuUD9wwFTHfPih/2zCBLPtKivL3FYQqnOyHTtMtdCuXf7nTJ1qNm9dhLFCIiIiIiJnpVBHRCSR2LYJVC7GjBvHgePHTcpSWWn+ORqFtDTo2NEMtImzaBSWLjXbrsrLY886doRJk6Bbt2DbrsJhUxA1axZs2uQ/HzLErDDPzw/uHkREREREGkKhjoiInF00CpFIbGB0tmApDt5+G5Yvh/37Yx8Ph2HaNBg+3NxKUFU6lmW+vBUr4LXXzEyd2lq1gsmT4YYbgrm+iIiIiMj5UKgjIiJnZ1lnn6kTZ0eOwMyZsHmz/2zcuJq2q6C2XYEZjrxzJzz9NOze7T+/+24YNQrS04O5voiIiIjI+VCoIyKSSL5pvXiCb7+aM8e0XdWtwuna1bRdXX11sG1Xtm1GFc2aBRs3+s/794cHH4TOnYO7BxERERGR86FQR0QkkZSWxu749jxIToakpJptWPFUX6VOAOHR6tXw3HP+bVfJyTBxIgwebG4jyFDHccw8n1deMQvGamvWDGbM0LYrEREREWlcFOqIiCSSAwfg5Mmaf45GoXVraNkymJ6k+iqA4nydY8dMlc777/vPRo82bVfNmwfXdlW97erjj2HJEvj0U/9zJk4095KaGv/ri4iIiIhcKIU6IiJydvv3w4kTNf8ciUBuLrRoEbeEZdYsU6kTicQ+3qGDqY7p2TPYCp1QCM6cgblzzbaruhlWv35w771m+5aIiIiISGOiUEdERM6uosI/5CYpyZS2xCHUef11s2mqbttVKGS2XQ0eHPy4IMeB55+HV1+FU6diz9LT4dFH4cYbg7u+iIiIiMiFUqgjIiJnd7bNV3FIWQ4cgPnzYetW/9mtt8Idd0B2dnDry6vbrj76CBYuhE8+8T9n2jQYM8bM9hERERERaWwU6oiIJJLq7Ve1Q5VoNOE2X0WjZn7NG2/Ezn0GyM+HKVOge/fgAh0w1UCnT5tgafNm/7fwxhtN21V+fnD3ICIiIiLybSjUERFJFGVlZr5NRYUJdzzPJBMtW0JaWjDXrLtC3fPiEiK99RYsX26qdeqaNg2GDTOXCHrb1csvm7ar2rOnwYwMmjYN+vYNZjiziIiIiEg8KNQREUkUpaVQWAiVlbGhTk6OGf4Sb9GoCZJql8s4jgmQwuELftnDh+Gpp2DLFv/ZnXeaj+zs4LZdgbn93btNlc7Onf7z+++HUaOCy8pEREREROJBoY6ISKKwLBOq1G2/ct34l7Q4jpkavH8/lJebEMl1zZDk/HyTulyAaBQWLIC1a/1tV127wqRJcPXVwbddVVTAE0/A+vX+8xtvhAcegE6dgrsHEREREZF4UKgjIiL1s6yzD0q+QG+/bbZd1W27SkqCiRPNtivLCrbtyrZh2TKzeev06diz5s3h4YehT5/gri8iIiIiEi8KdURE5KI4dgyefNIMJa5r7FgYP96EKkG3Xe3cCYsX+7ddWZYZjDx6dDDdbCIiIiIi8aZQR0QkUdi2+ahWXdISZFlLHM2aZdqu6rZWdexotl116xZ8hU5lJcyZAxs2+AuOevc2bVddugR3DyIiIiIi8aRQR0QkUZw6ZfqFqtOIaNRM8s3ICKa0pb72K8+r+TgPq1fDc8/BoUOxjyclmXanoUODb7tyHHjmGbPxqrg49iwjAx5/3LR/iYiIiIgkCoU6IiKJ4tAhs9K8uj8pGoVmzcxKc8f51mvGfSIRf1mN45hJw+cRIh0+DHPnwgcf+M9Gj4Y77jBfRlBtV55n2q4++ggWLYI9e/zPefhhGDnShEwiIiIiIolCoY6ISKJwHNNDVJ18VG/BCqq8Zf9+OHq0Jm2JRKBVK7NC/TxWms+fbyp16m67at8eZsyA664LtkInFIKSErN1a/Nmf/bVvz/cd59pAxMRERERSSQKdUREpH71tVlVz/VpYEnNqlXw7LNQUOA/mz4dhgy5oG6u8+I48MorsHIlnDwZe5aebu6jf//gri8iIiIiEhSFOiIi0nDnkb4UFJgqna1b/Wfjx8OECZCd7e/wipfqtqudO037144d/udMmwY33wypqcHcg4iIiIhIkBTqiIgkivoqZKLRYMtcLlA0CkuWwBtvQHl57Fl+Pjz0UPDbrsJhc+3Zs2HTJv/5jTeaFeb5+cHdg4iIiIhIkBTqiIgkgooKMyi5tNSEO55nAp62bSErK5hrVodItUOjBq5QX78eli+HfftiH3ccUx1z003mZYOq0rEsc/vPPw+vvebfdtWihRmO3Lt3MMOZRUREREQuBoU6IiKJIBo1yURlZU0KYdumfyklJf7Xi0RqrmdXvVVYlrneOXqVCgth5kwzlLiuceNq2q6C2nYFZjjy7t2m/WvnTv/53XebzVsZGcFcX0RERETkYlCoIyKSKOqrnAmi/cq2YyuDqq9p26YyKDv7Gz997lzTdhWJxD7epQtMmgRXXx1s25Vtmyxq1izYuNF/3rcvPPiguR8RERERkUSmUEdERPyq+5fsOm8T52i/euMNWLECDh6MfTwpyQQpQ4aYlwwy1HEceOYZs/GqbttVdrZZoz5gQHDXFxERERG5WBTqiIgkAsvy9yoFvQv8PJ04AU89Be++6z8bNcq0XbVoEVzbVe1tV0uWwJ49/uc88IBpu0pLi//1RUREREQuNoU6IiKJoLpCpnaIY9umLKWRTPqdNQtWrfK3XeXnm+qYnj2DrdAJhUy32Jw5pu2q7rX69IH774fOnYO7BxERERGRi0mhjohIIjhwAAoKzAwd2zZ/NmsGeXmQnBz/ip3q9qva6guWqvz5z2bbVUFB7OOhkNl2NWSI+ecgC4scB154AV59FYqKYs/S0uCxx8wacxERERGRpkKhjohIIohGYwOV6sHFoVAwlTplZeajenW655nBOKmpJj2ppaAAFiyADz/0v8zYsXD77SZ/Cmp9eXXb1Y4dsHAhfPKJ/zlTp8KYMcEsChMRERERuVQU6oiIJIKzBTdBlL5Yltl8deSI6aWyrJrKoDZtYlaau66ZX7N2LZSXx75Mu3YmTOnZM7hAB2rarubPh02b/G1XAwbAvfdChw7B3YOIiIiIyKWgUEdERPyq16fXDpPqCZDeeguWLYP9+/0vMW0aDB9+1k+NG8eBl182265Onow9a9bM3Ee/fo1m9JCIiIiISNwo1BERSVSXePPVkSNmKPGWLf6z8ePhrruCbbsC03a1Zw/Mm2far+q6/36z7So9Pbh7EBERERG5VBTqiIjIeXNdM79mzRp/21XnzjBpElxzTfBtV5WVMHMmrF/vPx8wAB58UNuuRERERKTpUqgjItLYua7ZflVSEruRKi/PlMIEUbFT3X5V9z6qBtasXw/PPutvu0pKgocegqFDzacHucLcts09rFxpvjW1NWsGDz9s1piLiIiIiDRVCnVERBJBeXnN0OJqKSmm/yjeXBcKC8304drXa9kSMjI4ccJUx2za5P/U0aNN61Xz5uZlgppjEw7Drl2mWmj3bv/5PfeYbVcZGcFcX0RERESkMVCoIyKSCOoOLYbYFefxvE40CsePm5Xm1df0PMhpARnpzJpl2q7qtlZ16ABTpkD37sFW6FiWybfmzoUNG/zfghtuMG1XXbsGdw8iIiIiIo2BQh0REfFzHH+IlOLyxnsuz70IBQWxR+EwTJ4Mw4YF33YVCsEzz8BLL8GpU7Fn6enw+OMwaFBw1xcRERERaSxCl/oGRETkHCwrdpYOmPKUICp1ziYMh/bCUy/Clvf9x6NG1bRdRaPBtF15npnZs2MHLF5stl7VNWkSjBxpOtNERERERJo6hToiIo1dRYWZqVMd4HieqaRJSTF/XgzJsGIFvP0WlJfGHuXlwSOPwPXXB7/t6swZWLAA3nnHXw3Up49ZYa5tVyIiIiJyuVD7lYhIY3fkCBw8aPZ327ZJTjIyoF07SEuLf7WObdez/crDtqJY+K81fbppu/K8YAuHHAdeeQVefRVOnIg9S0szwdLAgcFdX0RERESksVGoIyIisU6fNsNqqstuLJfS8mT2nWzOqfLYvqZx42DCBLNCPKgqHc8zM3t27zbDkT/+2P+cKVPg5pshNTWYexARERERaYwU6oiISA3bNmUwR4/WVAbZLifPpLHzcC7HStO+fmr79mY4ctDbrsJhs4hr1izYuNF/PnCgabvq2DG4exARERERaYwU6oiISKx62q9sy8O2PKhqv3IcmDoVbrrJnAdVpVM9I/qFF2DlSv+2qxYt4OGHzTydIIYzi4iIiIg0Zgp1REQSQd3E4mJtvTqLW2+tabty3eAClVAIPvnEDEfeudN/fuedMHq0GTEkIiIiInK5UagjItLYRaP+/ibHuWSlKZ06mdXh11wTbNuVbZsOsFmzYMMG/3nv3jBxInTtGtw9iIiIiIg0Zgp1REQau337zJyb6hAnGoW2baFVq2CCHd/mKwjZLrblEQrD/Q/A0KEmVwoy1AmFYPlys/GquDj2LCsLZsyAAQOCu76IiIiISGOnUEdEpLGLRv3tVvUEL/HhweFDJkWpfn3bY+vhXPYWZTNyhMVdd0LLlsG1XVVvu9q5ExYvNu1Xdd1/P4wZA+np8b++iIiIiEiiUKgjItLYXeQ2K/dUMV55ec0DtstnR9Nx05KZMh2uvz7YCh3HgdJSmDPHtF3VvVavXibU6dIluHsQEREREUkECnVERMRw4LVVFiteCHGoyIZQ1eMRaJbuMmOGx6DB5qEg5zSHQmbb1SuvQFFR7FlKCnz3uzB4cHDXFxERERFJFKFzP0VERC4py/JX69TXkvVtOFBwyGLBfOi4DwYNxMT+UaAMhg2C8K2Q3hqikfhdtjbPg6Qk2LEDFi6sv+1q2jQYO9aEOyIiIiIilztV6oiINGbl5VBSApGICXY8z/QnZWWZBCQeLHA9WLrU5q03zdtCyAGqMyMX2rT2yMryAq/QKS0168vfecffdtWvH9x3H3TsGNw9iIiIiIgkEoU6IiKNWVERHDoEFRU1oU5yMlxxBWRkxOcaNqx722LZMjhwwP1609XXLIuI5xDxbALMdHAc03L1yitm2Vdt2dkwfboJdi7RJncRERERkUZHoY6ISGNm2/VvunLd+LRfOVBYCHPn2mzZYtO5+Qn6tNtHi+RycG1wXbyUFNz8jpDeDCuAAcnV26727IG5c+Hjj/3PeeABbbsSEREREalLoY6IyOXKMtnQwoUWq9dYlJVDyPYIO1FfpQ6OE1iJTDgMlZXw5JOwfr3/vH9/E+p06hTI5UVEREREEpZCHRGRy5UNGzdaLH/WZu8+E9i4HnhePeFNgMN0bBtWrICVK6G4OPasWTOYMgX69lXblYiIiIhIXQp1REQaM8syqUdtnuefIny+HDh5AmbOtNn0zqV7KwiHzZarhQth1y7/+d13w+jR8RsfJCIiIiLSlCjUERFpzMrKzJDk6kqZ6r3fyck1g5PPV1XFy+y5FmvWWkRqryj3rJonfP1YMFU6tm2Wes2ZAxs2+C9zww0wcSJceWUglxcRERERSXgKdUREGrMDB+D4cfPfLcukIDk55qNuBU9D2fDWmxYrnrU5cDA2wPGq/hMjoL4nx4Fly+Cll8ySr9rS0+Hxx2HQoEAuLSIiIiLSJCjUERFp7OqGKp534dUzDhw7DnPm2by/xf8WMLTjfq7MOV5VrGNBNILbqjVubiu8kEO8dpqHw7BzJyxebNqv6po0CUaOhJSU+FxPRERERKQpUqgjInKZmT/fYtUqi/Ly2MevyIfbbimnS9tKqKzV7hUOm484VexUb2h/9lnYvNk/Hqh3b7jvPujcOS6XExERERFpshTqiIhcLhx4402LZcts9h/wBzSPzoBhoy1sB6gdtHybyqD6bsOBtWvNtqtjx2LPUlPhkUdg4MC4XU5EREREpMkKXeobEBGRb1Df3Jxo9PxDFgcOH4b58222fuh/zdtvc7njVotWUaDywm61IUIhKCyEuXNhyxb/+ZQpcMstkJYW3D2IiIiIiDQVqtQREWmsKirgxAnzZ3Xrk+NAq1ZmknBDWabFadkyizVrLEpLY4/btfN4+GGX667zqq5Tp4rHdeNSqVO9nX3+fFizBirrhEcDBsD990PHjt/6UiIiIiIilwWFOiIijVVZmSlrqagwaYjnmVAnJ+f8Qh0bNm2yeOYZm6/2xgY2lgXTp7kM/w6EbNdcMxqtCZEsGy81DS8U/tZfTigEq1fD8uVQUBB7Zllw991mnk5Ay7ZERERERJochToiIo2VbZsQp27KEY36pwufjWM2oj8x02bT5vrbriZM8MjJsaHktFmhXlpaEyKFQnh57SCrGVYDL1mfcNgEOfPnw7Zt/vPx42H0aMjKuvBriIiIiIhcbhTqiIg0VVWdVPOftln7huVrd+rUwWPSJJfu3Tyzqtyyaj5q8/hW7VeWZXKoZ56BN9/Et3WrXTuYPBmuu+6CLyEiIiIicllSqCMi0lTZsH4dPLvcYv/+2KAmHIaJEz2GDvNICmGCm4CEQrBhg1lhvn+//3zGDBg+vP6Z0CIiIiIicnb6EVpEpLGy7dikw6qaeNyQwcUOnCqC2bNtNr/rH1IzcoTL+Dtd2uQQWKDjeSY8KiyE2bPh/ff9z7nrLpgwAVq2DOYeRERERESaMoU6IiKN1alTUFJSE+BEo5CaCpmZZtbO2VRlOLPn2Px5lU1FRWyok5fnMWOGS+9eXmygU9+EYs+74NYrxzGfumABrF1r5j3X1qULPPQQdOt2QS8vIiIiInLZU6gjItJYHT5sphxXb6OKRiE726w0D4XOHrbY8MabFsuWW+w/EBvUOA7MmOYybKiHUzfDiUTMNapft3rbVjh0QSupHAfWrYMVK+DgwdizpCSYNAmGDDHVPCIiIiIicv4U6oiINFaOY9qvvl4vbp27csaBI0dg3jyLDz7wBzFjR7vcfodLTiv8bVcHDphPdt2qECmC27wF0Sva4CUln1ebVjhs8qg//hHee89/PmYM3HEHtG7d8NcUEREREZFYCnVERJqKqsxn6VKbNWttyspiQ522bT2mT3e54QbqD2jqC4wsOzZYashtVC3QmjsX3njDFADVlp8P06bB9dc3+CVFRERERKQeCnVERJoKG9a9bbF0qcXevf4Q5tFHXIbf5Jm/+BtadVMd9JxHlU4oBGvWmG1XBQWxZ+EwTJ8OQ4d+81ggERERERE5N4U6IiKNVX0VMtGoaY+qywI3Cq+8avHRDn+gc/s4l/F3erRqQaDry8NhOHoU5s+HDz/0n48ZA+PGQU5OcPcgIiIiInK5UKgjItIYRSJmUPKZM7Frzdu2NcOS67Jh8RKLF160KSqKDXU6dPCYPNmlZ49zVNxUh0i1W7DcKLgNS4GqP3XRIrPtqrw89jwvD2bMgD59GvRyIiIiIiJyDgp1REQaI9c1K80rK2MHJWdmQkpK7HMd2LEDFi222f1JbKATCsGkh1yGDfMI25w91HFdKC421/s6RLLwsrIhNeUsnxQrFIK33oJly8zM5boeewyGDWvQS4mIiIiISAMo1BERaYwsqyZciamccWPbryxTzDNvvs3GjZavM2vsaJc77/TIzeHsgY5lmTDn0CEoLa25rgVublsT7HzDnGTPM21XR46cve1qwgSz7apFi3N94SIiIiIi0lAKdUREEpkNL71s8adXLE6cjE1eUlPglps9rr2mgYOO6wuRzjbDp86nuS4sXWrarsrKYs87doRJk6BHjwbcg4iIiIiINJhCHRGRROXA7l2wYIHNjh3+v86nTXW57XaXtBQCHY4cCsGGDabtat++2LNw2KwvHz7cPE9EREREROJHoY6ISGNk22bnd+3tV55nKmc8D0JwpgyemmuzfoMVU1wDMLC/y733uXTIJ/BtV8ePw8yZsHmz//zWW03bVatWwd2DiIiIiMjlSqGOiEhjdPw4HDtmQhzLMv1NaWlmF3hKCnjw0gsWf/qTxck6bVfNm3lMneLRr5+H1dBAx7b9K9Q9z1z3LK9hWeZj3jx4801zq7V16gSTJ0P37g3/skVEREREpOEU6oiINEYnT5qPSKQm1ElNNZOGU8J8+gnMn2/zcT1tV/fc7TJqjEv6+bRdlZWZIcmuW7ObPBw2QZLj1Ps61duuVqyAgoLYs3AYHnoIhgwx/11EREREROJPoY6ISGPkOP72K9cFzyVa6THzSZu31/v/Cu/bx+PBhzy6dKLhgY5tm9VVhw/XrFCPRnEzsnCvuAKS07HqzEoOhUwx0Zw5sGWL/yVHjYLx4yE3t8FfsYiIiIiInCeFOiIiicIC8Fj6jM2fXrUoLo49zs42w5H79W3gtqvaqluv6rZf1fM61dvW58+H1auhoiL2PC8PHnsM+vQ5z3sQEREREZHzolBHRCQReEAq7P7CADugmQAAIABJREFUYtFii127LN9T7r3HZcxYl4xUAhuO7HmmSmfNGrPt6uDB2HPLgkcfNW1Xlv8WRUREREQkjhTqiIgkAgdKz8CsP1qsW+ffdtWrl8sDD7p07Uyg266SkkyX1tNPw7Zt/vNx4+D227XtSkRERETkYlCoIyLSGB04AEVFNeUuKS4vbM7j1bebU1QU+9S0NPjeYy6DB11A21W1upuvwMzwcWuG6VTPa162DNauNbOVa8vLgylT4PrrL/AeRERERETkvCjUERFpjMrL6+wI9yiuTKYsEvI9dcpDLmPGeKSEubBQx/OgsBDOnKkJdjwPr0VLvKwMvKqHQiHYsAGeeQb27fO/zCOPwPDhZr6ziIiIiIgET6GOiEhjVHdoMeDYHrYVm9r06e1y7/0unTpy4VU6nmdWWZWW1nrMxWvWHC8jHTBryY8fh6eegvff97/EhAlw551quxIRERERuZgU6oiIJKjMDJgx3WXAwG/RdlXNcUwLVm2uC56H45jcZ8ECMyC57rarTp1g0iTo3v1b3oOIiIiIiJwXfx2/iIhcevWsjnIsF6tWpc6kiS5jb/ZISybQ4chOCNa/CStWmFE/tYXD8NBDZttVOBzcPYiIiDRVbmUpp4pPE8EhMyOD5CS9oYpIw6lSR0SksamsNOUwrlsV7nhEXJuishTKq2bqDBjgcv+DLp06EGigEwZOFMKsWbB5s/989GjTepWbG9w9iIiINE0eO997hb+YeifX9ejGNdd2565Hf8RbH35CxD33Z4uIgEIdEZHGp7DQlMRUVpqWKNul+HQ6m/fms/9UFs2bw8OTXXr3jlOaY1n+1ivPw3Kj2J7LvLmm7SoSiX1K+/YwbZq2XYmIiFyIL7ev4md/9wte/6CYqX/5c/7jl3+Du2cD//sffsObH+xBuY6INITar0REEoRXNTrnrgkuY0Z7ZKbx7at0LMtsvSoqMtu2qveWh5Nw2rdg9bZUlj8HBw/GflooZAKdYcPMfxcREZHz4Jaw+tWX+KwoiZ/8/OdMvnMkqWHo0b4Vf/WL37Ny1Vqu6dKOvGapl/pORaSRU6WOiEhjEwbqrAW3LIi40OM6eGCiS9cuxKftyrZNoHP0aE1lkOtBViqHIm2ZvyCdrfVsuxozBu64A1q3jsM9iIiIXG7KSji+7whtO3Wha9crSK0ao3NVz2vo2i6dL/d/yeETRZf2HkUkIej3qyIijcyObdB8H7StDm0sKCuDjDT4wXSXQTcS3zk6tm0+qocz2xDBY9GCCGv+7FFeHju0uW1bmDEDeveO4z2INClRCvZ9xf6DR3DSm9GpQ3uaZ6Zf6psSkcYkHMbJTKVsfzkVZTVrJctOnab0TBknj0YpKwlwaJ6INBmq1BERaUTe3wYzZ1t89BmmYgcgCmHHY+qkCGPHuKQlx2GF+TcJQckxeH8THCzwHz/2GAwdWu+CLpHLXqSskKVP/Iw7bv4OI0aOZtjQIdw37a9Yu3k3ldFLfXci0miEm9OzZy+KP9/GgoUvsv2zwxQd/oKn5i3ijXd34+Jg641WRBpAoY6ISCNx5gzMnwfvrIvi4db8DR2Blq0cho62ye9IsIFOFcsC2/EHN7ffbtquWrUK/h5EEo4XYdWS2fzb75fTZfQ0XnpzA4uf/BXlX63nP/4wl+2f1pOSishlymbkbffz6P0j2fzCfzBi4HX06j+alzbv54p2HcnOTsJzVKkjIuem9isRkUbi5Zdhzesw+oq9dGtzvOYgGoHWuZCVA65N3FOd6varWhzLJWR51M508vNh8mTo2TO+lxdpKtzIcT4tOML1Yx5gxoxpDOzeAfpcw96t77Js6w72H9nPDVe3Rb97FxEAO6sNM/7ut/Qbew/vvb+dpMzO9L8mi//67S85nhklNV2/fxeRc1OoIyLSCOzeDfPnw8cfw603ujhWneDGcfxrx+OloABOnqx1rSgfHs3h85PNiXrW15efOhVuugnC4bO8jshlzg634i/+9t8Aqyq4qWT3tjVs3v05HfIH0qF1ngIdEani8eaLi3n1na+4/c4JPPLY9wH48M9Ps+Oz4/Tp0Znc7GaX+B5FJBEo1BERucRKS2HuXNi40awtdzF/xvC8eh6Mk5ISKC+v+WfL4/CZNE6WJ1Ndq3PLLTB+POTkBHMLIk2D/XVo89nHa/nNr/6NpS+8QfNrhvOfPxjP9VdfcUnvTkQaE4tMp4J3V87l8xPFpGY9TvOyz/n9H2ZRkpnH8KG9yc1OvtQ3KSIJQKGOiMgl9vLL8Kc/wfHj535uIGpvvqoStr2vq4U6dDBtVz16XIqbE0lMGc1yGT56Ann51/LmWxt4ct5iWrZqwcAenVWtIyIA9B4xnsc/3cM//f9zGbV0JkQryLlyID/+h79kcO+eGn4qIg2iUEdE5BL67DOYNw+2b695LOrauF6df+1z3eAqdb5BOAyTJsGwYZCUdNEvL5KwcvO68eDD3QAY+fx/8zf/ZxbPvXI9Hdq344ps/Z9JRIDU5tzzP35Gj5Hj+ejjT/GSmtG/fx/a5+Uq0BGRBlOoIyJyibguPPkkvP12zWNp4UpyM0pIC0fMPGTPM5U0WVmQHFAZtg1nKx0YMcK0XbVpE8ylRZoU18X1PLBsbLvm/1Rdr+/FFVe04tDhEk4WRxTqiEgtSVzToz/X9Oh/qW9ERBKUQmARkUvkmWdM29WpUzWP5aaX0L3tIVokl5tNV55nSmTatoXMzLjfgweUV9hEohZfb9WyPSLlUTKauUyZDn36xP2yIk1SZeFn/PJH05nx43/ivT0Hv378q52fcPhoEblt0sjO1O/TREREJH70k4WIyCWwZw8sWgQ7dsQ+Xl5pEam04WK0XzkWH75TSmRtIVeVV5CVYtalV54Js/toGyY8lMmwYcEt3RJpakIt8unUKY9Fv59HSUkJj066C6twN//+23+nKLUTNw3qRZssVemIiIhI/CjUERG5yCoqYPZs03ZVN6dp1QoysjHtUEGO0HFgf4HNs4sqGFp0ksxOEUzxpktleYjrhrSg0x2p5KntSqTBrFAy98z4IZW2x++fWMQ9i/6biBXi+iGj+Pnf/zUjBl6HoynJIiIiEkcKdURELrIVK8zGq5MnYx9PzYDHvgc3tgH28s2hjmWDU721yoNItOGVPJZ56tJnYMXzNj36OVgOX+9TT0uDW2+PQnfzeoX79rBwzmyeW7mWk+UWA74zlkcfnUKvqzvrTUSkjuSMNkz94S+57d6/4NDho7hJGeS3u4LmWemX+tZE5GJwnJoSV8eBUMj8aSnRFZFg6OdxEZGLaOdOWLgQdu3ynz34EIy5wyb9Iwui1Awvrm698jywq34w9Co5UVhISfFpUtOzyWqeTVLIaViblg2bNli8sAJKiiE1tZ7nlFkQgaLCj/jlP/wNy9d+yuDhN9Evs4KVzz3Fx3s+559//ncMu+FaDWcT8bHIaduOnLbtLvWNiMhFVnrqJEWnSqj0wCoowDt+HKu4hBaZmaSFQuYXMiIicaRQR0TkIikthaefho0bIRqNPevVCx68Fzo3L8U9XYHteVXhjQcpKWbzleMAEba8tZK58+bx2rr3OVp4ivTMFgwafTs/+MFjDOx5JWG8s1f5OHDsOPxxts3md21ap9TzHM+j+gU+Wv8WW3Yd5dEf/4zvT7uXlukhxiz9Hf/735ay5u2ddL/yanIy9AOqiIhc7ixw4K0XFvLL//tfbN93BCfk4FoWjmXTOqsZE7pcw7SWuXTRsDoRiSOFOiIiF8mrr5q2q2PHYh9PT4fp02HgALB2HYDCQhOsWJZJf1q2hNatIeTxyoL/4Kf/OhM7tzuP/80/07NLO47seY+nZj/FD3/0Bb/4+c+4dVBPQrj+G6jKiBYutFi92qK8HKz6Qh3L+rpMPDlk4Vhghxzsqh9Ck5xkQqEQdsh0gYmIiIhRerqE9NZd+fHUv+TG5knYWz+k7MQx3vryExa9u579LVvztyNHcfWlvlERaTIU6oiIXASffQZPPQXbtvnPHn4Yxo2DjAwgyQLHqqm08YCQBw589d4qZs9fTo+x9/KTH/2Qa9u3Nc8ZPpwxQ67hRz/5KatWv0iPq/PpnJtFfeU672ywePZZm737TGgzsN0+OuccBduFaAgiEcjLhbY5kBSm763jmbjrExY8/QcO79lMx0x4/fUNXNlnBHeN7kerNKU6IiKSIMLELiLwMP82ZHPh/1YUhdq/R/E8l/Ts1lzfqy835abA6dNwsjVjrrqSLumr+M9t23jtoy/Iu7IrGUl6DxWRb0+hjohIwCoqYOZMWLfOf9atG/TpA0VF8PsnoNlnMCYFcsNVT0jx+PwLh5f/HdZ+/Bbbv2zF1Vm38cRv22BFXfMDqWXheCPYW5DByf0ZHP8yhVbZdmymY5lZym+8abFzZ82wxsykClJClTXPS/L4Yn+Yl34f5vOIheXkQGlnSk+9xpO/X0Z5JEqr9mmM6nol859oQSRCzewfERGRRmxAEoxKhZza77FfWrz8O/i80j7n1kknBIMHuVx9lRmN4ziQm+eRlV3zHAsLz40Q9Vzcigrs8nIoL4PUVG65uhuv732b7dt2cnDYjVzVNiuwr1VELh8KdUREAvbCC7BypQlu6tqzB773PVMgA/BQd+g7BnJbAhEgCfZ+FWLJa6d4/0QBaaGOrH65La9ELGLTlFRgOABbtzT83qKehVv7dZJh36cuS1/z2LAfYC5JyYtx7O8TdSdjASVH/50XnplDeUVzXO82wGn4BUVERC6RSd2h1xjIiXmPhSWvwcYDDaua+e3vap4XCsF1PV1uv91j9CiLntd5hMNm+ZVvZ0HUpUVqBu3Tkvji0CFOFhWDQh0RiQOFOiIiAfr8c5g3D7Zvr/+8sjL2n23HxrJq1YZ7kJbkkhQ6TXK4HMvOxSUpuBv2IPz1co5i0rO2kuL0oaRkDJGo+VVkWdk0srJ3kJL6ASUlA6mMtA7ufkREROIkHK56f6vVfhWu2jh+ISIR2PKBzZYP4F9/DaNHu7R3LCIepCQRux3Sg6RQiAzboaL4NOVlZd/uixERqaJQR0QkQLNm1d92VZ+UUCVXtjxGy+RycKt+6nRtdhe24vDp5oCDRQUW0XO9VJy45h5wiPnR1EvF85Iwv+asZyCziIjIZaasDF56ycbGol1Xi6OHoSwbUkJUtUpDxI1S5rk4KUmEwuFzvaSISINoOpeISECWLIEXX6y/7apekQgdM4/TMqUcvKq/nl2bD/c1Z/+JdhSfbkfEPYTtHK3305OSnycp9CQWXzT4HqOujetZMZ1cleUu0YgHZHL61NWcLtuM7byNbZ0GKggnLyda+SXFJddQGWnR4GuJiIhcSpEIuC4x73mRaNVjcZKUDkf3W/zjP1g8+4zFmXKr6ncjNsXlpRwqi9CsbVuym6n1SkTiQ5U6IiIB2LULFi40fzaEZcP118EV+TYeFnhVP3W6MKB3BYX5cKKkNzt3vE2Z8y49unejRUY60Sg4YSg5+RkffjSLcEYrOncYTnqSSygMBQWw/SOLkyf904z79Czn9v4HaZd+BqJVlUGVNuXN23Pd8GbknLGxnfspO7WTHR//lP2H/9OUj6cU0L3HdNrmfAfLSzrXXEkREZFLzrOgXwvISoOvC14jZobdd26CNiXnSHYsEwpt22axd5919iDIg7Q0m71fWqx62aHfGIerWoXBg417v+ATO5O7ru9OuxyFOiISHwp1RETirKTEzNHZsAGiZ+mUchy48UYYPx6GDYbWOdCqRQoZ61Jgq1MzYTEK9z7ocm9/DxjNzF+/yX898zs6XX+Y7894gKva5XLiq4+Y+Z+/Yc+BQ3z3x99j6t2dyUp2KT3t8dOf2mzb7g90bhsHv/hFJX0OlcB7leYHXAuIWIwal86ogUlYaQBtqCj5NevWjGLD+5s4VRqla/dhjB09nPwrWmjxlYiIJI4PgdXACcy/BZVaXHOVxz//AGhf3XJ8Nubs+AmLU8UWFWWwfh28+JLNunUWhYXV74gWUAFWMZWEKS4v5eDJE6z7dA+/3vA+bfqPYni3DmRpnbmIxIlCHRGROFu/HlavhuPH6z8fMgR++AMYMwaym0NhaQF7ij7lsyOnaXFyF529UrJJB2ywyqEMqAQyWjL1Bz8lLTWHJ+YvYuSsPwAOVEbI7dSNH/yvn3LvuJFkhS3cqMfceRbPrrApKoqNXtq185g8Ca67xoK9dlWrV9WvHC2IVLpEKj0oNw9bSVkMH3cPI+645+vXqKyEstL4f+9ERESC4IUhFIGQW2v+hEXNeLgI/kyn1ki54oMWx3dbhEPQsjWk5nlcNd1j2nSXze/Y/OY3Nitfs4m4FnZoLc2b/4nVR1JZvQyinotlhRjW7mp+PLAPvVpmXpwvWkQuCwp1RETi7P334auv/I+npsJtt8Lf/T10u/4M87bM56Wdr/Lu/s0cPnHI/PCYDO2sTK6ychjktWMSN3C1lWL6syIRkrNzmfxX/8i4B6eyY9dOjhwvIatFG3pe15PWOS2qdqN7vLsZli6x+eLL2EDHsWHqZJebhkPY9WjIzGUvChUXazaziIjIpWYBNpQXwQfzLfastNm3xeLEEevrCtXW+R4tr/ToMtyj54Muf/jvKP/xO4/Zs+/i2PHrcJxShnf4ijt6fEy7rAo6ZebQJSOVtJZZ8R3iIyKXPYU6IiJx9MEHpkrnyJHYx5OS4Cc/ge9/H76seI+JS/6Vldte5UzkNFflXc1N/W+ik53Dqc9388mpT9nqHGINn/MKu/l7tws3uz1II8n0c7kuzdt2ZHBe55oLuFFTPmObwcz//d8O6zf6S7tvHusy4S6X3FwbSm2w6jRQeV5N65eIiMjlpirQ2bvB4s1f2Xy0xsYthfxrPa4d45Ld3uNMERTutPjiA4vtq20+esnmll9E+aefuXTt2pl/+ZeufLIH8tN3MPaqJLo0PwYVFpSWnb0vW0TkAinUERGJk0gEXnoJtm/3n916M4y/A17YN5tfrfoVnx39lLHdbub7/X/A0PZDyU7Pwt7zJexbDW4B252jPGltZpn1EQ+/87f8T+sQjw/4Plek5ZrQJRr1/2BY9YPovPk2a9+wTNFOLfntPSZPdunZA1NiXllpbro6xPE8M+wnFPKHPSIiIk2dBTjw7h9sVv3G5sRXFtePcxn4Fy7tBnkk155t7EHBVnjnv2zefd5m9gMhbv27KOMnRflgq8fBAptKt5xoRSmUV0A0pF+aiEggFOqIiMTJl1/CO+/A0TobxwcOhP/5vyDS+gMWvrSIM5Vn+MUt/8QjfaeRl55HJGLG19huOWFOY1vl9KQNv/VuZWRSV/6xYi3zP1hA99bduevau0iyQtQ7zNGGjestli83mzlqC4Vg4oMuw4Z7JIUALDh0CA4fNuFQKASVlbgtc3Dz8iA59esxOyIiIpcFG/att9i82LRZ3fHrKL0mu2S0wbwnVtZ6rgVte8G4/3TpOsrj9X+xWf9Hm1bXevz937gcOGQR3a1OKxEJnsaui4jEybvvmmCntqQkuPtOuPLaYuZs+SPvHdzMQ9dP5pE+j5CTkkdpBVS6dX955wEVhKOVTGg2gseum44TCfP0u0+z/ehH9VfROHDqFMyeY7P5Xf9f7SNucrnzLo+2udTkQa7vwmBb5kN7rURE5HLiQNlJeO8pm8NbbfpPc+kz1SWjFSbMqds15QERCKVAjwc8Bk11KS2Hd+bZeEdgxGiP1m0sKiou/pciIpcXVeqIiMSB68KBA2aeTW09e0KffvDKvuW8vn0Vg/KHcu8N99A6tS2Rc7XVey64pUzt8SA7Uk7y1OanePHjF8jP7kBOSnNfIDN3rs3rr1uUl8e+TJs2Ho9+16VvXy+2wKe+cMjzvnmjq4iISFNkwbaFNh+vtrhyjEv3CS6pzTn3e2LVe/kN0zwOf+SxZZFNp74eN99tseu4R8ZRVPkqIoFSpY6ISBwUFsJ770FBQezjfftC+/wIBacLOGWdYminm7gy6yq8+n7As+sZXFxZRorlMLjDYDqmd+Ro0VFKKopjn+PAunUWzyyz2LffH9Q8Ms1l2BAP20OBjYiISD2ilVByCJwS6DrEpUXX8/lkSM6CDkNcUtt7nDgMrVJhzHc8Orb2Ytu2RETiTKGOiEgceJ6ZO1y3d/7KjuCkF/LB/vfISs2mxxXXkBpOx60TrlgRF7vgENaZ02Z9ebU2bSAri75tetMhJ5/1hzfw2YnP+Lo9yoGjhWY48gdb/X+ljx3jMn6CR+vW+AOd+kIk16X+xElERKTpKt5nsfdDi8x20Lo7hJI571+E5PWDVh09Dmy0OP65RShk3mpFRIKkv2ZEROKgvBzftqlwGLAh6gEu5KS2pkVqCyzbia3EtoAoWMXFUFERG7RkZkJKCrnprclKy8K1XLzqnzItwIPlyy1Wr7Y4cyb2+rm5HtOmuPTu5flLv13X9IqVl9e5Xhakpn6L74SIiEiC8DDDKGzzyxkXSMv1SGl+YZPlMnI90rPAcjEvpgpZEbkINFNHRCQOjh2D06djH8vMhOxmZku450HEjeB6LmcdQ3zWyhmPSjdK1I1i1f5sG97ZZLFkic0XX/pfccZ0l++M9HBs/LN0olGz+erMmVrX9HBb5+JmZ+FZGpUsIiJNXNjMw3MPQEpLsycgGgHvXDPvziIaMW+vZ3+jFxGJP1XqiIjEQfv20Lx57GPHj8PRwxCp9LCAkBXCtuwL+sVd2A7h2E5VMBSFkMfxE/Dk7Pq3Xd12i9l21brVN1zMcfwhUtTV/lUREbk8hD2+3Gfx2VdQUWm6n+0QWM6FvZwTqvpFTlSdzCJy8SjUERGJg8pKf/sVgBWC5qktuKZNNyqp4GTpSSzPO++/fI+VHud02Wn6t+1Px+xOeC4sWmixepVFWVnsc/PzPR6e7NKzpzZZiYiIfJNwGFJCkNbao01Xj2ixRdkJLujfks4cg7ISaNsHmnXwoKoNW+/FIhIkhToiInGQng55eZCREfv4vv1QciqZFmktOVh4kDf2vM2RskNYTq2f8TxM61XdyhnXNZUznsdLn77Mtr3baB3OITM5g82bbJYtt/lqb2ylTSgEEx9wGTrcI8lBP0iKiIicjQWlpfD5F1BUCqnNoOBT+Hy9xZljNLyFqup5u1+y2bfNIq2NRygTDh6wOHXaggus/BERaQiFOiIicZCVBf37m2Cntpdfhg8/gBtye9GhWXte3P0cm/ZtwnUrsat+CPQc4NQJrOP/r707D5Ojvu88/qmq7rnvkebQDeIQkrgEMrIxSIANxpg4cezEhmy82STerHcT7zrPk+wTZxOcbOJNsmsn2eyzzyYOjhMfwbGDb7DBIEAYJBC6LEASWEKaSzMjaUajufqo2j++U/QcPUJHVbe69X49Tz/jOTTV/DO/8qe+xzE5mYwFO75vA4sXLdbLE1363suPaNKb1BWLL1dlul6f/7yj556f+yf89k3WdtWZb9vVdPnm9wSB1YsTBAEALgautV19418d7dolLb7RV+OKQHv/1VH3Nsc2VZ5JsONKfS9Je7/vqMKR2i8LtOs16ZvfdnR4QFaxAwAxIdQBgIisWyctWzbza4cPS489Ll3q3aYPrvsFTYyN60svfEn7jr+sioQNZZQrOaeGpaET1sMVhjo1TUo1NOjv93xRz/50i+675hd19xV360v/VKcfPGYtX9Mt6pR+5d/5uv66M0hlJift8WQ4PycIpERSQXWtDQUg2AEAXASqa6T+rkBbn3VUd32gdT8X6MSAoxe/4ur4AdlamfmCHUeSJ2UmpBcfdHV4m6MbPupr5Z2+vvtIoB0vcZgCiB/brwAgIq2tUkuLtUBNn6/z9W9I11wtfeSDv6o9fbv15e1fUu9Et35/0x/oXSvvUE2iUvKmXk5SUlLyqrR3/A392aMf07eO7dSNy67XB6/9BR3YvkQPfc3Rka6Zd5ieJ330o1lt2hQo+VZtV64rDQ5KfX32RqfecFDfoGDJEqm63taxAgBQ5sLC1S9/xdXqNYHu/be+evc42vFVV6OHpTv+wNeyjYG8ivz/vvclR0//mauXvu/oyo2B1n7A17M7HT35qKOr0jazBwDiRKgDABHp7JTuvlvauVPaty/39aNHpc9+Tlq2vF6/fetvyXNdPbztm/o3D92vO1fdpQ+s/ZCu9Rep0R+S65zUoNJ62HlZX0i9pIOnTui2lRv1R+/5XXk91+vTD7h67rm5175tk6/3vz9QR5ukMwlkHCd/+5Uf2Ed2sQIALgLB1E6Bw4cdffZ/uVrUmdXG38nK9aQXv+uo9z5Pq+/ytfoDgTquDpSskuRIpwakvd9w9eI/uRo87Oiqd/u664Gsxhqlv/oDT9tedLX6urlHLQBEjVAHACJ0zz3SY49Jr78+s1pn337pr/5a+sNPXaf//d6/1u2X3q7PPPE/9C/bHtK/bH9IqpYNUgyHKfpSa0WTfu/m39Fv3PRxaWi5Hvi/gV7cPjdwaVsofezXfK2/kW1XAACcqx07Xf3N30if+kNfP/O3WV32NUeP/4WnZ77s6bkvS1XKza7IShqT1NIR6H2fzmrdr2bVP+HoT/7E1TNbSHIAFA6hDgBEaMEC6V3vkl54Qdq/f+b3Hn1U2rVL+qMHavThj9ynDR9dr71H9+mR13+o13p2yxkYkDM5oXXuIq3LLtK1rcu1fOX9en7nMv3epwI9++P8N4m//mu+Nt42tSadUAcAgHP28Ddd7djp6E8/k9XPfdjXilsC9e9xtP+Hrk68ZudwIGnxel+L1wdadF2g+sWBfvgjR7//3zy98CIjSwEUFqEOAETs/e+X9u6VHnxQOn585vd6e6X//Enp+49Iv/Xxy/Xud1yue1e9T9q2Q3pqizQxIsmTEikdOnW5/vtfLNQ/PCodOTw30EkmpY982Nf9v5RVW/tZvskKV/Jm3ng6iawqqgOrGgIAoNwkZaU2b/EA5NAhR//h3yfjDguBAAAgAElEQVT0nW/5+o+fyOrGewJd/rOZOT8XSHrlVUdf+D1PX/2Kq+4eKnQAFB6hDgBErLlZ+sQnpAMHpG99a+73R0elh78pPfKodNVVtjXrQwuGdXPliOq8CUmeVDmpp1509bXNCR05nv8msaballj94z96ymZ05lU6jqPbFx7TO4NR1SWmfndFoF2HW/WDv65TbwU3pQCAMuNJNyWlOyqkhWcwvHj4pPTVf3b1rW+5uvoaX9deKzXW577vB9KLL0rbX3J06lT+czObnVoyybEKIEaEOgAQgyVLpE9+0m7mnnjCgpzZJiakHTvs1f5OR9fdItXVyBr1JVVWBEp48yc1wyelh752bmXe3oYTum7jmOrqpq6X9LWrt0kPPlGjfcfO6VcCAHBB+6U10rV3SgtbJc0tvMlrbFzautXV1q1nf72mJqmmSme2wAAAzhFNnwAQk1tvlb74RenjH7d156fjuSroTByvwpPrurnrBVJlwj9tiAQAQClLJqc6jwtw1H3oPunXPxFoWUcgpeK/HoCLF6EOAMSouVn64z+WHnpI+uAH7akdAAAoP44jbbjJ14N/n9H/+UtfV6+UlC72uwJQ7mi/AoCYVVZKd9xhlTtPPy19/vPS449Lg4O5n/EDR8GspvvUuK9MOp7Hib4/9aAyvKQjpVOy2TwAAJShTGbujJs3596ch5aWQOuuD3T//b7ueV+ghQunvnFEbKUEEDtCHQAokGTSwp077pAOHpSeeUbavFmaHBzWpiW9akpOSr4jyVcmVaXEokVat6leKycjviN0pauWOKpK6M35PUpLyzqzum2jr0sno70cAAAXgnULpPpq5c6+jLSgRbr5HVLTyNmftRUV0q3v9HX33b4uWSlVhvNz0pK86N43AJwOoQ4AFMEll9jrl39Z0qlJ6Tuj0itZKfCkIFAi6eq+j9XqvmsSkptVdI/6HEmT0mND0taMlHYkJ5DSCd36/hbduqFaqovoUgAAXEj2SHpM0nHZevNxR6uvCPTnvylp6XmetVnRagWgKAh1AKDYJlwp5WrOztOUL2UCe9oXVabjulL/iHSkX5pMSZ6FSKqokFo7pGoSHQBAmcrIztNprcfKyqprzjXTob0KQJER6gDAhWC+m8Jg2isqriu5nk10nC6btYAHAICLTdRnLQAUCNuvAKDYHGduwBIEBCwAAAAATotQBwCKLZ2euXojCKwtymPKIgAAAID5EeoAQLF1dUnHjlmY4zi2c7WtzV7hzJsoue7cyiDfpzoIAAAAKDGEOgBQbL4/s1JHmpp7E9Of6N5eaWjI/rfj2CydhQullhaqgwAAAIASQqgDABeCQs7UGR2VJiZyv9/3pepqqaoqviAJAAAAQOS4eweAi83p2q8AAAAAlAxCHQAotnzVMawXBwAAAPAWCHUAoJgyGWlkxD6G1TOuKzU2WjsUAAAAAMyDUAcAiml8XOrrsxk3rmvVOYmE1Nkp1dfHc8187VfZ7NxhzQAAAAAuaIQ6AFBMjmMbpwox48ZxpMlJaWDAPoYhkudJHR3xhUgAAAAAYkGoAwAXC9eVUinpxAkpnc4FSZ5n68xraor7/gAAAACcFUIdALiYzFcZRPsVAAAAUHIIdQCgmFgvDgAAAOAcEeoAQDGNj9t8mzDECQKposI2X+VbdR6HICBEAgAAAEoQoQ4AFFNPjw0u9n2r2MlmpeZmqb3dtmAVImxxnLnVQgAAAAAueIQ6AFBMhQ5Uenqk/v5ciJTJ2JDkjg6psrJw7wMAAADAeSPUAYCLSSplQc70dq9EQkomC9fuBQAAACAS3MEDwMUkX1UQM3UAAACAkkSoAwDFFG6/mh6qsF4cAAAAwBkg1AGAYslmpWPHpImJma1PCxZIdXXFe18AAAAASgKhDgAUSzYrHT9uK83DUMdxbHBxbW0818w3mJn2KwAAAKAkEeoAQLE4Ti7MmR6q+H707VeOI6XTtv1qdHRmiLR4sa1RBwAAAFBSCHUA4GLh+9LYmG2/mq6mRqqoKM57AgAAAHDOCHUA4GISDmaeLo7KIAAAAACxI9QBgGJxXcnzZoYsQWCzdphxAwAAAOAtEOoAQLGMjEgnT1qI4zhWLVNZKTU1Sclk9NcLq3TyDUoGAAAAUHIIdQCgWAYHpYEBm3EThjp1dVJ7u1RVFX3Ykk7btcLfGwQW9CSTM1eqAwAAACgJ3MUDQLHka78K59tEHei4rnT0qNTba+GO61qFUGOjtHRpfCvUAQAAAMSGUAcALhZBMDcsCtuxZrdkAQAAALjgEeoAwMUiX3DDPB0AAACgZBHqAECxzLdenKAFAAAAwBkg1AGAYunrsw1YYbATBDYkuaGhuO8LAAAAQEkg1AGAYhkZkSYnc58HgVRfL1VXx3O9fBVA+aqFAAAAAJQEQh0AKBbXnbtKPJu1Fqyo+b7U1SWdPJkLcbJZadEiqbk5+usBAAAAiB2hDgBcLNJpC3KmSyZtrToAAACAkkOoAwAXi3yry/OtOQcAAABQEgh1AKBYZrdeBYFV0hCyAAAAADgDhDoAUAwnT0qDg1ImY9Uzvi9VVUltbfYxao4zN0SSWKEOAAAAlDBCHQAohpER6cQJC3Vc14KVigqppcVCnSiDFsexLVtjYxbiOI79fs+Tamttrg4AAACAkkOoAwDF4LoWqkyfcRNX+5XrWoDU22vDkl3Xwp2aGmnpUlujDgAAAKDkEOoAwMUg35BkKZ716QAAAAAKglAHAIohX8DCbBsAAAAAZ4FQBwCKIV+Aky/oAQAAAIB5EOoAQDF0ddmcm1A2K7W3SwsW5N9Sdb7ytV/RegUAAACUNEIdACiGyUnbfBUKt1/FtYkqnbbgaPb1Eol4rgcAAAAgdoQ6AFAM8w0tjmuuzpEj0vHjuc+zWamjw1aox1EZBAAAACB23MkDAAAAAACUIEIdAAAAAACAEkSoAwDF4Lr5Bxez1hwAAADAGSLUAYBCO3VK6u2VJiYs2AmHFi9ZIjU0xHPNMEQKQ6MgsLk6bMACAAAAShahDgAUWjotjY5aqBIGLa4r1dZauBMlx7FNW8PDtm3Lde16iYQNSa6pifZ6AAAAAAqGUAcACs1xCtd+5brS2JjU3y+lUrlQJ5m07Vd1ddFeDwAAAEDBEOoAQLkLQyRpZmiUzTLDBwAAAChhhDoAUGiOM7dKJwhyLwAAAAA4A4Q6AFBomYy9pgc4nmdzblz+LAMAAAA4M/y/BwAotCNHpIEBC3UcxwKeBQuk9nYLd+KYqzN7ho/vs0IdAAAAKHGEOgBQaPnClDB4icPoqK1PD9eXB4FUVWWbr6gMAgAAAEoWd/MAUGjzzdSJS2+vdOxYrjIom5VaW+2VTMZ3XQAAAACxItQBgHJXqPXpAAAAAAqKUAcALhSELAAAAADOAqEOABRavtXl+VqyAAAAAOA0CHUAoJAmJ6XubmlszNqigsA+LlkiNTXFc82w/Wp6kBRuvwIAAABQsgh1AKCQfF9KpWYGKo4jVVRIiUS013Icu9bAgG2/CkMkx7H16Q0N0V4PAAAAQEER6gBAoc23/SrqmTqOI2Uy0tCQlE7n1pe7rtTcbCvNAQAAAJQsQh0AKGeOQ/sVAAAAUKYIdQCgkFw3VzETCgMWtl8BAAAAOAuEOgBQSBMT9gpn2wSBzdOprpY8rzDvgfAIAAAAKAuEOgBQSL290tGjNuvGcaRsVmpslBYtkiorCxO4sDodAAAAKAuEOgBQSPmGJEvxhDmOkwuRsllr+8pmbUjyokVWHQQAAACgZBHqAEA5S6Vs81U4FDkIrM0rmZw72wcAAABASeGOHgDKWbj5anp1EDN1AAAAgLJAqAMAhZRv+1U2S9ACAAAA4KwR6gBAofi+dOyYNDY2M9hpbZVqawl2AAAAAJwVQh0AKKTjx22l+fR2qJYWC3XikG8wcxAQIAEAAABlgFAHAAopnHEzne9HH7KE69J7eqRTp3LXDALbfNXUFO31AAAAABQcoQ4AlCvft1avdHpmkFRTI1VUFO99AQAAAIgEoQ4AlLP5KoPCFecAAAAAShahDgAUiutKnjczZPF9tl8BAAAAOCeEOgBQKCMj0vCwhTiSBTqVlTbfJo52qPmGJFOlAwAAAJQFQh0AKJTjx6WBAZtx47oWrtTUSB0dUnV19NU6mYxdKxQEdt2Kipkr1QEAAACUJO7qAaBQXHfujJsgsMqdqKtnXFcaHLTtV2GIlM1K9fXS8uVSQ0O01wMAAABQcIQ6AFCuwlXp0yuAHCf/8GQAAAAAJYdQBwDK1XzBzeygBwAAAEBJItQBgEKZb704AQsAAACAc0CoAwCF0tsrnTyZC3aCQGprs+1XcbRDzbf9CgAAAEBZINQBgEIZGZEmJ3Of+75UWytVVcVzPd+fO4CZeToAAABA2SDUAYBCKWT7VRBIXV3S8HDumr4vLVokNTcT7AAAAABlgFAHAMpVOj2zUicIpERC8rzivScAAAAAkSHUAYBy5eb5E8/mKwAAAKBsEOoAQKHka7/KZglZAAAAAJwTQh0AKIRTp6TBQSmVsmDH96Vk0rZf1dREf71w8xUr1AEAAICyRagDAIUwNiYdPy5lMrmgJZmUWlul6upor+U4Fh6NjVmI4zgW5LiubdtKJqO9HgAAAICiINQBgEJwXRtQnK/9avba8SiuNTQk9fbaCvUw1KmqkpYulRobo70eAAAAgKIg1AGAcpRvfo9E+xUAAABQRgh1AKBQZocsbKICAAAAcB4IdQCgUGYHOPkGGQMAAADAGSLUAYBCOHLEBiUHgQU5mYy0cKFtv/K86Ct28gVGVAUBAAAAZYVQBwAKIZWyICcUBFJFhZRIFO56yWR81wMAAABQcIQ6AFAI+Spn4hxa3N0tHTs2szKorU1asIBgBwAAACgThDoAUI7yhUXM7wEAAADKCqEOAJSjfAEOM3UAAACAskKoAwCF4Ob5cxtn+xUAAACAskeoAwBxGx+XenqkiQkLd4LA5tosWSI1NsZzTdedW62TzVqQBAAAAKAsEOoAQNwyGWl01D6GQYvrSrW1tgErSo4jpdPS0JB9DK/neVJLi1RTE+31AAAAABQNoQ4AxM1xLFQpxPYr17WKoP5+aXIyVxnkeVJHh1RfH+31AAAAABQNoQ4AlJv5QiTarwAAAICyQqgDAHGbbxMVQ5IBAAAAnAdCHQCIWyZjVTJhiBO2QyUS+QMfAAAAADgDhDoAELeuLunoUWt9chwLeJqbpc5OKZmMZ67O9LDIcezatF4BAAAAZYVQBwDilm8gsuvaKw6nTtka9fCavi9VVdm2Lc+L55oAAAAACo5QBwDi5jiFbbM6elQ6dswqghzH2r+amqQFC6JfoQ4AAACgaAh1AKDchO1X04MkBjMDAAAAZYdQBwCKgZAFAAAAwHki1AGAuOULcArdkgUAAACg7BDqAECc0mmpu1saHc0NRnYcaelS24AVB8+za0wPkqavVAcAAABQFgh1ACBuqdTcdeLJZPSbqMKhyP390sTEzBCpvV2qr4/2egAAAACKilAHAOKWr80qrpk62ax04oQFSdNXpjc3SzU10V8PAAAAQNEQ6gBAuQkrgGa3X82uFgIAAABQ0gh1ACBOjpNbMR4KAgIWAAAAAOeNUAcA4jQxIY2PW4gTDi9OJq0VKuqZOgAAAAAuKoQ6ABCno0elvj7bguU41gZVXy8tXixVV0c/V8fzctuvQr7P9isAAACgDBHqAECc5mu/imNQsuNIw8PS0JCFOI5jgU5NjdTaKlVWRns9AAAAAEVFqAMA5cJxbPPVsWO22jwMdWprLdSpqir2OwQAAAAQIUIdACgn87Vf0XoFAAAAlB1CHQCI0/RwJRRH6xUAAACAiw6hDgDEKZWau768ooLNVwAAAADOG6EOAMSpu9uGF4cVO74vdXZKLS3xXM9x5lYHURkEAAAAlCVCHQCIU75AxY3pT6/vSz090sjI3BCpqSmeawIAAAAoGkIdAIhbvsqZuIyNSen0zGvV1FjLFwAAAICyQqgDAOXEdeeGSGy/AgAAAMoSoQ4AxGl2q1UQSNksIQsAAACA80aoAwBxGRuTTp60EMdxrGImmZSam6XKymK/OwAAAAAljlAHAOJy4oR09KjNuHFdq86prpba2+1j1NU6jkNlEAAAAHARIdQBgLi4ruR5M2fcxBWyuK6tTu/vz4VIvm/h0aJFUl1dtNcDAAAAUHSEOgBQDhxnbrtXENjWq6Ym2r0AAACAMkSoAwDlwnXnbr+i/QoAAAAoW4Q6ABCX+daL+35x3g8AAACAskKoAwBx6e21OTch35cWLpRaW+cONI6C48wNkajQAQAAAMoWoQ4AxGVkRJqYyH3u+1JNjQ0vjoPvzw1x8lULAQAAACgLhDoAEJdCt191dUnHj+c+z2Skjg6ppYVgBwAAAChDhDoAUC7S6bmBUSJhL0IdAAAAoOwQ6gBAucgX3AQBc3UAAACAMkWoAwBxCduvpocqrBcHAAAAEBFCHQCIw/i4NDgopVIW7gSBtUG1t0u1tcV+dwAAAADKAKEOAMRhYkI6ccLm3EwPdVpa4tt+Nd9KcyqDAAAAgLJEqAMAcXAcyfMK037lurY+vbvbwiTXtYHJFRXSsmVSU1O01wMAAABwQSDUAYBS5zi2vnxiwkKjkOtaVVAyWbz3BgAAACA2hDoAEIf5NlHFeb187Ve+T/sVAAAAUKYIdQAgDvmClHxBDwAAAACcI0IdAIhDV5c0MGCVMo5jbVELFkgdHTYwOerqmdNV6VCpAwAAAJQlQh0AiEMqZXNuQkFgs23imm8z+3pS7npUCAEAAABliVAHAOJQ6Pk23d0zK4MyGasMamuzLVgAAAAAyg6hDgCUKyp0AAAAgLJGqAMA5YpZOgAAAEBZI9QBgDjMt9KcoAUAAABARAh1ACBqk5NSb680Pi65rgU5ristXiw1NsZzTde1IGl6aOT79gIAAABQlgh1ACBqvi+NjkrpdO5rjiPV1EQ/tDgcijw0ZBuwXDf39eZmuyYAAACAskSoAwBxcN1cwBKKY/uV41iYMzBgFULTK4Pa26WGhmivBwAAAOCCQagDAKXOcWi/AgAAAC5ChDoAELV8VToMSQYAAAAQMUIdAIhaOm2vMMQJ26ESifxbsQAAAADgHBDqAEDUenqkvj4pm7UwJ5u1ocVLlkhVVfHM1ck3vyeOGT4AAAAALhiEOgAQtTBMmR6o5AteojI2Zi/fz83VqaqS6uqsOggAAABAWSLUAYCozddiFUfVjONI/f22/Sqbtc+zWamxUVq40MIdAAAAAGWJUAcASl04mHl6mMTWKwAAAKDsEeoAQCEw2wYAAABAxAh1ACBq+QIcx2HzFQAAAIBIEeoAQJR8X+rqkkZGZg5GXrJEamqKp2JndutV+D5owQIAAADKGqEOAEQtnc4NLQ4lk5LnRX+tbNYGJY+NzbxeW5vU0BD99QAAAABcMAh1ACBq+Vqt4tp85fvS0JA0OZm7ZhDY9qvq6uivCQAAAOCCQagDAKXO82i/Ai5EQUZff/Bz+tjH/4s2b90txqUDAICoEeoAQJQcZ+YsHckqZ3yfDVjAReblH39Hf/eFL+rJbT/RqbFxQh0AABA5Qh0AiNLEhDQ+nquSCQIpkZBqauKZqQPggnSye4/+/vNf0J6Xf6q62molPG65AABA9BLFfgMAUFYGBqTeXimTsTAnk7GBxUuWSLW10VfruO7c7VdBYAOUqQwCiiMzpq88+KAOD1fpvRtvVl+2WqkM7ZAAACB6PDYCgCjNNyQ5rvarkREblJzJ2Oe+L1VVSQsWMCgZKJJnv/UP+tenX9XtP3u/Nt24Vm6QpfUKAADEglAHAEqV60rDw9KxYxbquK6FOtXVhDpAkRw/sFWf/8p3dcU73qd33/kuyZXSVOkAAICYEOoAQCmbr/0qfAEomPTJPv3t3/2tJlqv1n0/f48u66hV0nGUSCTluR43XQAAIHLM1AGAKM3XfkXAApS9577/L/rOo89qwTW3aOuWR7X7x2m99OIe9XQf13e//U1VJKu0/tpVaq7j9gsAAESDuwoAiFIqZUOKp0smbWiy4xDuAGUs7Veorb1N+17aon0vPCU/CJSenFQqndY3v/41VbSu0sqVlxHqAACAyHBXAQBR6uqywcVhtU42K3V0SK2t8VyPyiDggnH7h39dm37x16Z9ZVxf+bNP6SvPHNbHfvt39DO33yTXoQkLAABEh1AHAKKUb8vV7NAlKkEg9fTYsOTwGr5vIVJTU3zXBZCX47ryZnwlqdTEuE6OjMjP+vJcAh0AABAtQh0AiFKhg5SxMSmdzn0eBLb1qqKisO8DQB6u1t12r5wVQ1q1cqkCSUStAAAgSoQ6AFAqPM82XWUyFt44joU33qyn//mqhQAUQVLX33avrr+t2O8DQMGEZ/VsrmtndjhjDwAiQqgDAFGavV5csrk65xWyOJIbaMv3HtLmHb268973af11y/XEd76m57/5lO5uaNS6lnqCHAAAisV1pfQpff+fHtQLRyZ174c+pHXh9xJJjY0N6wsvbNX2mk59eOXV2rh4qSo9wh0A54/mbgCIyvi4zbfJZHKbrhIJqblZqqo6v9/tSIcPvKxntmxVT/8JyfF1cN8ePbNrt3pHx/M/FQQAAIXhOJKf1v5d27T5mR+rd2DIvp6s0Nj4Cf35lif1mb0H1bZkqdYuaiXQARAZKnUAICojI9LRo7bW3PMs1KmosMHFtbXz/7uwssd1TxvOVFTXqra+XolkQlJSFVV1qq2pVsJ1Z1bp5NuIBQDAxS48Y8MzMwhyFbaJM/y/RbOrb2edv5XVNaqrk5IJT0omdGrshP7nU0/oG31j+u23b9RHr7tKLdXMvQMQHUIdAIiK61qYk6/9yvfte6Gw5376zeDx49LJk7l5OW9yJC+QTpyQxk9Jg/1S1xvS0Akp6+d+LAyRkkn7XRMTsfxnAgBQkgYH7UwOwx3XlSYn7YHMW82jC8/m1laprm7mQ5hZ/y4IpEDS2OigPrtlsx7uOaX/dPNG3X/pYtW5gV0LACJCqAMAhRI+DfR9aWBA+ulP7TU+bl8/dsxCHWluMOQF0q5dUt+Q9MPvSq+0Si/skiazuUHJ4b/ZvVvasYMZOwAATOc49lAlfMiSTNp5/O1v53mgMsv0UKe+3r7medLSpdLll0vt7Vbt47qqrK5WZuyoPvvIV/X11/v0m7fcrvuuXKHa1PjMhzEAEAFCHQCIW9hWlU5Lr79ugcsbb0inTs28ifS8ecq/pyp1XEdypqqBElOVPvPdf06vCgIAAGZ2cJNvwcHpDA5K/f25z199VdqyRVq0WFqzQl4qo1P9h/SXf/qH2rf/daWdJjmuKwW+le8AQMQIdQAgKo4zdyZOuIJ83z7ppZcs1Eml7OlgRcUZ3kg6U+GNM5XhhDNz5vm3zNMBAODMnc25mUzO/Zrv28OaQ/tV8fJPdWj3Trlr367f/dhvaceTj+jzL2xVZ22N7l5QL5cjGkDECHUAICqjozbHJmx7chzr3X/mGfteGObMtwlr3n5+R3Iduc5UqOP7Vr4dNu1PF9CrDwBAXuEigekhztmem/kqe1xX8hJSJqt0Oq2Wxg796nveq4/cul4bx/r1ya89rP+3Y5c6b1qndS6VtACiRagDAFHp7ZWGplaYhjd82axtxXIcqbJy5s/7vrVkhZs0qqvtZ+bM0/F0pP+wfnDoDXVP1ihZVSnV1sirqlTgjM3MgVz3zZ5+AAAwje/bmTvd2ZybQWBz8FIp+zyRyM3ocSQ5jjKB1NbUpOXdB1W7ZUJrG9v0G+vW6tPbX9U/v9KgjlWXaxFnNIAIEeoAQFTyrRIPhzJOl81amFNdLS1fLi1eLNXUSIsWSS0tc3+vl1Bm5+Pqe+E5jSY75XzofjmrG3Xw0G6lu06qOjn1pzyVst+3aZPU1sagZAAAQp4n7d0rPfusLSXwPDuLFy+WbrtN6ug4/bkZnu/d3bbYIJu1hzmHD9vvSySVK5915HgJ+33Jan3g+rfp4PCwvvjqHl1+6Drdn5Vq4v7vBXDRINQBgEIKw5zrrpM2bLCbyNmrzWeXhUtaduPNeufb1mrHV3+kBx74r/qcc0oHDh7Vr1x7k1Y31U+1YgX21LCmRmpsLPB/GAAAF7iwGjY8c4PAwp3qaqmpKfdz853J6bS0atXMhzUnTtgChJ27pGN98v2sXu3v1qd/9Ji+UFMpBZLruTp+akj9Q0f1uc3PasG736N7li5RhceAHQDnj1AHAGJ2QtKWIFB1KqUbmpvVfNdd0lVX2Y3gnj02PLmnxwYqV1ZKS5ZY2LNwoa1IraiUV7VAd9z7CxpO1+vA4T5VtV+tX3nXCr07OKXm1LgUTJVyh+FO2NIFAADm3wo5dVYO9PXp2eeeU2NDg9atW6fGpiYLdHp77Yw+eNA++r7Nxlu61M7qRYukW26RLr1U+sEjWvNap94z6agnlVUqbPXKZtRY26SfX9uiiSpPQ0f7NTw6qYUN88zYA4CzQKgDAFHJ0yOfkbQrCPRCNqvL1qzR1bffLrW2Srt2SZs3S11dtgWrsVGqq5OGh+2m8dQp+3zDBuntb5eaW7Tu1vdp3cb35X759helJ5+Uxn0pQX8+AABnzXWV9n3t3LNHL27frjWrVyudydjsnJ07paeftnO5qsqqeWprbX5ed7ed1Y2Ndk6/7W3SR+7XpuWXatOe3dYSPTtISqWkFcukjddLBDoAIkKoAwBRmJyUBgbs47Rw56Ck7em0mtvb9c4NG9QuSQ8/bKXadXU2/2bVKnvaV1VlTwDHxmwF+gsvWGhz8KB0++3SypV2gxiWi2eykk81DgAA5yyZ1IFDh/TSrl3qaG/XO97xDi0YH5d++ENp924Lbd71rtxZXVlp1bCnTkmvvmpn9eOP21l9113S+hul/qPS/v12Vk9/4JNKSeOTtsESACJCqAMAUZictCd36fSb/e15oWQAAAsfSURBVPdDkrZmMjpVWam7N2zQ0rY26dFH7SbxsstsMOOKFXbTN32deXW1dPPN0pVX2kDHbdss3Kmttdas6SvTZ6PlCgCAM5NIaLCvT893d2vScfTu22/X4uZm6Xvfk15+WVq92h6+LF1q4Ux4VicSdla3tdlZvWWLtH279Nhj0nvfK73znVbp091tP5/vvAaAiBDqAEAUXHdqpanduAWS9gWB3ggCrVm7VpetXKnk7t22eWPVKunOO21mTrjWfDp/6gleS4t077124/jMM9JLL0kNDVb+PTpqN4sTE7lBy4mEhT4MSQYA4C0FrqtXx8bUk83qug0btPLSS5XYscMqcK6+2ip0WlqsMmf2KvTwrF64UHr/+63a9vnnrb36llssEDp+3MKd+eb5AEAEGMIAADEYlbQ/k1FNa6uuWbtWLSdO2FO8hgbpxhtzN4mnq6wJbyDXrbPKnr177UZzctK+NzFhH8MngK5rAVAyGft/HwAApW5Y0gHfV0NHh9asXq3Gvj57gLJggXTDDfYQZXaYM1s2a+fvDTdIy5dbqHPggLVMd3baz1BFCyBGhDoAEIMeSYNBoLb2djU1Nkr9/dLJk1amvWTJmZdiZ7MWAK1ZY//m6FELdST7fPbvmd7GBQAA5tUj6Zikjs5OO6uPHrVK2Kuusq1WZyqbtVasNWvsHO7vt4c4l18u1dTkqnoAIAaEOgAQhWx2RqByMgiUTia1eOlSNVRW2o1iVZW0eLF9PFvt7VJzs90oDg9H/OYBALj4DPm+/IoKLVm6VA2eJ/X12fy6zk7bTHm2D0k6OqwFurfXzuraWqueJdQBECNCHQCIwvi4tUNNcadegeNY4DMyItXXWzDjOGd3oxgEtga9tdWqdFKp01fpUKkDAMBcs6pZPUmOJN9xFGQyttEqnF13LsONFy60c35iws7q8HoMSgYQI0IdAIhTePMYDjM+18AlCOzm0HXt5jCVsgHL4e8LAnsaWFExc30qAAAwlZW2VGB2yBIGL+H5ea5ndRjihGc1ABQAd/4AEIXq6tO3VUVReh1W/QSBlXYPDNjvDb/e3Gwl48kk1ToAAMy2aJFVvearmPX9t15gcKbClmwAKABCHQCIwrR15pKtNJckz3XlJJNWzu1553ezGATWq19dPf/3AQDA6U2dl2Hs4rmunKoqO2MTifM7Tx0nd1bna5WmTRpAxAh1ACAKjmM3glNtVknHUZDNanBgQGOZjA06Hh6WjhyxtqmzKct2HPt3vb22Cau+Pv/TxGTSgiMAADBT2BYVntWSKqZm6Qz292vM9+2sPn5c6u62c/ZsW6jeeMMWIyxcaA9z8lXscFYDiBihDgBEoaYmt9nK97VEUrPvq7enR0PDw/b1dFp69VVpcPDMf6/j2MDFV16xUKi6WspkpIMHbfjy9Pk5ixfbcEcAADCT71vQsmSJzdbxfS11HNVnMuru7tbwyZN2xo6P25l77NiZ/27XlcbG7Iw/edLO/IkJ6dAhW5EeztVzHGnpUmuXBoCIEOoAQBQcx0KVqRu1hiDQikRCQ/39OvjGGxq77DLpuuukri5p5067yXurJ4Cua0/zdu+W9uyRLrlEWrvWniAeOmThjuvak8CaGpsVUF1NWTcAAPk4jq0dr6+XgkDNklYkkzrW16fDXV2aXLVKuuYae3Cye7cFM2dyVruune1790pXXCFddZVV7Rw6ZGd0eFY3NNjsu/naqAHgHBDqAEBU6urs6ZzjKCHpKtdVUyajrdu26XBXl3TDDdKyZXbjt3WrrU7NV4btOPa1bFbatUt69lm7AbzpJqm2Vtq3z6p2wiqdbFZasMBelHQDAJCf70ttbfbyPCWDQKtdV3WplH78/PN6o7fXzurFi6Xt26Vt2+whTDI5d7NkeFan0/azP/6xhUXr19vP79s3s6I2vHZLC2c1gEh5DzzwwAPFfhMAUBYqK63surdXSqfV4LpyPU8Hxsc1PDmpjhUrVN/cbJU2O3da330yaVU2VVXW5x/e6PX0SE88IT3+uK0vv+UWC4Seecaqdnw/97PZrLRqlT0drKws3n8/AAAXuqoqa63q6XnzrA48T/tHRzWWyahj5UrVNjRIhw/bg5XBQamiwh6qhCvRPc/O4a4uO6ufeMI+37TJqmqfflr6yU+scjY8q31fWrNGuvxy+30AEJFEsd8AAJQN17Vw5fXXpZ/+VAoCrXYcHfE87Xr9df2ks1P1Gzao7r77LJx56SXr2+/stOGMiYQ9+RsdtbLtsTHpssuku+6SVqzQT557TuN79+qyTEbNiak/3+m0bdm45BKrFKL1CgCA07v0Upt/09UlV9LVkrpcV6/s36+9nZ2qW79eNR0dFs7s3GkBzeLFVhEbntUjI3ZWT0zY2X/nndKyZdqzfbtS+/bpsmxWjdPP6pYWacUKC4cAIEJU6gBAlGprra2qp0dKpZR0XdU5jo5ks9px+LCODQyodfly1d90k5y2NmurOnnSqnf6+616J5GQli+3dqvbbtPJujpt3rxZ3922TUcnJrTc89QSXi+TsSd/V19tTx8BAMDp1dXZ2dvXJ2UyqnRdVbuuDmWz2nnokIaOHdOCSy5R/fr1FuRUV0tDQ3ZWDwzYWV1ZaWf1298ubdqkoaoq/eiJJ/SdLVs0OD6uFYmEmiV72JLJ2Fy9NWs4qwFEzgkCHusCQKQGB6Xvf1967TV7mue6OiLpad/X7nRajY2Nuu2WW3TNtdeqtrbWnvKl07l/X1UlJZPyJe3ft09Pbt6s144c0XLX1a2epyslVUt2k9jeLt19t7RyZVH+UwEAKEn9/dIPfpA7qx1HhyQ9lc3q5UxGzS0tumPjRq1du1bV4VasTCb376fO6qykV19+WU9u3qyD3d261PO00fN0maQqyVqoOzpyZ/XZrkkHgLdAqAMAcTh8WPre96zfPpmUHEdjknZKeiqT0QnH0bLOTq2+8kotX7HCbhhDvq+uri69un+/9h86pGBiQm9LJHSz62rBtJ9RZaVV81x+ud0k8uccAIAzk0zaWf3889Lx428ONB6RtEPS0+m0RjxPyxct0ppVq7R0+XJVTZtbF2SzOnLkiF7Zv18HDh+WOzmpDZ6nd7hurpo2lbLhyffcI61ezYBkALEg1AGAOPi+9MIL0lNP2aaqROLNG8ZuSdumqnaGp4YoOrO2aviZjCqDQFckk9rgebpUU0/8pguDHN8n0AEA4GydJmQ5LGmr7+sn6bROBoGcWWd1ICnIZFQlaVUyqQ2uqxWS3ox90mn7/TffLG3YYOvMASAGhDoAEKfDh6XHHrPhya6bG7AoaUjSa0GgQUm+pLAgOyupUdJyx1GHpNPuyOBPOAAA52eelihfubP6mCzImX5WN8vO6jZNO6uzWWur7uyU7rjDhiiz7QpAjAh1ACBu/f3S9u22GjWs2vE8+uoBACgX2axV51RVSVdcYRU6ixfTcgUgdoQ6AFAoYbize7dt0ZBmtGUBAIASEgQW5ASBVFNjM+7Wr5eWLaM6B0DBEOoAQKGdOGHtWAcOSEeOWJk2wQ4AAKVjaiae2tulK6+ULr3U1p8T5gAoMEIdACiWIJDGxuwpH61YAACUjiCws7umxjZpAUCREOoAAAAAAACUIOr9AQAAAAAAShChDgAAAAAAQAki1AEAAAAAAChBhDoAAAAAAAAliFAHAAAAAACgBBHqAAAAAAAAlCBCHQAAAAAAgBJEqAMAAAAAAFCCCHUAAAAAAABKEKEOAAAAAABACSLUAQAAAAAAKEGEOgAAAAAAACWIUAcAAAAAAKAEEeoAAAAAAACUoP8PRKvocBQDdTIAAAAASUVORK5CYII=;connectable=0;" parent="1" vertex="1">
                    <mxGeometry x="206" y="147.0014285714289" width="1141" height="1200" as="geometry"/>
                </mxCell>
                <mxCell id="5" value="" style="endArrow=none;dashed=1;html=1;dashPattern=1 3;strokeWidth=8;" parent="1" edge="1">
                    <mxGeometry width="50" height="50" relative="1" as="geometry">
                        <mxPoint x="567" y="1350" as="sourcePoint"/>
                        <mxPoint x="557" y="105" as="targetPoint"/>
                    </mxGeometry>
                </mxCell>
                <mxCell id="8" value="" style="curved=1;endArrow=classic;html=1;strokeColor=#FF00FF;fontSize=14;fontColor=#000099;strokeWidth=8;" parent="1" edge="1">
                    <mxGeometry width="50" height="50" relative="1" as="geometry">
                        <mxPoint x="695" y="688" as="sourcePoint"/>
                        <mxPoint x="560" y="792" as="targetPoint"/>
                        <Array as="points">
                            <mxPoint x="689" y="792"/>
                        </Array>
                    </mxGeometry>
                </mxCell>
                <mxCell id="10" value="&lt;font style=&quot;font-size: 48px;&quot;&gt;L&lt;/font&gt;" style="text;html=1;strokeColor=none;fillColor=none;align=center;verticalAlign=middle;whiteSpace=wrap;rounded=0;" parent="1" vertex="1">
                    <mxGeometry x="720" y="549" width="60" height="30" as="geometry"/>
                </mxCell>
                <mxCell id="11" value="&lt;font style=&quot;font-size: 48px;&quot;&gt;L&lt;/font&gt;" style="text;html=1;strokeColor=none;fillColor=none;align=center;verticalAlign=middle;whiteSpace=wrap;rounded=0;" parent="1" vertex="1">
                    <mxGeometry x="710" y="910" width="60" height="30" as="geometry"/>
                </mxCell>
                <mxCell id="13" value="&lt;font style=&quot;font-size: 48px;&quot;&gt;t&lt;sub&gt;0&lt;/sub&gt;&lt;/font&gt;" style="text;html=1;strokeColor=none;fillColor=none;align=center;verticalAlign=middle;whiteSpace=wrap;rounded=0;" parent="1" vertex="1">
                    <mxGeometry x="270" y="695" width="140" height="30" as="geometry"/>
                </mxCell>
                <mxCell id="14" value="" style="endArrow=none;html=1;strokeWidth=8;fontSize=48;" parent="1" edge="1">
                    <mxGeometry width="50" height="50" relative="1" as="geometry">
                        <mxPoint x="376" y="728" as="sourcePoint"/>
                        <mxPoint x="589" y="794" as="targetPoint"/>
                    </mxGeometry>
                </mxCell>
                <mxCell id="20" value="" style="endArrow=none;html=1;entryX=0;entryY=1;entryDx=0;entryDy=0;strokeWidth=3;" parent="1" target="10" edge="1">
                    <mxGeometry width="50" height="50" relative="1" as="geometry">
                        <mxPoint x="582" y="520" as="sourcePoint"/>
                        <mxPoint x="700" y="571" as="targetPoint"/>
                    </mxGeometry>
                </mxCell>
                <mxCell id="21" value="" style="endArrow=none;html=1;strokeWidth=3;" parent="1" edge="1">
                    <mxGeometry width="50" height="50" relative="1" as="geometry">
                        <mxPoint x="767" y="780" as="sourcePoint"/>
                        <mxPoint x="745" y="597" as="targetPoint"/>
                    </mxGeometry>
                </mxCell>
                <mxCell id="23" value="" style="endArrow=none;dashed=1;html=1;strokeWidth=6;" parent="1" edge="1">
                    <mxGeometry width="50" height="50" relative="1" as="geometry">
                        <mxPoint x="557" y="528" as="sourcePoint"/>
                        <mxPoint x="1052" y="533" as="targetPoint"/>
                    </mxGeometry>
                </mxCell>
                <mxCell id="24" value="" style="endArrow=none;dashed=1;html=1;strokeWidth=6;endSize=7;" parent="1" edge="1">
                    <mxGeometry width="50" height="50" relative="1" as="geometry">
                        <mxPoint x="1055" y="575" as="sourcePoint"/>
                        <mxPoint x="1055" y="530" as="targetPoint"/>
                    </mxGeometry>
                </mxCell>
                <mxCell id="25" value="&lt;font style=&quot;font-size: 48px;&quot;&gt;D&lt;/font&gt;" style="text;html=1;strokeColor=none;fillColor=none;align=center;verticalAlign=middle;whiteSpace=wrap;rounded=0;" parent="1" vertex="1">
                    <mxGeometry x="780" y="484" width="60" height="30" as="geometry"/>
                </mxCell>
                <mxCell id="26" value="" style="endArrow=none;html=1;strokeWidth=3;endSize=7;" parent="1" edge="1">
                    <mxGeometry width="50" height="50" relative="1" as="geometry">
                        <mxPoint x="480" y="1176" as="sourcePoint"/>
                        <mxPoint x="547" y="1093" as="targetPoint"/>
                    </mxGeometry>
                </mxCell>
                <mxCell id="27" value="&lt;font style=&quot;font-size: 48px;&quot;&gt;H&lt;sub&gt;1&lt;/sub&gt;&lt;/font&gt;" style="text;html=1;strokeColor=none;fillColor=none;align=center;verticalAlign=middle;whiteSpace=wrap;rounded=0;" parent="1" vertex="1">
                    <mxGeometry x="427" y="1181" width="60" height="30" as="geometry"/>
                </mxCell>
                <mxCell id="28" value="" style="endArrow=none;html=1;strokeWidth=3;endSize=7;" parent="1" edge="1">
                    <mxGeometry width="50" height="50" relative="1" as="geometry">
                        <mxPoint x="484" y="1238" as="sourcePoint"/>
                        <mxPoint x="557" y="1316" as="targetPoint"/>
                    </mxGeometry>
                </mxCell>
                <mxCell id="29" value="&lt;font color=&quot;#666600&quot; style=&quot;font-size: 48px;&quot;&gt;P&lt;/font&gt;" style="text;html=1;strokeColor=none;fillColor=none;align=center;verticalAlign=middle;whiteSpace=wrap;rounded=0;" vertex="1" parent="1">
                    <mxGeometry x="798" y="760" width="60" height="30" as="geometry"/>
                </mxCell>
                <mxCell id="31" value="&lt;font color=&quot;#ff66b3&quot; style=&quot;font-size: 48px;&quot;&gt;l&lt;sub style=&quot;&quot;&gt;1&lt;/sub&gt;&lt;/font&gt;" style="text;html=1;strokeColor=none;fillColor=none;align=center;verticalAlign=middle;whiteSpace=wrap;rounded=0;" vertex="1" parent="1">
                    <mxGeometry x="1104" y="840" width="60" height="30" as="geometry"/>
                </mxCell>
                <mxCell id="32" value="&lt;font color=&quot;#ff66b3&quot; style=&quot;font-size: 48px;&quot;&gt;l&lt;sub&gt;1&lt;/sub&gt;&lt;/font&gt;" style="text;html=1;strokeColor=none;fillColor=none;align=center;verticalAlign=middle;whiteSpace=wrap;rounded=0;" vertex="1" parent="1">
                    <mxGeometry x="834" y="1122" width="60" height="30" as="geometry"/>
                </mxCell>
                <mxCell id="33" value="&lt;font color=&quot;#ff66b3&quot; style=&quot;font-size: 48px;&quot;&gt;l&lt;sub&gt;2&lt;/sub&gt;&lt;/font&gt;" style="text;html=1;strokeColor=none;fillColor=none;align=center;verticalAlign=middle;whiteSpace=wrap;rounded=0;" vertex="1" parent="1">
                    <mxGeometry x="636" y="848" width="60" height="30" as="geometry"/>
                </mxCell>
                <mxCell id="34" value="&lt;font color=&quot;#ff66b3&quot;&gt;&lt;font style=&quot;font-size: 48px;&quot;&gt;l&lt;/font&gt;&lt;font style=&quot;font-size: 40px;&quot;&gt;3&lt;/font&gt;&lt;/font&gt;" style="text;html=1;strokeColor=none;fillColor=none;align=center;verticalAlign=middle;whiteSpace=wrap;rounded=0;" vertex="1" parent="1">
                    <mxGeometry x="378" y="399" width="60" height="30" as="geometry"/>
                </mxCell>
                <mxCell id="36" value="&lt;font color=&quot;#666600&quot; style=&quot;font-size: 48px;&quot;&gt;Q&lt;/font&gt;" style="text;html=1;strokeColor=none;fillColor=none;align=center;verticalAlign=middle;whiteSpace=wrap;rounded=0;" vertex="1" parent="1">
                    <mxGeometry x="585" y="454" width="60" height="30" as="geometry"/>
                </mxCell>
                <mxCell id="37" value="&lt;font color=&quot;#666600&quot; style=&quot;font-size: 48px;&quot;&gt;R&lt;/font&gt;" style="text;html=1;strokeColor=none;fillColor=none;align=center;verticalAlign=middle;whiteSpace=wrap;rounded=0;" vertex="1" parent="1">
                    <mxGeometry x="452" y="1074" width="60" height="30" as="geometry"/>
                </mxCell>
            </root>
        </mxGraphModel>
    </diagram>
</mxfile>